<svg width="64" height="64" viewBox="0 0 64 64" fill="none" xmlns="http://www.w3.org/2000/svg">
<g clip-path="url(#clip0_3427_25026)">
<path d="M64.0001 0L0.000195992 9.15574e-05L7.71402e-05 50C7.71402e-05 64 -5.79976e-05 58 2.94564e-05 64H64.0001V0Z" fill="#4173CD"/>
<path d="M64 43.79H0V47.1584H64V43.79Z" fill="#F5D33D"/>
<path d="M1.04781e-05 53.8947H64L64 52L64 50.5264H2.36835e-05C2.36835e-05 50.5264 -1.92341e-05 53 1.04781e-05 53.8947Z" fill="#F5D33D"/>
<path d="M12.4456 16.7256L6.17847 14.5857L12.4456 12.4457L14.5856 6.1792L16.7256 12.4457L22.9927 14.5857L16.7256 16.7256L14.5856 22.9921L12.4456 16.7256Z" fill="#FF333E"/>
<path d="M14.5857 7.30561L16.439 12.7326L21.866 14.5859L16.439 16.4391L14.5857 21.866L12.7325 16.4391L7.30548 14.5859L12.7325 12.7326L14.5857 7.30561ZM14.5857 5.05273L13.8967 7.07023L12.159 12.1591L7.07023 13.8969L5.05273 14.5857L7.07023 15.2746L12.159 17.0124L13.8967 22.1012L14.5857 24.1187L15.2747 22.1012L17.0125 17.0124L22.1012 15.2746L24.1187 14.5857L22.1012 13.8969L17.0125 12.1591L15.2747 7.07023L14.5857 5.05273Z" fill="#F5F5F5"/>
</g>
<defs>
<clipPath id="clip0_3427_25026">
<rect width="64" height="64" rx="10" fill="white"/>
</clipPath>
</defs>
</svg>
