<svg width="64" height="64" viewBox="0 0 64 64" fill="none" xmlns="http://www.w3.org/2000/svg">
<g clip-path="url(#clip0_3427_25131)">
<path d="M50 0H14H0V14V21.3334H64V14V0H50Z" fill="#82AFFF"/>
<path d="M0 49.9999V63.9999H14H50H64V49.9999V42.6665H0V49.9999Z" fill="#82AFFF"/>
<path d="M64 21.3337H0V42.6675H64V21.3337Z" fill="#F5F5F5"/>
<path d="M40.6253 31.5039H34.4141C34.5299 31.4154 34.6215 31.3285 34.7046 31.2465C34.8563 31.0975 34.9768 30.979 35.2968 30.8469C35.6185 30.7114 35.787 30.7098 36.0001 30.7064C36.257 30.7048 36.5476 30.6997 37.0228 30.5033C37.497 30.3052 37.7043 30.1021 37.887 29.9226C38.0386 29.7736 38.1591 29.655 38.48 29.5213C38.7993 29.3875 38.9669 29.3859 39.1791 29.3842C39.4351 29.3808 39.7258 29.3774 40.2009 29.1793L39.869 28.3802C39.5498 28.5139 39.3821 28.5157 39.1699 28.5173C38.9139 28.5207 38.6233 28.524 38.149 28.7204C37.6748 28.9185 37.4676 29.1217 37.2848 29.3012C37.1331 29.4502 37.0128 29.5687 36.6926 29.7007C36.3709 29.8362 36.2024 29.8378 35.9893 29.8412C35.7324 29.8429 35.4418 29.8479 34.9668 30.046C34.4925 30.2424 34.2853 30.4473 34.1025 30.6268C33.9533 30.7727 33.8299 30.8897 33.5228 31.0201L38.4041 26.1148L37.7943 25.5019L33.4003 29.9173C33.4196 29.7729 33.4249 29.6444 33.426 29.528C33.4285 29.313 33.4303 29.1454 33.5633 28.8221C33.6964 28.4987 33.8143 28.3784 33.9625 28.226C34.1428 28.0415 34.3458 27.8315 34.5429 27.3542C34.7391 26.8767 34.7425 26.5855 34.745 26.3282C34.7475 26.1148 34.7493 25.9455 34.8815 25.6239C35.0146 25.3022 35.1316 25.182 35.2799 25.0297C35.4593 24.8452 35.6623 24.6369 35.8585 24.1612L35.0616 23.8293C34.9285 24.151 34.8115 24.2712 34.6633 24.4235C34.4839 24.608 34.2809 24.8163 34.0846 25.292C33.8884 25.7695 33.885 26.0607 33.8825 26.3181C33.88 26.5314 33.8783 26.7007 33.746 27.0224C33.6129 27.3458 33.495 27.4661 33.3468 27.6184C33.1665 27.8029 32.9635 28.0129 32.7664 28.4903C32.5701 28.9678 32.5668 29.2607 32.5634 29.5179C32.5618 29.7267 32.5559 29.8954 32.4311 30.2054V23.2688H31.5686V29.5108C31.4808 29.395 31.3945 29.3033 31.3134 29.2199C31.1643 29.0675 31.0473 28.9457 30.9141 28.6239C30.781 28.3005 30.7785 28.1312 30.776 27.9162C30.7735 27.6588 30.7701 27.3659 30.573 26.8884C30.3768 26.4127 30.1738 26.2044 29.9944 26.0199C29.8461 25.8675 29.729 25.7473 29.596 25.4257C29.4638 25.104 29.462 24.9347 29.4595 24.7214C29.457 24.464 29.4536 24.1729 29.2574 23.6972L28.4605 24.029C28.5928 24.3508 28.5944 24.5183 28.597 24.7317C28.5995 24.989 28.6029 25.2802 28.7991 25.7577C28.9954 26.2334 29.1984 26.4417 29.3778 26.6262C29.526 26.7785 29.6431 26.8988 29.7761 27.2204C29.9093 27.5438 29.9118 27.713 29.9143 27.9282C29.9168 28.1855 29.9201 28.4784 30.1173 28.9558C30.3135 29.4333 30.5165 29.6415 30.6959 29.826C30.842 29.9754 30.9576 30.1 31.0874 30.4077L26.2054 25.5019L25.5955 26.1148L30.4699 31.0129C30.2025 30.8908 30.0735 30.7789 29.9334 30.642C29.7489 30.4609 29.5409 30.256 29.0641 30.0579C28.589 29.8615 28.2985 29.8564 28.0415 29.8531C27.8275 29.8513 27.6591 29.8479 27.3348 29.7125C27.0105 29.5788 26.8891 29.4603 26.735 29.3095C26.5505 29.13 26.3416 28.9252 25.864 28.7254C25.3873 28.5273 25.0959 28.5239 24.8381 28.5205C24.6234 28.5172 24.454 28.5138 24.1298 28.3783L23.7995 29.1808C24.2763 29.3789 24.5678 29.3823 24.8255 29.3857C25.0403 29.3891 25.2096 29.3924 25.5339 29.5279C25.859 29.6617 25.9803 29.7802 26.1345 29.9309C26.319 30.1121 26.5279 30.3153 27.0046 30.5133C27.4814 30.713 27.7728 30.7164 28.0298 30.7198C28.2438 30.7232 28.4121 30.7249 28.7348 30.8603C29.0574 30.9941 29.1778 31.1125 29.3303 31.2615C29.4085 31.3388 29.496 31.4204 29.6021 31.5037H23.3743V32.3705H30.2635C29.9914 32.4747 29.821 32.4877 29.626 32.4908C29.3691 32.4924 29.0785 32.4975 28.6026 32.6939C28.1268 32.892 27.9179 33.0969 27.7334 33.2763C27.5801 33.427 27.4596 33.5455 27.137 33.6793C26.8128 33.8148 26.6434 33.8182 26.4286 33.8215C26.1709 33.8249 25.8795 33.8283 25.4028 34.0264C24.9251 34.2262 24.7163 34.4294 24.5318 34.6105C24.3776 34.7612 24.2564 34.8798 23.932 35.0135L24.2621 35.8161C24.7389 35.6163 24.9478 35.4131 25.1323 35.2319C25.2864 35.0812 25.4076 34.9627 25.7329 34.8289C26.0571 34.6934 26.2265 34.6901 26.4413 34.6867C26.699 34.6833 26.9904 34.6799 27.468 34.4802C27.9431 34.2821 28.1511 34.0789 28.3356 33.8978C28.4881 33.7488 28.6094 33.6303 28.9329 33.4965C29.2546 33.3612 29.424 33.3594 29.637 33.356C29.7461 33.3553 29.869 33.3482 30.002 33.3318L25.5955 37.7597L26.2054 38.3726L31.0774 33.4769C30.9575 33.7443 30.8466 33.8735 30.7101 34.0145C30.5308 34.199 30.3278 34.409 30.1306 34.8864C29.9335 35.3639 29.9294 35.6584 29.9268 35.9158C29.9234 36.1308 29.9218 36.3002 29.7878 36.6252C29.6539 36.9519 29.5351 37.0738 29.386 37.2279C29.2058 37.4124 29.0028 37.624 28.8048 38.1033C28.6068 38.5824 28.6035 38.8753 28.6001 39.1344C28.5968 39.3494 28.5943 39.5204 28.4603 39.8456L29.2571 40.1774C29.455 39.6983 29.4585 39.4054 29.4618 39.1463C29.4651 38.9313 29.4676 38.7603 29.6016 38.4352C29.7355 38.1084 29.8544 37.9865 30.0034 37.8324C30.1836 37.6479 30.3866 37.4363 30.5846 36.9571C30.7818 36.4796 30.7859 36.185 30.7885 35.9277C30.7919 35.7127 30.7935 35.5433 30.9275 35.2183C31.0606 34.8933 31.1785 34.773 31.3276 34.6189C31.4043 34.54 31.4856 34.4519 31.5685 34.3451V40.6055H32.431V33.6825C32.5338 33.9557 32.5468 34.1263 32.5498 34.3229C32.5523 34.5803 32.5565 34.8732 32.7536 35.3505C32.9499 35.8297 33.1538 36.0397 33.3331 36.2242C33.4823 36.3783 33.6001 36.5002 33.734 36.8252C33.8679 37.1503 33.8705 37.3213 33.8739 37.5363C33.8773 37.7953 33.8806 38.0883 34.0786 38.5674C34.2765 39.0465 34.4795 39.2582 34.6599 39.4428C34.809 39.5969 34.9278 39.7188 35.0616 40.0456L35.8585 39.7137C35.6605 39.2346 35.4575 39.0229 35.2773 38.8383C35.1281 38.6842 35.0094 38.5623 34.8755 38.2355C34.7416 37.9106 34.739 37.7396 34.7356 37.5244C34.7323 37.2654 34.7289 36.9726 34.531 36.4933C34.3339 36.0142 34.1309 35.8042 33.9515 35.6197C33.8024 35.4655 33.6845 35.3437 33.5505 35.0187C33.4166 34.6953 33.4149 34.526 33.4115 34.3109C33.4105 34.2014 33.4033 34.0777 33.3869 33.9439L37.7941 38.3726L38.404 37.7597L34.0106 33.3451C34.1533 33.3642 34.281 33.3698 34.3963 33.3713C34.6094 33.373 34.777 33.3747 35.0988 33.5084C35.4205 33.6439 35.541 33.7607 35.6934 33.9114C35.877 34.0909 36.085 34.2958 36.5601 34.4938C37.0344 34.6902 37.3249 34.6936 37.581 34.6953C37.7933 34.6987 37.9609 34.7004 38.281 34.8342C38.6011 34.9663 38.7206 35.0848 38.8723 35.2338C39.0559 35.4133 39.2631 35.6182 39.7373 35.8162L40.0675 35.0137C39.7474 34.8817 39.6279 34.7632 39.4763 34.6142C39.2926 34.4347 39.0854 34.2298 38.6113 34.0318C38.137 33.8354 37.8464 33.832 37.5904 33.8303C37.3781 33.8269 37.2105 33.8252 36.8904 33.6914C36.5686 33.5577 36.4481 33.4408 36.2958 33.2902C36.1121 33.1107 35.9041 32.9058 35.429 32.7094C34.9539 32.5097 34.6634 32.5063 34.4065 32.5046C34.1973 32.5012 34.0281 32.4972 33.7178 32.3708H40.6253V31.5039Z" fill="#F09146"/>
<path d="M31.9999 36.2718C34.3817 36.2718 36.3125 34.3313 36.3125 31.9375C36.3125 29.5438 34.3817 27.6033 31.9999 27.6033C29.6181 27.6033 27.6873 29.5438 27.6873 31.9375C27.6873 34.3313 29.6181 36.2718 31.9999 36.2718Z" fill="#F5D33D"/>
</g>
<defs>
<clipPath id="clip0_3427_25131">
<rect width="64" height="64" rx="10" fill="white"/>
</clipPath>
</defs>
</svg>
