<svg width="64" height="64" viewBox="0 0 64 64" fill="none" xmlns="http://www.w3.org/2000/svg">
<g clip-path="url(#clip0_3427_25269)">
<path d="M64 50V14V0H50H14C6.269 0 0.00175 6.26637 0 13.997V64H50H64V50Z" fill="#334299"/>
<path d="M0 0V50V64L64 0H0Z" fill="#F5F5F5"/>
<path d="M28.0974 0H14H0V13.9985V28.0975L28.0974 0Z" fill="#F5D33D"/>
<path d="M24.5601 27.9045C24.0594 24.5624 21.424 21.927 18.082 21.4263L16.9311 19.1243L15.7802 21.4263C12.4382 21.9269 9.80288 24.5623 9.30212 27.9045L7 29.0554L9.30188 30.2063C9.80263 33.5484 12.438 36.1838 15.78 36.6844L16.9309 38.9864L18.0818 36.6844C21.4238 36.1838 24.0591 33.5484 24.5599 30.2063L26.8617 29.0554L24.5601 27.9045ZM16.931 35.6761C13.2745 35.6761 10.3104 32.712 10.3104 29.0555C10.3104 25.399 13.2745 22.4349 16.931 22.4349C20.5875 22.4349 23.5516 25.399 23.5516 29.0555C23.5518 32.7119 20.5876 35.6761 16.931 35.6761Z" fill="#3A3A46"/>
<path d="M16.931 24.8123L18.1191 26.9976L20.6056 26.9339L19.3071 29.0554L20.6056 31.1769L18.1191 31.1131L16.931 33.2985L15.743 31.1131L13.2563 31.1769L14.5548 29.0554L13.2563 26.9339L15.743 26.9976L16.931 24.8123Z" fill="#FF333E"/>
</g>
<defs>
<clipPath id="clip0_3427_25269">
<rect width="64" height="64" rx="10" fill="white"/>
</clipPath>
</defs>
</svg>
