<svg width="64" height="64" viewBox="0 0 64 64" fill="none" xmlns="http://www.w3.org/2000/svg">
<g clip-path="url(#clip0_3427_25427)">
<path d="M0 0V6.73688H64V0H0Z" fill="#FF333E"/>
<path d="M49.9999 64.0001L64 64V57.2632H0V64.0001H49.9999Z" fill="#FF333E"/>
<path d="M0 6.73682V49.9999V57.2631H64V6.73682H0Z" fill="#334299"/>
<path d="M49.7184 18.3778C63.5683 40.3513 40.3513 63.5683 18.3778 49.7185C16.7243 48.6762 15.3237 47.2757 14.2815 45.6222C0.43165 23.6486 23.6485 0.431712 45.6222 14.2815C47.2757 15.3237 48.6761 16.7242 49.7184 18.3778Z" fill="#F5F5F5"/>
<path d="M27.7987 43.513L24.421 44.076C23.9953 44.147 23.6077 43.8186 23.6077 43.387V42.116H27.7987V43.513Z" fill="#82AFFF"/>
<path d="M36.1807 43.513L39.5583 44.076C39.984 44.147 40.3717 43.8186 40.3717 43.387V42.116H36.1807V43.513Z" fill="#82AFFF"/>
<path d="M31.291 20.7908H30.999C30.6484 20.7908 30.3333 20.5956 30.1764 20.2826L29.6597 19.2493L30.1283 19.0146L30.645 20.048C30.7125 20.1831 30.8483 20.267 30.999 20.267H31.291V20.7908Z" fill="#965032"/>
<path d="M26.7475 21.4448L25.8816 19.7129L25.4128 19.9473L26.2788 21.6792L26.7475 21.4448Z" fill="#965032"/>
<path d="M32.9501 28.8446L31.5187 27.4135C31.2077 27.1025 31.0293 26.672 31.0293 26.232V25.7503C31.0293 25.5737 30.9873 25.3963 30.9082 25.2381L30.5515 24.5246C30.4771 24.3758 30.3273 24.2831 30.161 24.2831H28.9291C28.5628 24.2831 28.2337 24.0798 28.07 23.7523L27.5645 22.7415L28.0331 22.5068L28.5386 23.5177C28.613 23.6665 28.7627 23.7592 28.9291 23.7592H30.161C30.5272 23.7592 30.8563 23.9625 31.0201 24.2898L31.3768 25.0033C31.4921 25.2346 31.5532 25.4925 31.5532 25.7502V26.2318C31.5532 26.534 31.6757 26.8293 31.8892 27.0422L32.4263 27.5797V25.1391C32.4263 24.4775 32.1985 23.8287 31.7851 23.3117C31.2977 22.7018 31.0293 21.9372 31.0293 21.1568V19.1316H31.5532V21.1568C31.5532 21.8185 31.7811 22.4672 32.1945 22.9842C32.6818 23.5941 32.9502 24.3587 32.9502 25.1391L32.9501 28.8446Z" fill="#965032"/>
<path d="M31.7039 27.4899H30.9263C30.4468 27.4899 30.0126 27.1878 29.8454 26.7389L29.6487 26.2081L30.1398 26.0254L30.3366 26.556C30.4277 26.8015 30.6647 26.966 30.9262 26.966H31.7038V27.4899H31.7039Z" fill="#965032"/>
<path d="M31.3822 25.2266L30.9026 25.0151L33.8453 18.3276L34.3248 18.539L31.3822 25.2266Z" fill="#965032"/>
<path d="M35.0456 24.2833H32.5134V23.7594H34.5216V21.2273H35.0456V24.2833Z" fill="#965032"/>
<path d="M30.6692 26.8152H27.7225C27.3788 26.8152 27.1003 26.5367 27.1003 26.1931V25.3419C27.1003 24.9982 27.3788 24.7197 27.7225 24.7197H30.6692C31.0128 24.7197 31.2913 24.9982 31.2913 25.3419V26.1931C31.2913 26.5367 31.0128 26.8152 30.6692 26.8152Z" fill="#73AF00"/>
<path d="M35.5586 26.8152H32.6119C32.2682 26.8152 31.9897 26.5367 31.9897 26.1931V25.3419C31.9897 24.9982 32.2682 24.7197 32.6119 24.7197H35.5586C35.9022 24.7197 36.1807 24.9982 36.1807 25.3419V26.1931C36.1807 26.5367 35.9022 26.8152 35.5586 26.8152Z" fill="#73AF00"/>
<path d="M37.6543 24.7195H34.0091C33.6655 24.7195 33.387 24.441 33.387 24.0974V23.2461C33.387 22.9025 33.6655 22.624 34.0091 22.624H37.6543C37.998 22.624 38.2765 22.9025 38.2765 23.2461V24.0974C38.2765 24.441 37.998 24.7195 37.6543 24.7195Z" fill="#73AF00"/>
<path d="M38.3526 21.9256H32.6119C32.2682 21.9256 31.9897 21.6471 31.9897 21.3035V20.4522C31.9897 20.1086 32.2682 19.8301 32.6119 19.8301H38.3526C38.6962 19.8301 38.9747 20.1086 38.9747 20.4522V21.3035C38.9747 21.6471 38.6962 21.9256 38.3526 21.9256Z" fill="#73AF00"/>
<path d="M35.5588 19.1316H33.3106C32.967 19.1316 32.6885 18.8531 32.6885 18.5095V17.6583C32.6885 17.3146 32.967 17.0361 33.3106 17.0361H35.5588C35.9025 17.0361 36.181 17.3146 36.181 17.6583V18.5095C36.181 18.8531 35.9025 19.1316 35.5588 19.1316Z" fill="#73AF00"/>
<path d="M26.4783 20.5286H24.9285C24.5849 20.5286 24.3064 20.2501 24.3064 19.9065V19.0552C24.3064 18.7116 24.5849 18.4331 24.9285 18.4331H26.4783C26.8219 18.4331 27.1004 18.7116 27.1004 19.0552V19.9065C27.1003 20.2501 26.8218 20.5286 26.4783 20.5286Z" fill="#73AF00"/>
<path d="M31.3677 19.8301H28.421C28.0773 19.8301 27.7988 19.5516 27.7988 19.208V18.3567C27.7988 18.0131 28.0773 17.7346 28.421 17.7346H31.3677C31.7113 17.7346 31.9898 18.0131 31.9898 18.3567V19.208C31.9898 19.5516 31.7113 19.8301 31.3677 19.8301Z" fill="#73AF00"/>
<path d="M30.6693 23.3226H25.627C25.2834 23.3226 25.0049 23.0441 25.0049 22.7004V21.8492C25.0049 21.5056 25.2834 21.2271 25.627 21.2271H30.6693C31.0129 21.2271 31.2914 21.5056 31.2914 21.8492V22.7004C31.2914 23.0441 31.0129 23.3226 30.6693 23.3226Z" fill="#73AF00"/>
<path d="M42.4674 37.9248H21.5125C20.741 37.9248 20.1155 38.5502 20.1155 39.3218C20.1155 40.0933 20.741 40.7188 21.5125 40.7188H27.1005C27.1005 41.4903 27.726 42.1158 28.4975 42.1158H35.4825C36.254 42.1158 36.8795 41.4903 36.8795 40.7188H42.4675C43.239 40.7188 43.8645 40.0933 43.8645 39.3218C43.8644 38.5503 43.2389 37.9248 42.4674 37.9248Z" fill="#73AF00"/>
<path d="M45.9161 25.5269C45.864 25.4221 45.5913 25.5465 45.4213 25.4832C43.3112 24.6989 40.478 23.2699 38.6262 22.2957L38.2545 21.7071L34.7445 20.0011C34.5211 19.8925 34.2518 19.976 34.129 20.192L33.956 20.4962C33.824 20.7284 33.9111 21.0237 34.1481 21.147L37.4905 22.8859L38.435 22.816L42.1058 24.7032C42.1058 24.7032 44.5998 25.979 44.7325 26.0727C44.8651 26.1665 44.9411 26.6911 45.1885 26.6475C45.3655 26.6161 46.142 25.9809 45.9161 25.5269Z" fill="#BE7855"/>
<path d="M22.7638 38.9727C22.7638 38.9727 22.9967 40.006 22.7785 40.1223C22.5602 40.2387 21.396 40.2387 21.4251 39.9913C21.4542 39.744 21.6142 38.8708 21.6142 38.8708L22.7638 38.9727Z" fill="#FFBE3C"/>
<path d="M24.6994 38.4197C24.6994 38.4197 24.5103 39.1909 24.8885 39.2201C25.2669 39.2492 27.406 39.2346 27.4643 39.1764C27.5225 39.1182 27.5953 38.9727 27.5953 38.9727L25.6161 38.4197H24.6994Z" fill="#FFBE3C"/>
<path d="M22.5273 28.801C22.5273 28.801 22.007 30.0379 21.8179 34.3235C21.7675 35.4638 21.9053 35.1967 21.3376 38.8638L22.0111 39.2154C22.2073 39.3178 22.4428 39.3103 22.632 39.1957L23.2876 38.7983C23.2876 38.7983 22.9675 34.6946 24.0153 32.3371C24.0153 32.3371 24.5683 33.3558 24.5683 34.1125C24.5683 34.8693 24.5391 38.5073 24.5391 38.5073C24.5391 38.5073 25.7615 38.711 26.3145 38.6528C26.3145 38.6528 25.9653 30.7583 25.616 28.8993L22.5273 28.801Z" fill="#EAF3F5"/>
<path d="M22.6253 28.2771C22.6253 28.2771 22.418 28.4299 22.5271 28.801C22.5271 28.801 24.1205 29.4886 25.6157 28.8992C25.6157 28.8992 25.7795 28.6591 25.5721 28.3645L22.6253 28.2771Z" fill="#965032"/>
<path d="M20.4936 24.4934C19.5867 24.8305 18.2089 25.6721 18.2962 26.3415C18.3836 27.0109 18.8579 26.8475 19.0058 26.6833C19.1537 26.5189 19.5787 25.9914 19.7113 25.8978C19.8439 25.804 21.9887 24.7029 21.9887 24.7029L27.6676 21.7833C27.6676 21.7833 27.7112 21.4995 27.3729 21.2703C27.3729 21.2703 23.8988 23.2274 20.4936 24.4934Z" fill="#965032"/>
<path d="M23.1712 21.2046L23.1384 21.4448C23.1384 21.4448 23.0512 22.9836 23.5532 23.3984C23.5532 23.3984 23.6623 23.7149 23.4877 23.8678C23.313 24.0205 21.5887 24.8936 21.5887 24.8936C21.5887 24.8936 21.1412 25.8214 21.1522 26.3453C21.1522 26.3453 20.7266 26.1815 20.7702 25.9741C20.8138 25.7668 21.0648 25.221 20.9884 24.9591C20.9121 24.6971 20.6283 24.7736 20.6283 24.7736C20.6283 24.7736 20.4864 24.9264 20.7156 25.0246L20.6392 25.352L19.7114 25.8978L19.9188 26.1488C19.9188 26.1488 19.9297 28.0696 21.0648 28.3206C21.0648 28.3206 21.6651 28.3643 22.3744 27.011C22.3744 27.011 22.7564 27.6876 22.6254 28.277C22.6254 28.277 23.8697 28.9536 25.5722 28.3643L25.5941 27.1855C25.5941 27.1855 25.8561 28.9973 26.7509 28.8226C26.7509 28.8226 29.2301 27.8684 28.8173 27.5056C27.8569 26.6616 26.6972 27.3749 26.6972 27.3749C26.6409 26.1489 26.5383 24.5631 26.3799 24.3915C26.1179 24.1078 25.3103 24.2605 25.1503 23.8968C24.9902 23.533 25.0339 22.8926 25.2086 22.1505C25.3832 21.4084 24.4956 20.8845 24.4956 20.8845L23.1712 21.2046Z" fill="#FFBE3C"/>
<path d="M23.1385 21.4449C23.1385 21.4449 24.0297 21.6704 24.7282 21.3939L25.0338 22.1507H25.2085C25.2085 22.1507 25.6293 20.7503 25.0705 20.7667C25.0705 20.7667 25.0683 20.312 24.0926 20.3312C23.2545 20.3477 22.9638 20.8919 23.1385 21.4449Z" fill="#3A3A46"/>
<path d="M41.3308 38.9727C41.3308 38.9727 41.098 40.006 41.3163 40.1223C41.5346 40.2387 42.6988 40.2387 42.6697 39.9913C42.6406 39.744 42.4806 38.8708 42.4806 38.8708L41.3308 38.9727Z" fill="#965032"/>
<path d="M39.3954 38.4197C39.3954 38.4197 39.5845 39.1909 39.2063 39.2201C38.8279 39.2492 36.6888 39.2346 36.6305 39.1764C36.5723 39.1182 36.4995 38.9727 36.4995 38.9727L38.4786 38.4197H39.3954Z" fill="#965032"/>
<path d="M41.5673 28.801C41.5673 28.801 42.0875 30.0379 42.2767 34.3235C42.327 35.4638 42.1894 35.1967 42.7569 38.8638L42.0834 39.2154C41.8873 39.3178 41.6518 39.3103 41.4625 39.1957L40.8069 38.7983C40.8069 38.7983 41.127 34.6946 40.0793 32.3371C40.0793 32.3371 39.5263 33.3558 39.5263 34.1125C39.5263 34.8693 39.5554 38.5073 39.5554 38.5073C39.5554 38.5073 38.333 38.711 37.78 38.6528C37.78 38.6528 38.1293 30.7583 38.4785 28.8993L41.5673 28.801Z" fill="#EAF3F5"/>
<path d="M41.4692 28.2771C41.4692 28.2771 41.6766 28.4299 41.5675 28.801C41.5675 28.801 39.974 29.4886 38.4789 28.8992C38.4789 28.8992 38.3151 28.6591 38.5225 28.3645L41.4692 28.2771Z" fill="#BE7855"/>
<path d="M40.9234 21.2046L40.9562 21.4448C40.9562 21.4448 41.0434 22.9836 40.5414 23.3984C40.5414 23.3984 40.4323 23.7149 40.6069 23.8678C40.7816 24.0205 42.5059 24.8936 42.5059 24.8936C42.5059 24.8936 42.9534 25.8214 42.9426 26.3453C42.9426 26.3453 43.3682 26.1815 43.3246 25.9741C43.2809 25.7668 43.0299 25.221 43.1063 24.9591C43.1827 24.6971 43.4664 24.7736 43.4664 24.7736C43.4664 24.7736 43.6083 24.9264 43.3792 25.0246L43.4556 25.352L44.3832 25.8978L44.1758 26.1488C44.1758 26.1488 44.1649 28.0696 43.0298 28.3206C43.0298 28.3206 42.4296 28.3643 41.7202 27.011C41.7202 27.011 41.3382 27.6876 41.4692 28.277C41.4692 28.277 40.2249 28.9536 38.5224 28.3643L38.5006 27.1855C38.5006 27.1855 38.2387 28.9973 37.3437 28.8226C37.3437 28.8226 34.8646 27.8684 35.2773 27.5056C36.2377 26.6616 37.3974 27.3749 37.3974 27.3749C37.4537 26.1489 37.5563 24.5631 37.7147 24.3915C37.9766 24.1078 38.7843 24.2605 38.9443 23.8968C39.1044 23.533 39.0607 22.8926 38.8861 22.1505C38.7114 21.4084 39.5991 20.8845 39.5991 20.8845L40.9234 21.2046Z" fill="#965032"/>
<path d="M40.9563 21.4449C40.9563 21.4449 40.0651 21.6704 39.3666 21.3939L39.061 22.1507H38.8863C38.8863 22.1507 38.4656 20.7503 39.0243 20.7667C39.0243 20.7667 39.0265 20.312 40.0022 20.3312C40.8403 20.3477 41.131 20.8919 40.9563 21.4449Z" fill="#3A3A46"/>
<path d="M25.9827 22.0282C25.9098 21.8509 26.0319 21.8022 26.0319 21.8022C26.0319 21.8022 26.9153 21.3173 27.018 21.3255C27.1879 21.3393 27.396 21.6378 27.396 21.8925C27.396 22.1473 27.7278 22.8085 28.4099 22.9729C28.4099 22.9729 27.5587 24.1298 26.377 23.9717C26.377 23.9717 26.4563 23.1803 25.9827 22.0282Z" fill="#EAF3F5"/>
<path d="M27.2208 27.4475C26.9591 27.4475 26.7468 27.6739 26.7468 27.953V33.7339C26.7468 35.1309 27.4017 40.0204 31.9856 41.4174C36.5695 40.0204 37.2243 35.1309 37.2243 33.7339V27.953C37.2243 27.6738 37.0121 27.4475 36.7503 27.4475H27.2208Z" fill="#82AFFF"/>
<path d="M37.2243 33.7339V27.953C37.2243 27.6738 37.0122 27.4475 36.7503 27.4475H31.9856V32.337L36.5902 36.9416C37.1001 35.596 37.2243 34.3381 37.2243 33.7339Z" fill="#F5D33D"/>
<path d="M26.7468 33.7339V27.953C26.7468 27.6738 26.959 27.4475 27.2208 27.4475H31.9856V32.337L27.381 36.9416C26.8711 35.596 26.7468 34.3381 26.7468 33.7339Z" fill="#EAF3F5"/>
<path d="M28.8965 36.7922L30.1086 38.0741H33.4846L34.2004 37.1567L33.3771 37.4861H30.6487L28.8965 36.7922Z" fill="#8C5A28"/>
<path d="M30.2017 35.1379L30.0167 37.0039L29.1746 36.6824C29.1746 36.6824 29.5621 35.7832 30.2017 35.1379Z" fill="#F5F5F5"/>
<path d="M31.9883 34.3987H31.8638V37.5762H31.9883V34.3987Z" fill="#8C5A28"/>
<path d="M33.1396 34.6675H33.0151V37.5761H33.1396V34.6675Z" fill="#8C5A28"/>
<path d="M30.8408 34.6675H30.7163V37.5761H30.8408V34.6675Z" fill="#8C5A28"/>
<path d="M32.3881 37.2744H31.4642C31.4303 37.2744 31.4028 37.2469 31.4028 37.213V36.6654C31.4028 36.6315 31.4303 36.604 31.4642 36.604H32.3881C32.422 36.604 32.4495 36.6315 32.4495 36.6654V37.213C32.4495 37.2469 32.422 37.2744 32.3881 37.2744Z" fill="#F5F5F5"/>
<path d="M32.3881 36.3806H31.4642C31.4303 36.3806 31.4028 36.3531 31.4028 36.3192V35.7716C31.4028 35.7377 31.4303 35.7102 31.4642 35.7102H32.3881C32.422 35.7102 32.4495 35.7377 32.4495 35.7716V36.3192C32.4495 36.3531 32.422 36.3806 32.3881 36.3806Z" fill="#F5F5F5"/>
<path d="M32.3881 35.5573H31.4642C31.4303 35.5573 31.4028 35.5298 31.4028 35.496V34.9483C31.4028 34.9145 31.4303 34.887 31.4642 34.887H32.3881C32.422 34.887 32.4495 34.9145 32.4495 34.9483V35.496C32.4495 35.53 32.422 35.5573 32.3881 35.5573Z" fill="#F5F5F5"/>
<path d="M33.4689 37.2744H32.6861C32.6523 37.2744 32.6248 37.2469 32.6248 37.213V36.6654C32.6248 36.6315 32.6523 36.604 32.6861 36.604H33.4689C33.5028 36.604 33.5303 36.6315 33.5303 36.6654V37.213C33.5303 37.2469 33.5028 37.2744 33.4689 37.2744Z" fill="#F5F5F5"/>
<path d="M33.4689 36.4515H32.6861C32.6523 36.4515 32.6248 36.424 32.6248 36.3901V35.9476C32.6248 35.9137 32.6523 35.8862 32.6861 35.8862H33.4689C33.5028 35.8862 33.5303 35.9137 33.5303 35.9476V36.3901C33.5303 36.424 33.5028 36.4515 33.4689 36.4515Z" fill="#F5F5F5"/>
<path d="M33.4689 35.6356H32.6861C32.6523 35.6356 32.6248 35.6081 32.6248 35.5743V35.2225C32.6248 35.1886 32.6523 35.1611 32.6861 35.1611H33.4689C33.5028 35.1611 33.5303 35.1886 33.5303 35.2225V35.5743C33.5303 35.6083 33.5028 35.6356 33.4689 35.6356Z" fill="#F5F5F5"/>
<path d="M31.1696 37.2744H30.3868C30.3529 37.2744 30.3254 37.2469 30.3254 37.213V36.6654C30.3254 36.6315 30.3529 36.604 30.3868 36.604H31.1696C31.2034 36.604 31.2309 36.6315 31.2309 36.6654V37.213C31.2309 37.2469 31.2034 37.2744 31.1696 37.2744Z" fill="#F5F5F5"/>
<path d="M31.1696 36.4515H30.3868C30.3529 36.4515 30.3254 36.424 30.3254 36.3901V35.9476C30.3254 35.9137 30.3529 35.8862 30.3868 35.8862H31.1696C31.2034 35.8862 31.2309 35.9137 31.2309 35.9476V36.3901C31.2309 36.424 31.2034 36.4515 31.1696 36.4515Z" fill="#F5F5F5"/>
<path d="M31.1696 35.6356H30.3868C30.3529 35.6356 30.3254 35.6081 30.3254 35.5743V35.2225C30.3254 35.1886 30.3529 35.1611 30.3868 35.1611H31.1696C31.2034 35.1611 31.2309 35.1886 31.2309 35.2225V35.5743C31.2309 35.6083 31.2034 35.6356 31.1696 35.6356Z" fill="#F5F5F5"/>
<path d="M33.0147 34.6677V35.0436L32.4614 34.8522L33.0147 34.6677Z" fill="#FF333E"/>
<path d="M30.7168 34.6677V35.0436L30.1636 34.8522L30.7168 34.6677Z" fill="#FF333E"/>
<path d="M31.8679 34.3977V34.7736L31.3147 34.5823L31.8679 34.3977Z" fill="#FF333E"/>
<path d="M36.1433 37.925H27.8279C27.9518 38.1605 28.0875 38.3939 28.24 38.6236H35.7313C35.8836 38.3939 36.0194 38.1605 36.1433 37.925Z" fill="#4173CD"/>
<path d="M35.7312 38.6235H28.24C28.5709 39.1215 28.9764 39.5945 29.4626 40.0205H34.5085C34.9949 39.5945 35.4004 39.1215 35.7312 38.6235Z" fill="#73AF00"/>
<path d="M29.4626 40.0205C30.133 40.6078 30.9556 41.1035 31.9856 41.4175C33.0156 41.1035 33.8383 40.6079 34.5086 40.0205H29.4626Z" fill="#F5D33D"/>
<path d="M31.0884 32.7476C31.0884 32.7476 31.0371 32.7655 30.9823 32.7592C30.9398 32.7408 30.8528 32.7381 30.9053 32.5768C30.9308 32.4968 30.9843 32.3841 30.9455 32.3548C30.9141 32.3185 30.8801 32.2791 30.8439 32.2371C30.7714 32.1531 30.6895 32.0582 30.6001 31.9548C30.4166 31.7526 30.1991 31.5201 29.9455 31.2908C29.8189 31.176 29.6881 31.0572 29.5553 30.9366C29.4176 30.8206 29.2904 30.6905 29.1404 30.5823C29.0555 30.5377 28.9478 30.5153 28.8535 30.4805C28.7615 30.4433 28.7039 30.3735 28.6365 30.3141C28.5048 30.1923 28.375 30.0726 28.2495 29.9567C27.9946 29.7286 27.7709 29.5021 27.5794 29.3077C27.3938 29.1221 27.2436 28.9607 27.1379 28.8432C27.037 28.7312 27.0434 28.561 27.1518 28.4562L27.4621 28.1567C27.5706 28.0521 27.741 28.0518 27.8494 28.1566C27.9631 28.2666 28.119 28.4223 28.2979 28.6145C28.4854 28.8128 28.7038 29.0446 28.9225 29.3075C29.0339 29.4371 29.1489 29.571 29.2658 29.7071C29.3226 29.7766 29.3904 29.8366 29.4243 29.93C29.4558 30.0255 29.4744 30.134 29.5159 30.2203C29.6186 30.3741 29.7439 30.506 29.855 30.6476C29.9708 30.7847 30.0848 30.9196 30.1951 31.0502C30.4151 31.312 30.6398 31.5376 30.8353 31.7282C30.9354 31.8212 31.0273 31.9063 31.1086 31.982C31.1494 32.0197 31.1874 32.0551 31.2226 32.0877C31.2505 32.1275 31.3651 32.0781 31.4459 32.0555C31.609 32.0087 31.6088 32.0958 31.6255 32.139C31.6298 32.1941 31.6101 32.2447 31.6101 32.2447L31.0884 32.7476Z" fill="#BE7855"/>
<path d="M27.6676 33.2976C27.6137 33.2976 27.5595 33.2812 27.5125 33.2465C27.3961 33.1605 27.3712 32.9968 27.4572 32.8802L29.9456 29.5043C30.0312 29.3883 30.1942 29.3625 30.3119 29.4491C30.4281 29.5351 30.4531 29.6987 30.3671 29.8153L27.8787 33.1912C27.8276 33.2607 27.7481 33.2976 27.6676 33.2976Z" fill="#965032"/>
<path d="M29.6616 29.2812L30.9567 30.1398L31.5096 29.3686L30.3019 28.3936L29.6616 29.2812Z" fill="#F5F5F5"/>
<path d="M33.103 28.9493L36.4219 33.0422C36.4219 33.0422 36.8884 33.0635 36.8248 32.6923L33.3893 28.6631L33.103 28.9493Z" fill="#965032"/>
<path d="M32.3608 29.5112C32.3608 29.5112 33.294 29.3416 33.6862 28.7583L34.2163 29.3839C34.2163 29.3839 33.3468 29.9989 33.2621 30.6669C33.2621 30.6669 32.5517 30.4762 32.3608 29.5112Z" fill="#EAF3F5"/>
<path d="M35.9448 29.1082C35.8838 29.1082 35.8251 29.075 35.7946 29.0174C35.7003 28.8385 35.684 28.6768 35.7463 28.5363C35.8334 28.3394 36.0385 28.2818 36.0614 28.2759C36.1539 28.2554 36.2446 28.3077 36.2681 28.3978C36.2914 28.4879 36.2377 28.58 36.1479 28.6039C36.129 28.6099 36.0734 28.6344 36.0558 28.6748C36.0392 28.7145 36.0532 28.7802 36.0949 28.8597C36.1387 28.9425 36.1068 29.0452 36.0236 29.0889C35.9985 29.1022 35.9717 29.1082 35.9448 29.1082Z" fill="#965032"/>
<path d="M33.2183 31.6333C33.2183 31.5723 33.1851 31.5137 33.1275 31.4832C32.9486 31.3887 32.7869 31.3725 32.6464 31.4348C32.4496 31.5219 32.3919 31.727 32.386 31.7499C32.3655 31.8424 32.4178 31.9332 32.5079 31.9567C32.598 31.9799 32.6902 31.9262 32.714 31.8364C32.72 31.8175 32.7445 31.7619 32.7849 31.7443C32.8246 31.7278 32.8903 31.7417 32.9698 31.7834C33.0527 31.8272 33.1553 31.7954 33.199 31.7122C33.2123 31.6869 33.2183 31.6602 33.2183 31.6333Z" fill="#965032"/>
<path d="M36.0578 28.7266L32.9333 31.7944L33.6686 32.6144L36.7223 29.5324L36.0578 28.7266Z" fill="#EAF3F5"/>
<path d="M20.1881 24.3044C20.3973 24.2559 20.581 24.5372 20.3918 24.7409C20.2027 24.9446 19.656 25.3126 19.4896 25.2792C19.1985 25.2211 18.9948 24.5809 20.1881 24.3044Z" fill="#FFBE3C"/>
<path d="M43.8945 24.599C43.7003 24.5505 43.5302 24.8319 43.7056 25.0357C43.881 25.2394 44.3878 25.6074 44.5421 25.574C44.812 25.5158 45.0008 24.8755 43.8945 24.599Z" fill="#965032"/>
<path d="M36.7505 27.4476C37.0122 27.4476 37.2245 27.674 37.2245 27.9531V33.734C37.2245 35.131 36.5696 40.0205 31.9857 41.4175C27.4018 40.0205 26.747 35.131 26.747 33.734V27.9531C26.747 27.674 26.9592 27.4476 27.221 27.4476H36.7505ZM36.7505 27.0984H27.221C26.7671 27.0984 26.3977 27.4818 26.3977 27.9531V33.734C26.3977 34.0678 26.4427 35.8286 27.3311 37.724C28.2756 39.739 29.85 41.1316 31.8838 41.7515L31.9856 41.7825L32.0875 41.7515C34.1213 41.1316 35.6957 39.739 36.6402 37.724C37.5286 35.8286 37.5736 34.0678 37.5736 33.734V27.9531C37.5737 27.4818 37.2045 27.0984 36.7505 27.0984Z" fill="#3A3A46"/>
<path d="M40.3717 41.4994C38.8874 41.0019 37.295 41.2315 35.7933 42.2334C33.8738 43.513 32.6013 43.513 31.9898 43.513C31.3783 43.513 30.1058 43.513 28.1863 42.2334C26.6848 41.2322 25.0918 41.0024 23.6079 41.4994V42.9967C24.543 42.5497 25.8614 42.3627 27.4114 43.3957C29.6829 44.9101 31.2995 44.9101 31.9898 44.9101C32.68 44.9101 34.2968 44.9101 36.5682 43.3957C38.1183 42.3616 39.4365 42.5492 40.3717 42.9965V41.4994Z" fill="#EAF3F5"/>
<path d="M31.9898 49.4502C22.1686 49.4502 14.1782 41.4598 14.1782 31.6385C14.1782 21.8173 22.1686 13.8269 31.9898 13.8269C41.8111 13.8269 49.8015 21.8173 49.8015 31.6385C49.8015 41.4598 41.8111 49.4502 31.9898 49.4502ZM31.9898 14.5253C22.5537 14.5253 14.8767 22.2019 14.8767 31.6384C14.8767 41.0749 22.5537 48.7515 31.9898 48.7515C41.426 48.7515 49.103 41.0749 49.103 31.6384C49.103 22.202 41.4261 14.5253 31.9898 14.5253Z" fill="#965032"/>
<path d="M12.5047 33.1227C12.5047 33.1227 12.432 30.9399 14.5275 30.9399C14.5275 30.9399 14.5711 31.7984 13.8145 32.1768C13.2025 32.4827 12.5047 33.1227 12.5047 33.1227Z" fill="#73AF00"/>
<path d="M16.5506 33.1227C16.5506 33.1227 16.6233 30.9399 14.5278 30.9399C14.5278 30.9399 14.4842 31.7984 15.2408 32.1768C15.8528 32.4827 16.5506 33.1227 16.5506 33.1227Z" fill="#73AF00"/>
<path d="M51.4605 30.9399C51.4605 30.9399 51.5332 33.1227 49.4377 33.1227C49.4377 33.1227 49.3941 32.2641 50.1507 31.8858C50.7626 31.5798 51.4605 30.9399 51.4605 30.9399Z" fill="#73AF00"/>
<path d="M47.4144 30.9399C47.4144 30.9399 47.3416 33.1227 49.4371 33.1227C49.4371 33.1227 49.4807 32.2641 48.7241 31.8858C48.1122 31.5798 47.4144 30.9399 47.4144 30.9399Z" fill="#73AF00"/>
<path d="M33.0739 51.5093C33.0739 51.5093 30.8911 51.5821 30.8911 49.4866C30.8911 49.4866 31.7497 49.4429 32.128 50.1995C32.434 50.8114 33.0739 51.5093 33.0739 51.5093Z" fill="#73AF00"/>
<path d="M33.0739 47.4632C33.0739 47.4632 30.8911 47.3904 30.8911 49.4859C30.8911 49.4859 31.7497 49.5296 32.128 48.7729C32.434 48.1611 33.0739 47.4632 33.0739 47.4632Z" fill="#73AF00"/>
<path d="M30.8911 12.5535C30.8911 12.5535 33.0739 12.4808 33.0739 14.5763C33.0739 14.5763 32.2154 14.6199 31.837 13.8633C31.531 13.2513 30.8911 12.5535 30.8911 12.5535Z" fill="#73AF00"/>
<path d="M30.8911 16.5994C30.8911 16.5994 33.0739 16.6721 33.0739 14.5766C33.0739 14.5766 32.2154 14.533 31.837 15.2896C31.531 15.9016 30.8911 16.5994 30.8911 16.5994Z" fill="#73AF00"/>
<path d="M18.9814 46.576C18.9814 46.576 17.3865 45.084 18.8682 43.6023C18.8682 43.6023 19.5062 44.1785 19.2385 44.9812C19.0224 45.6302 18.9814 46.576 18.9814 46.576Z" fill="#73AF00"/>
<path d="M21.8424 43.7153C21.8424 43.7153 20.3504 42.1204 18.8687 43.6021C18.8687 43.6021 19.4449 44.2401 20.2475 43.9725C20.8964 43.7561 21.8424 43.7153 21.8424 43.7153Z" fill="#73AF00"/>
<path d="M44.9836 17.4868C44.9836 17.4868 46.5785 18.9788 45.0968 20.4606C45.0968 20.4606 44.4588 19.8843 44.7265 19.0817C44.9427 18.4327 44.9836 17.4868 44.9836 17.4868Z" fill="#73AF00"/>
<path d="M42.1228 20.3477C42.1228 20.3477 43.6148 21.9426 45.0966 20.4609C45.0966 20.4609 44.5203 19.8229 43.7177 20.0904C43.0688 20.3067 42.1228 20.3477 42.1228 20.3477Z" fill="#73AF00"/>
<path d="M46.5272 45.0326C46.5272 45.0326 45.0352 46.6275 43.5535 45.1457C43.5535 45.1457 44.1297 44.5077 44.9323 44.7752C45.5813 44.9917 46.5272 45.0326 46.5272 45.0326Z" fill="#73AF00"/>
<path d="M43.6664 42.1716C43.6664 42.1716 42.0716 43.6636 43.5533 45.1454C43.5533 45.1454 44.1913 44.5691 43.9238 43.7665C43.7073 43.1176 43.6664 42.1716 43.6664 42.1716Z" fill="#73AF00"/>
<path d="M17.438 19.0302C17.438 19.0302 18.93 17.4353 20.4117 18.9171C20.4117 18.9171 19.8355 19.5551 19.0329 19.2875C18.3839 19.0712 17.438 19.0302 17.438 19.0302Z" fill="#73AF00"/>
<path d="M20.2988 21.8912C20.2988 21.8912 21.8937 20.3992 20.4121 18.9175C20.4121 18.9175 19.7741 19.4937 20.0416 20.2964C20.258 20.9452 20.2988 21.8912 20.2988 21.8912Z" fill="#73AF00"/>
<path d="M14.4052 40.4936C14.4052 40.4936 13.5027 38.5049 15.4387 37.7029C15.4387 37.7029 15.8075 38.4794 15.2533 39.1185C14.8049 39.6354 14.4052 40.4936 14.4052 40.4936Z" fill="#73AF00"/>
<path d="M18.1428 38.9452C18.1428 38.9452 17.3747 36.9007 15.4387 37.7025C15.4387 37.7025 15.727 38.5124 16.5708 38.5724C17.2533 38.6209 18.1428 38.9452 18.1428 38.9452Z" fill="#73AF00"/>
<path d="M49.5601 23.5691C49.5601 23.5691 50.4626 25.558 48.5268 26.3598C48.5268 26.3598 48.1579 25.5833 48.7121 24.9442C49.1604 24.4275 49.5601 23.5691 49.5601 23.5691Z" fill="#73AF00"/>
<path d="M45.8223 25.1174C45.8223 25.1174 46.5904 27.1619 48.5264 26.3601C48.5264 26.3601 48.2381 25.5502 47.3943 25.4902C46.7118 25.4416 45.8223 25.1174 45.8223 25.1174Z" fill="#73AF00"/>
<path d="M40.4448 49.609C40.4448 49.609 38.4561 50.5115 37.6541 48.5756C37.6541 48.5756 38.4306 48.2067 39.0697 48.761C39.5866 49.2092 40.4448 49.609 40.4448 49.609Z" fill="#73AF00"/>
<path d="M38.8963 45.8711C38.8963 45.8711 36.8518 46.6392 37.6537 48.5752C37.6537 48.5752 38.4636 48.287 38.5236 47.4431C38.5721 46.7606 38.8963 45.8711 38.8963 45.8711Z" fill="#73AF00"/>
<path d="M23.5205 14.454C23.5205 14.454 25.5093 13.5515 26.3113 15.4875C26.3113 15.4875 25.5348 15.8564 24.8956 15.3021C24.3788 14.8537 23.5205 14.454 23.5205 14.454Z" fill="#73AF00"/>
<path d="M25.0686 18.1917C25.0686 18.1917 27.1131 17.4235 26.3112 15.4875C26.3112 15.4875 25.5014 15.7758 25.4414 16.6197C25.3929 17.3022 25.0686 18.1917 25.0686 18.1917Z" fill="#73AF00"/>
<path d="M25.537 50.4444C25.537 50.4444 23.4925 49.6762 24.2943 47.7402C24.2943 47.7402 25.1042 48.0285 25.1642 48.8724C25.2127 49.5547 25.537 50.4444 25.537 50.4444Z" fill="#73AF00"/>
<path d="M27.0854 46.7062C27.0854 46.7062 25.0967 45.8037 24.2947 47.7397C24.2947 47.7397 25.0712 48.1086 25.7103 47.5543C26.2272 47.1059 27.0854 46.7062 27.0854 46.7062Z" fill="#73AF00"/>
<path d="M38.428 13.6184C38.428 13.6184 40.4725 14.3865 39.6706 16.3225C39.6706 16.3225 38.8607 16.0343 38.8007 15.1904C38.7522 14.508 38.428 13.6184 38.428 13.6184Z" fill="#73AF00"/>
<path d="M36.8799 17.3564C36.8799 17.3564 38.8686 18.2589 39.6706 16.3229C39.6706 16.3229 38.8941 15.954 38.255 16.5083C37.7381 16.9565 36.8799 17.3564 36.8799 17.3564Z" fill="#73AF00"/>
<path d="M50.3955 38.4768C50.3955 38.4768 49.6274 40.5213 47.6914 39.7194C47.6914 39.7194 47.9797 38.9096 48.8235 38.8496C49.5059 38.8011 50.3955 38.4768 50.3955 38.4768Z" fill="#73AF00"/>
<path d="M46.6574 36.9287C46.6574 36.9287 45.7549 38.9175 47.6909 39.7195C47.6909 39.7195 48.0597 38.943 47.5055 38.3038C47.0571 37.787 46.6574 36.9287 46.6574 36.9287Z" fill="#73AF00"/>
<path d="M13.5696 25.5858C13.5696 25.5858 14.3377 23.5413 16.2737 24.3432C16.2737 24.3432 15.9855 25.153 15.1416 25.213C14.4592 25.2615 13.5696 25.5858 13.5696 25.5858Z" fill="#73AF00"/>
<path d="M17.3076 27.1343C17.3076 27.1343 18.2101 25.1455 16.2741 24.3435C16.2741 24.3435 15.9052 25.12 16.4595 25.7591C16.9077 26.276 17.3076 27.1343 17.3076 27.1343Z" fill="#73AF00"/>
<path d="M13.0919 36.9017C13.0919 36.9017 12.5947 34.7751 14.6499 34.3662C14.6499 34.3662 14.8603 35.1997 14.1919 35.7185C13.6516 36.138 13.0919 36.9017 13.0919 36.9017Z" fill="#73AF00"/>
<path d="M17.0601 36.1123C17.0601 36.1123 16.7056 33.9572 14.6504 34.3661C14.6504 34.3661 14.775 35.2167 15.591 35.4401C16.2509 35.6208 17.0601 36.1123 17.0601 36.1123Z" fill="#73AF00"/>
<path d="M50.8731 27.1611C50.8731 27.1611 51.3703 29.2878 49.3151 29.6966C49.3151 29.6966 49.1047 28.8631 49.7731 28.3444C50.3136 27.9249 50.8731 27.1611 50.8731 27.1611Z" fill="#73AF00"/>
<path d="M46.905 27.9504C46.905 27.9504 47.2595 30.1054 49.3148 29.6967C49.3148 29.6967 49.1902 28.8461 48.3742 28.6227C47.7143 28.4419 46.905 27.9504 46.905 27.9504Z" fill="#73AF00"/>
<path d="M36.8529 50.9221C36.8529 50.9221 34.7263 51.4194 34.3174 49.3641C34.3174 49.3641 35.1509 49.1539 35.6696 49.8221C36.0891 50.3626 36.8529 50.9221 36.8529 50.9221Z" fill="#73AF00"/>
<path d="M36.0635 46.9539C36.0635 46.9539 33.9085 47.3084 34.3172 49.3636C34.3172 49.3636 35.1678 49.239 35.3912 48.423C35.572 47.7631 36.0635 46.9539 36.0635 46.9539Z" fill="#73AF00"/>
<path d="M27.1123 13.1408C27.1123 13.1408 29.2389 12.6435 29.6478 14.6988C29.6478 14.6988 28.8143 14.9091 28.2956 14.2408C27.8761 13.7004 27.1123 13.1408 27.1123 13.1408Z" fill="#73AF00"/>
<path d="M27.9016 17.109C27.9016 17.109 30.0566 16.7545 29.6479 14.6992C29.6479 14.6992 28.7972 14.8238 28.5739 15.6398C28.3931 16.2997 27.9016 17.109 27.9016 17.109Z" fill="#73AF00"/>
<path d="M22.0686 48.833C22.0686 48.833 20.2133 47.6807 21.3775 45.9385C21.3775 45.9385 22.1156 46.3792 22.0098 47.2186C21.9243 47.8972 22.0686 48.833 22.0686 48.833Z" fill="#73AF00"/>
<path d="M24.3164 45.4689C24.3164 45.4689 22.5419 44.1956 21.3777 45.938C21.3777 45.938 22.0673 46.4513 22.8023 46.0324C23.3967 45.6935 24.3164 45.4689 24.3164 45.4689Z" fill="#73AF00"/>
<path d="M41.8965 15.2297C41.8965 15.2297 43.7519 16.382 42.5876 18.1242C42.5876 18.1242 41.8495 17.6835 41.9552 16.8441C42.0409 16.1655 41.8965 15.2297 41.8965 15.2297Z" fill="#73AF00"/>
<path d="M39.6487 18.594C39.6487 18.594 41.4232 19.8672 42.5874 18.1248C42.5874 18.1248 41.8978 17.6116 41.1628 18.0305C40.5686 18.3692 39.6487 18.594 39.6487 18.594Z" fill="#73AF00"/>
<path d="M48.7841 41.9453C48.7841 41.9453 47.6319 43.8007 45.8896 42.6364C45.8896 42.6364 46.3304 41.8983 47.1698 42.0041C47.8484 42.0897 48.7841 41.9453 48.7841 41.9453Z" fill="#73AF00"/>
<path d="M45.4201 39.6975C45.4201 39.6975 44.1468 41.472 45.8892 42.6363C45.8892 42.6363 46.4024 41.9466 45.9834 41.2116C45.6448 40.6174 45.4201 39.6975 45.4201 39.6975Z" fill="#73AF00"/>
<path d="M15.1809 22.1175C15.1809 22.1175 16.3332 20.2621 18.0754 21.4263C18.0754 21.4263 17.6347 22.1645 16.7953 22.0587C16.1167 21.9731 15.1809 22.1175 15.1809 22.1175Z" fill="#73AF00"/>
<path d="M18.5451 24.3653C18.5451 24.3653 19.8184 22.5908 18.076 21.4265C18.076 21.4265 17.5628 22.1161 17.9816 22.8511C18.3204 23.4455 18.5451 24.3653 18.5451 24.3653Z" fill="#73AF00"/>
<path d="M16.3937 43.76C16.3937 43.76 15.1204 41.9855 16.8628 40.8213C16.8628 40.8213 17.3761 41.5109 16.9572 42.2459C16.6183 42.8403 16.3937 43.76 16.3937 43.76Z" fill="#73AF00"/>
<path d="M19.7578 41.5125C19.7578 41.5125 18.6055 39.6571 16.8633 40.8214C16.8633 40.8214 17.304 41.5595 18.1434 41.4537C18.822 41.368 19.7578 41.5125 19.7578 41.5125Z" fill="#73AF00"/>
<path d="M47.5715 20.3027C47.5715 20.3027 48.8447 22.0772 47.1023 23.2415C47.1023 23.2415 46.5891 22.5519 47.0081 21.8169C47.3468 21.2225 47.5715 20.3027 47.5715 20.3027Z" fill="#73AF00"/>
<path d="M44.2075 22.5503C44.2075 22.5503 45.3598 24.4057 47.102 23.2414C47.102 23.2414 46.6613 22.5033 45.8219 22.609C45.1433 22.6947 44.2075 22.5503 44.2075 22.5503Z" fill="#73AF00"/>
<path d="M43.7112 47.6203C43.7112 47.6203 41.9367 48.8934 40.7725 47.1512C40.7725 47.1512 41.4621 46.6379 42.1971 47.0569C42.7915 47.3957 43.7112 47.6203 43.7112 47.6203Z" fill="#73AF00"/>
<path d="M41.4637 44.2563C41.4637 44.2563 39.6083 45.4086 40.7725 47.1508C40.7725 47.1508 41.5107 46.7102 41.4049 45.8707C41.3192 45.192 41.4637 44.2563 41.4637 44.2563Z" fill="#73AF00"/>
<path d="M20.2539 16.4425C20.2539 16.4425 22.0284 15.1693 23.1927 16.9116C23.1927 16.9116 22.503 17.4249 21.768 17.006C21.1737 16.6671 20.2539 16.4425 20.2539 16.4425Z" fill="#73AF00"/>
<path d="M22.5015 19.8066C22.5015 19.8066 24.3568 18.6544 23.1926 16.9121C23.1926 16.9121 22.4545 17.3527 22.5602 18.1922C22.6458 18.8709 22.5015 19.8066 22.5015 19.8066Z" fill="#73AF00"/>
<path d="M29.2531 51.348C29.2531 51.348 27.0981 50.9935 27.5069 48.9382C27.5069 48.9382 28.3575 49.0629 28.5809 49.8789C28.7616 50.5387 29.2531 51.348 29.2531 51.348Z" fill="#73AF00"/>
<path d="M30.0423 47.3798C30.0423 47.3798 27.9157 46.8825 27.5068 48.9378C27.5068 48.9378 28.3403 49.1482 28.8591 48.4798C29.2786 47.9393 30.0423 47.3798 30.0423 47.3798Z" fill="#73AF00"/>
<path d="M34.7122 12.7148C34.7122 12.7148 36.8672 13.0693 36.4584 15.1246C36.4584 15.1246 35.6078 15 35.3844 14.184C35.2037 13.5241 34.7122 12.7148 34.7122 12.7148Z" fill="#73AF00"/>
<path d="M33.9226 16.6831C33.9226 16.6831 36.0492 17.1804 36.4581 15.1251C36.4581 15.1251 35.6246 14.9148 35.1059 15.5831C34.6865 16.1236 33.9226 16.6831 33.9226 16.6831Z" fill="#73AF00"/>
<path d="M51.2992 34.761C51.2992 34.761 50.9447 36.916 48.8894 36.5072C48.8894 36.5072 49.014 35.6566 49.83 35.4332C50.4899 35.2525 51.2992 34.761 51.2992 34.761Z" fill="#73AF00"/>
<path d="M47.331 33.9714C47.331 33.9714 46.8337 36.0981 48.889 36.5069C48.889 36.5069 49.0992 35.6734 48.431 35.1547C47.8905 34.7353 47.331 33.9714 47.331 33.9714Z" fill="#73AF00"/>
<path d="M12.666 29.302C12.666 29.302 13.0205 27.1469 15.0758 27.5558C15.0758 27.5558 14.9511 28.4064 14.1351 28.6298C13.4753 28.8105 12.666 29.302 12.666 29.302Z" fill="#73AF00"/>
<path d="M16.6343 30.0912C16.6343 30.0912 17.1316 27.9645 15.0763 27.5557C15.0763 27.5557 14.8659 28.3893 15.5343 28.9079C16.0748 29.3274 16.6343 30.0912 16.6343 30.0912Z" fill="#73AF00"/>
</g>
<defs>
<clipPath id="clip0_3427_25427">
<rect width="64" height="64" rx="10" fill="white"/>
</clipPath>
</defs>
</svg>
