<svg width="64" height="64" viewBox="0 0 64 64" fill="none" xmlns="http://www.w3.org/2000/svg">
<g clip-path="url(#clip0_3427_25608)">
<path d="M64.0001 0L0.000195992 9.15574e-05L7.71402e-05 50C7.71402e-05 64 -5.79976e-05 58 2.94564e-05 64H64.0001V0Z" fill="#73AF00"/>
<path d="M58.1244 31.9992L32 5.87476L5.87557 31.9992L32 58.1236L58.1244 31.9992Z" fill="#F5D33D"/>
<path d="M32.0001 42.8276C37.98 42.8276 42.8276 37.98 42.8276 32.0001C42.8276 26.0202 37.98 21.1726 32.0001 21.1726C26.0202 21.1726 21.1726 26.0202 21.1726 32.0001C21.1726 37.98 26.0202 42.8276 32.0001 42.8276Z" fill="#334299"/>
<path d="M22.7088 26.4612C22.198 27.3163 21.8036 28.2459 21.543 29.2327C27.5453 28.7809 36.4245 30.46 42.076 35.9439C42.4448 35.0023 42.6883 33.9993 42.7797 32.9507C36.9441 28.0395 28.8766 26.293 22.7088 26.4612Z" fill="#F5F5F5"/>
<path d="M32.4484 35.695L32.7366 36.5594L33.6479 36.5664C33.7659 36.5672 33.8147 36.7179 33.7199 36.7879L32.9869 37.3292L33.2617 38.198C33.2974 38.3105 33.1692 38.4035 33.0732 38.3349L32.3319 37.805L31.5905 38.3349C31.4945 38.4035 31.3665 38.3104 31.402 38.198L31.6769 37.3292L30.9439 36.788C30.849 36.7179 30.8979 36.5674 31.0159 36.5665L31.9271 36.5595L32.2154 35.6951C32.2527 35.5831 32.4111 35.5831 32.4484 35.695Z" fill="#F5F5F5"/>
<path d="M35.9899 37.9311L36.114 38.3032L36.5061 38.3062C36.5569 38.3066 36.578 38.3715 36.5371 38.4016L36.2216 38.6346L36.3399 39.0085C36.3551 39.0569 36.3 39.097 36.2587 39.0674L35.9396 38.8394L35.6205 39.0674C35.5791 39.0969 35.524 39.0569 35.5394 39.0085L35.6576 38.6346L35.3421 38.4016C35.3012 38.3715 35.3224 38.3066 35.3731 38.3062L35.7654 38.3032L35.8895 37.9311C35.9057 37.883 35.9739 37.883 35.9899 37.9311Z" fill="#F5F5F5"/>
<path d="M30.9171 34.0529L31.0412 34.4251L31.4334 34.4281C31.4841 34.4284 31.5052 34.4933 31.4644 34.5234L31.1489 34.7564L31.2671 35.1303C31.2825 35.1787 31.2274 35.2188 31.186 35.1892L30.8669 34.9612L30.5477 35.1892C30.5065 35.2187 30.4514 35.1787 30.4666 35.1303L30.5849 34.7564L30.2694 34.5234C30.2285 34.4933 30.2496 34.4284 30.3004 34.4281L30.6925 34.4251L30.8166 34.0529C30.8329 34.0048 30.901 34.0048 30.9171 34.0529Z" fill="#F5F5F5"/>
<path d="M24.0471 33.6019L24.1712 33.974L24.5634 33.977C24.6141 33.9774 24.6352 34.0421 24.5944 34.0724L24.2789 34.3054L24.3971 34.6792C24.4124 34.7276 24.3574 34.7677 24.316 34.7381L23.9969 34.5101L23.6777 34.7381C23.6364 34.7676 23.5814 34.7276 23.5966 34.6792L23.715 34.3054L23.3995 34.0724C23.3586 34.0422 23.3797 33.9774 23.4305 33.977L23.8226 33.974L23.9467 33.6019C23.9629 33.5536 24.0311 33.5536 24.0471 33.6019Z" fill="#F5F5F5"/>
<path d="M29.7944 37.8027L29.9185 38.1748L30.3108 38.1778C30.3615 38.1782 30.3827 38.2431 30.3418 38.2732L30.0263 38.5062L30.1445 38.8801C30.1599 38.9284 30.1048 38.9686 30.0634 38.9389L29.7443 38.7109L29.4252 38.9389C29.3839 38.9684 29.3288 38.9284 29.344 38.8801L29.4623 38.5062L29.1468 38.2732C29.1059 38.2431 29.127 38.1782 29.1778 38.1778L29.5699 38.1748L29.694 37.8027C29.7103 37.7546 29.7784 37.7546 29.7944 37.8027Z" fill="#F5F5F5"/>
<path d="M26.6322 33.3423L26.7337 33.6465L27.0545 33.649C27.096 33.6494 27.1132 33.7024 27.0798 33.727L26.8218 33.9175L26.9186 34.2233C26.9311 34.2629 26.8861 34.2956 26.8522 34.2715L26.5913 34.085L26.3305 34.2715C26.2967 34.2956 26.2516 34.2629 26.2641 34.2233L26.3608 33.9175L26.1028 33.727C26.0695 33.7024 26.0866 33.6494 26.1282 33.649L26.449 33.6465L26.5505 33.3423C26.5633 33.3029 26.6191 33.3029 26.6322 33.3423Z" fill="#F5F5F5"/>
<path d="M36.2652 27.0621L36.3921 27.4426L36.7932 27.4457C36.8451 27.4461 36.8667 27.5123 36.8248 27.5432L36.5022 27.7815L36.6232 28.164C36.6388 28.2135 36.5825 28.2545 36.5402 28.2242L36.2138 27.991L35.8875 28.2242C35.8452 28.2545 35.7888 28.2135 35.8045 28.164L35.9255 27.7815L35.6028 27.5432C35.5611 27.5123 35.5826 27.4461 35.6345 27.4457L36.0356 27.4426L36.1625 27.0621C36.1791 27.0128 36.2487 27.0128 36.2652 27.0621Z" fill="#F5F5F5"/>
<path d="M24.489 31.4812L24.5905 31.7854L24.9113 31.7879C24.9528 31.7883 24.97 31.8412 24.9366 31.8659L24.6786 32.0564L24.7754 32.3622C24.7879 32.4018 24.7429 32.4346 24.709 32.4104L24.448 32.2239L24.1871 32.4104C24.1534 32.4346 24.1083 32.4018 24.1208 32.3622L24.2175 32.0564L23.9595 31.8659C23.9261 31.8413 23.9433 31.7883 23.9849 31.7879L24.3056 31.7854L24.4071 31.4812C24.4203 31.4418 24.4759 31.4418 24.489 31.4812Z" fill="#F5F5F5"/>
<path d="M26.0377 35.7688L26.1913 36.2296L26.6771 36.2333C26.7399 36.2338 26.7661 36.3141 26.7154 36.3515L26.3247 36.64L26.4712 37.1031C26.4902 37.1631 26.4219 37.2126 26.3707 37.1761L25.9756 36.8936L25.5804 37.1761C25.5293 37.2126 25.4611 37.1631 25.4799 37.1031L25.6264 36.64L25.2357 36.3515C25.1851 36.3141 25.2112 36.2338 25.2741 36.2333L25.7598 36.2296L25.9134 35.7688C25.9334 35.7092 26.0178 35.7092 26.0377 35.7688Z" fill="#F5F5F5"/>
<path d="M37.9645 38.0276L38.0612 38.3175L38.3668 38.3199C38.4063 38.3201 38.4228 38.3706 38.3909 38.3941L38.145 38.5756L38.2372 38.867C38.249 38.9048 38.2062 38.9359 38.1739 38.9129L37.9253 38.7351L37.6767 38.9129C37.6444 38.9359 37.6015 38.9046 37.6134 38.867L37.7055 38.5756L37.4597 38.3941C37.4278 38.3706 37.4443 38.3201 37.4838 38.3199L37.7894 38.3175L37.886 38.0276C37.8989 37.9901 37.952 37.9901 37.9645 38.0276Z" fill="#F5F5F5"/>
<path d="M39.0339 35.8151L39.158 36.1873L39.5503 36.1903C39.601 36.1906 39.6222 36.2555 39.5813 36.2856L39.2658 36.5186L39.384 36.8926C39.3994 36.941 39.3443 36.9811 39.3029 36.9515L38.9838 36.7235L38.6647 36.9515C38.6233 36.981 38.5683 36.941 38.5835 36.8926L38.7018 36.5186L38.3863 36.2856C38.3454 36.2555 38.3666 36.1906 38.4173 36.1903L38.8094 36.1873L38.9335 35.8151C38.9498 35.767 39.0179 35.767 39.0339 35.8151Z" fill="#F5F5F5"/>
</g>
<defs>
<clipPath id="clip0_3427_25608">
<rect width="64" height="64" rx="10" fill="white"/>
</clipPath>
</defs>
</svg>
