<svg width="64" height="64" viewBox="0 0 64 64" fill="none" xmlns="http://www.w3.org/2000/svg">
<g clip-path="url(#clip0_3427_25733)">
<path d="M0 0C0 0 9.13143e-05 20.2106 9.13143e-05 30.3159H2.20697V32.0001H64.0001V0C64.0001 0 16.6667 0 0 0Z" fill="#F5F5F5"/>
<path d="M0 32V64C21.3333 64 64 64.0001 64 64.0001V32.0001L0 32Z" fill="#FF333E"/>
<path d="M32 0C21.3333 0 0 2.55108e-05 0 2.55108e-05V32H32V0Z" fill="#334299"/>
<path d="M16.6488 8.81654L18.2544 13.6309L23.3293 13.6703C23.9863 13.6754 24.2588 14.5139 23.7301 14.9042L19.6475 17.9189L21.1784 22.7575C21.3765 23.384 20.6633 23.9022 20.1288 23.5202L16 20.5692L11.8711 23.5203C11.3366 23.9024 10.6234 23.3842 10.8215 22.7577L12.3524 17.919L8.26988 14.9043C7.74126 14.5139 8.01376 13.6754 8.67076 13.6704L13.7456 13.631L15.3513 8.81667C15.5591 8.19329 16.4409 8.19329 16.6488 8.81654Z" fill="#F5F5F5"/>
</g>
<defs>
<clipPath id="clip0_3427_25733">
<rect width="64" height="64" rx="10" fill="white"/>
</clipPath>
</defs>
</svg>
