<svg width="64" height="64" viewBox="0 0 64 64" fill="none" xmlns="http://www.w3.org/2000/svg">
<g clip-path="url(#clip0_3427_25936)">
<path d="M64 21.895H0V42.105H64V21.895Z" fill="#FF333E"/>
<path d="M64 0H0L5.126e-05 11H64V0Z" fill="#334299"/>
<path d="M0 11C0 11 8.57189e-05 18.2631 8.57189e-05 21.8946H64.0001C64.0001 18.2631 64.0001 11 64.0001 11H0Z" fill="#F5F5F5"/>
<path d="M0 64H64V53H0V64Z" fill="#334299"/>
<path d="M0 50.0002L1.30385e-06 53H64C64 53 64 45.737 64 42.1055H0V50.0002Z" fill="#F5F5F5"/>
<path d="M14.6275 40.4214C18.9781 40.4214 22.505 36.651 22.505 32.0001C22.505 27.3492 18.9781 23.5789 14.6275 23.5789C10.2769 23.5789 6.75 27.3492 6.75 32.0001C6.75 36.651 10.2769 40.4214 14.6275 40.4214Z" fill="#F5F5F5"/>
<path d="M18.7012 28.74H10.5525V32.8147H18.7012V28.74Z" fill="#3CC8FF"/>
<path d="M11.6396 31.0571L11.7326 31.9561L12.0988 31.1299L11.9094 32.0135L12.5131 31.341L12.0599 32.1229L12.8418 31.6698L12.1692 32.2734L13.0528 32.084L12.2267 32.4503L13.1256 32.5431L12.2267 32.6361L13.0528 33.0024L12.1692 32.813L12.8418 33.4166L12.0599 32.9635L12.5131 33.7454L11.9094 33.0728L12.0988 33.9565L11.7326 33.1303L11.6396 34.0293L11.5466 33.1303L11.1803 33.9565L11.3697 33.0728L10.7662 33.7454L11.2193 32.9635L10.4373 33.4166L11.1099 32.813L10.2263 33.0024L11.0524 32.6361L10.1536 32.5431L11.0524 32.4503L10.2263 32.084L11.1099 32.2734L10.4373 31.6698L11.2193 32.1229L10.7662 31.341L11.3697 32.0135L11.1803 31.1299L11.5466 31.9561L11.6396 31.0571Z" fill="#F5D33D"/>
<path d="M16.2576 38.5195H12.9979L10.0098 36.0747V32.5432H19.5174V36.0747L16.2576 38.5195Z" fill="#334299"/>
<path d="M17.8875 31.4568H17.8872C17.8863 31.3825 17.8262 31.3225 17.7517 31.3225C17.6772 31.3225 17.617 31.3825 17.6162 31.4568H17.6158C17.6158 31.9283 17.3427 32.5803 17.0075 33.0473C16.5398 32.4566 16.3638 31.7716 16.2975 31.3404C16.2659 31.1346 16.0435 31.0205 15.8573 31.1136C15.7677 31.1585 15.7073 31.246 15.6918 31.345C15.4838 32.6773 14.8558 33.2434 14.4492 33.4761C13.8403 32.8875 13.6397 31.9349 13.5735 31.3719C13.5478 31.153 13.3135 31.0273 13.1164 31.1259C13.0405 31.1639 12.9842 31.2324 12.9577 31.313C12.1057 33.9103 9.73804 34.1734 9.73804 34.1734V34.9884H19.2457V34.7168V34.4451V34.1735V33.9019V33.6303C18.1592 33.3583 17.8875 31.4568 17.8875 31.4568Z" fill="#73AF00"/>
<path d="M19.2457 29.012C18.1591 28.4687 18.1591 27.9254 18.1591 27.9254C18.1591 27.9254 16.8009 27.3821 15.7142 27.3821C15.7142 27.3821 15.9859 26.8389 15.4426 26.8389C14.8994 26.8389 14.6276 26.8389 14.6276 26.8389C14.6276 26.8389 14.356 26.8389 13.8126 26.8389C13.2694 26.8389 13.541 27.3821 13.541 27.3821C12.4544 27.3821 11.0961 27.9254 11.0961 27.9254C11.0961 27.9254 11.0961 28.4686 10.0095 29.012C8.92285 29.5552 8.92285 30.7777 8.92285 30.7777C8.92285 31.0027 9.10523 31.1852 9.33035 31.1852C9.55535 31.1852 9.73785 31.0029 9.73785 30.7777C9.73785 30.7314 9.72848 30.6875 9.7141 30.6459L9.73785 30.642L12.4544 28.7405H14.6275H16.8006L19.5171 30.642L19.5409 30.6459C19.5265 30.6875 19.5171 30.7314 19.5171 30.7777C19.5171 31.0027 19.6995 31.1852 19.9246 31.1852C20.1496 31.1852 20.3321 31.0029 20.3321 30.7777C20.3324 30.7777 20.3324 29.5554 19.2457 29.012Z" fill="#F0AA00"/>
<path d="M20.0607 32.2718C19.7891 32.2718 18.9741 32.2718 18.9741 31.4568C18.9741 30.6419 20.0607 30.6419 20.0607 30.6419L18.4308 30.0986C17.8874 32.0001 18.9741 32.0001 18.9741 34.445C18.9741 36.6351 16.5292 37.9764 15.7143 37.9764C14.8993 37.9764 14.6277 38.5196 14.6277 38.5196C14.6277 38.5196 14.3561 37.9764 13.5411 37.9764C12.7261 37.9764 10.2813 36.635 10.2813 34.445C10.2813 32.0001 11.3679 32.0001 10.8246 30.0986L9.19468 30.6419C9.19468 30.6419 10.2813 30.6419 10.2813 31.4568C10.2813 32.2718 9.4663 32.2718 9.19468 32.2718C8.92305 32.2718 7.83643 32.2718 7.83643 33.63C7.83643 34.9883 9.19468 36.6181 11.0962 37.7048C12.9977 38.7914 12.1828 39.8779 14.6276 39.8779C17.0723 39.8779 16.2574 38.7913 18.1589 37.7048C20.0604 36.6181 21.4187 34.9883 21.4187 33.63C21.4188 32.2718 20.3323 32.2718 20.0607 32.2718Z" fill="#F0AA00"/>
<path d="M14.0845 28.02L13.4273 27.7248C13.3183 27.6758 13.1973 27.6643 13.0808 27.6912C12.6572 27.789 11.6065 28.1109 10.8247 29.012L11.6397 29.2837L14.0845 28.02Z" fill="#73AF00"/>
<path d="M15.1709 28.02L15.828 27.7248C15.937 27.6758 16.058 27.6643 16.1745 27.6912C16.5981 27.789 17.6489 28.1109 18.4306 29.012L17.6156 29.2837L15.1709 28.02Z" fill="#73AF00"/>
<path d="M14.7237 28.1971L15.219 27.7018C15.2455 27.6753 15.2455 27.6323 15.219 27.6058C15.1925 27.5793 15.1495 27.5793 15.123 27.6058L14.6277 28.1011L14.1325 27.6058C14.106 27.5793 14.063 27.5793 14.0365 27.6058C14.01 27.6323 14.01 27.6753 14.0365 27.7018L14.5317 28.1971L14.0365 28.6923C14.01 28.7188 14.01 28.7618 14.0365 28.7883C14.0497 28.8016 14.0671 28.8082 14.0845 28.8082C14.1019 28.8082 14.1192 28.8016 14.1325 28.7883L14.6277 28.2931L15.123 28.7883C15.1362 28.8016 15.1536 28.8082 15.171 28.8082C15.1884 28.8082 15.2057 28.8016 15.219 28.7883C15.2455 28.7618 15.2455 28.7188 15.219 28.6923L14.7237 28.1971Z" fill="#73AF00"/>
<path d="M20.0607 30.6418C20.0607 30.1795 19.624 29.9798 19.2457 29.8931V29.678C18.7343 29.6301 18.449 29.4379 17.9531 29.1001C17.7621 28.9699 17.5455 28.8224 17.2841 28.6635C16.329 28.0833 15.5947 27.9995 15.171 28.0198V28.4685H14.0843V28.0198C13.6606 27.9995 12.9263 28.0833 11.9712 28.6635C11.7097 28.8224 11.4932 28.9699 11.3022 29.1001C10.8063 29.4379 10.5211 29.6301 10.0096 29.678V29.8931C9.63133 29.9798 9.19458 30.1795 9.19458 30.6418L10.0096 30.3701V30.494C10.7805 30.4373 11.2213 30.1413 11.761 29.7738C11.9438 29.649 12.1511 29.5079 12.3943 29.3601C13.0147 28.983 13.4968 28.8664 13.8127 28.8389V29.2835H15.4426V28.8389C15.7583 28.8664 16.2406 28.983 16.861 29.3601C17.1042 29.5079 17.3115 29.649 17.4943 29.7738C18.034 30.1413 18.4748 30.4373 19.2457 30.494V30.3701L20.0607 30.6418Z" fill="#F5F5F5"/>
<path d="M17.8876 26.3599V26.0238H17.1309C17.2631 25.9103 17.3442 25.7765 17.3442 25.6163C17.3442 24.8658 15.6367 24.6655 14.6277 24.6655C13.6187 24.6655 11.9112 24.8658 11.9112 25.6163C11.9112 25.7765 11.9925 25.9103 12.1246 26.0238H11.3679V26.3599C10.7029 26.5083 10.1591 26.8653 10.1306 26.8843L10.432 27.3363C10.4394 27.3313 11.1869 26.8387 11.9112 26.8387V26.567H17.3442V26.8387C18.0686 26.8387 18.816 27.3313 18.8235 27.3363L19.1249 26.8843C19.0964 26.8653 18.5527 26.5083 17.8876 26.3599ZM15.7145 25.9487V25.7423C15.7145 25.6093 15.5895 25.5118 15.4605 25.544L14.6279 25.7522L13.7952 25.544C13.6662 25.5118 13.5412 25.6094 13.5412 25.7423V25.9487C12.931 25.859 12.5701 25.7098 12.4717 25.6164C12.6187 25.4769 13.3385 25.2089 14.6279 25.2089C15.9172 25.2089 16.637 25.4768 16.7839 25.6164C16.6856 25.7097 16.3247 25.859 15.7145 25.9487Z" fill="#3CC8FF"/>
<path d="M14.6617 29.386L14.7306 29.5924L14.9481 29.5942C14.9762 29.5944 14.988 29.6303 14.9652 29.647L14.7902 29.7763L14.8559 29.9838C14.8644 30.0107 14.8337 30.0329 14.8109 30.0164L14.6339 29.8899L14.4569 30.0164C14.434 30.0328 14.4034 30.0105 14.4119 29.9838L14.4775 29.7763L14.3025 29.647C14.2799 29.6303 14.2915 29.5944 14.3196 29.5942L14.5371 29.5924L14.606 29.386C14.6151 29.3593 14.6529 29.3593 14.6617 29.386Z" fill="#F5F5F5"/>
<path d="M13.5968 29.4556L13.6869 29.6536L13.9034 29.6325C13.9314 29.6298 13.9468 29.6643 13.9261 29.6833L13.7656 29.8301L13.8526 30.0295C13.8638 30.0553 13.8358 30.0806 13.8112 30.0668L13.6219 29.9595L13.4592 30.1039C13.4382 30.1226 13.4054 30.1038 13.4111 30.0761L13.4546 29.863L13.2669 29.7529C13.2427 29.7386 13.2504 29.7016 13.2784 29.6985L13.4946 29.674L13.5413 29.4615C13.5476 29.434 13.5852 29.43 13.5968 29.4556Z" fill="#F5F5F5"/>
<path d="M12.5034 29.7469L12.6342 29.9206L12.8411 29.8531C12.8679 29.8444 12.8904 29.8747 12.8742 29.8977L12.7494 30.0759L12.8775 30.2517C12.8941 30.2745 12.8721 30.3052 12.8452 30.297L12.6372 30.2332L12.5096 30.4095C12.4931 30.4324 12.457 30.421 12.4566 30.3929L12.4529 30.1754L12.2459 30.1085C12.2191 30.0999 12.2187 30.062 12.2454 30.0529L12.4511 29.9821L12.4507 29.7645C12.4506 29.7364 12.4865 29.7244 12.5034 29.7469Z" fill="#F5F5F5"/>
<path d="M11.4074 30.209L11.5601 30.364L11.7561 30.2696C11.7815 30.2574 11.8079 30.2845 11.7949 30.3095L11.6947 30.5026L11.845 30.6599C11.8645 30.6802 11.8467 30.7136 11.819 30.709L11.6044 30.6734L11.5012 30.865C11.4879 30.8897 11.4506 30.8834 11.4465 30.8555L11.414 30.6404L11.1999 30.6015C11.1721 30.5965 11.1669 30.559 11.192 30.5465L11.3865 30.4491L11.3574 30.2335C11.3536 30.2056 11.3876 30.189 11.4074 30.209Z" fill="#F5F5F5"/>
<path d="M15.6711 29.4556L15.581 29.6536L15.3645 29.6325C15.3365 29.6298 15.3211 29.6643 15.3419 29.6833L15.5024 29.8301L15.4154 30.0295C15.4041 30.0553 15.4321 30.0806 15.4567 30.0668L15.646 29.9595L15.8087 30.1039C15.8297 30.1226 15.8625 30.1038 15.8569 30.0761L15.8134 29.863L16.001 29.7529C16.0252 29.7386 16.0175 29.7016 15.9895 29.6985L15.7734 29.674L15.7266 29.4615C15.7204 29.434 15.6827 29.43 15.6711 29.4556Z" fill="#F5F5F5"/>
<path d="M16.7645 29.7469L16.6337 29.9206L16.4269 29.8531C16.4002 29.8444 16.3777 29.8747 16.3938 29.8977L16.5187 30.0759L16.3905 30.2517C16.3739 30.2745 16.3959 30.3052 16.4228 30.297L16.6308 30.2332L16.7584 30.4095C16.7749 30.4324 16.811 30.421 16.8114 30.3929L16.8152 30.1754L17.0222 30.1085C17.0489 30.0999 17.0493 30.062 17.0227 30.0529L16.8169 29.9821L16.8173 29.7645C16.8173 29.7364 16.7814 29.7244 16.7645 29.7469Z" fill="#F5F5F5"/>
<path d="M17.8607 30.209L17.7079 30.364L17.5119 30.2696C17.4865 30.2574 17.4602 30.2845 17.4732 30.3095L17.5733 30.5026L17.423 30.6599C17.4035 30.6802 17.4213 30.7136 17.449 30.709L17.6637 30.6734L17.7668 30.865C17.7802 30.8897 17.8174 30.8834 17.8215 30.8555L17.854 30.6404L18.068 30.6015C18.0958 30.5965 18.1012 30.559 18.0759 30.5465L17.8813 30.4491L17.9104 30.2335C17.9143 30.2056 17.8804 30.189 17.8607 30.209Z" fill="#F5F5F5"/>
<path d="M12.7517 35.9048L14.1353 36.8302H15.8077L16.5802 36.168L15.986 36.4057H14.0165L12.7517 35.9048Z" fill="#8C5A28"/>
<path d="M13.694 34.7109L13.5605 36.0578L12.9526 35.8258C12.9526 35.8258 13.2323 35.1767 13.694 34.7109Z" fill="#F5F5F5"/>
<path d="M14.9837 34.1775H14.8938V36.4711H14.9837V34.1775Z" fill="#8C5A28"/>
<path d="M15.8147 34.3713H15.7249V36.4708H15.8147V34.3713Z" fill="#8C5A28"/>
<path d="M14.1548 34.3713H14.0649V36.4708H14.1548V34.3713Z" fill="#8C5A28"/>
<path d="M15.2549 36.2529H14.6222C14.5883 36.2529 14.5608 36.2254 14.5608 36.1915V35.8304C14.5608 35.7965 14.5883 35.769 14.6222 35.769H15.2549C15.2888 35.769 15.3163 35.7965 15.3163 35.8304V36.1915C15.3163 36.2254 15.2889 36.2529 15.2549 36.2529Z" fill="#F5F5F5"/>
<path d="M15.2549 35.6079H14.6222C14.5883 35.6079 14.5608 35.5804 14.5608 35.5465V35.1854C14.5608 35.1515 14.5883 35.124 14.6222 35.124H15.2549C15.2888 35.124 15.3163 35.1515 15.3163 35.1854V35.5465C15.3163 35.5804 15.2889 35.6079 15.2549 35.6079Z" fill="#F5F5F5"/>
<path d="M15.2549 35.0137H14.6222C14.5883 35.0137 14.5608 34.9862 14.5608 34.9523V34.5912C14.5608 34.5573 14.5883 34.5298 14.6222 34.5298H15.2549C15.2888 34.5298 15.3163 34.5573 15.3163 34.5912V34.9523C15.3163 34.9862 15.2889 35.0137 15.2549 35.0137Z" fill="#F5F5F5"/>
<path d="M16.0351 36.2529H15.5042C15.4704 36.2529 15.4429 36.2254 15.4429 36.1915V35.8304C15.4429 35.7965 15.4704 35.769 15.5042 35.769H16.0351C16.069 35.769 16.0965 35.7965 16.0965 35.8304V36.1915C16.0965 36.2254 16.069 36.2529 16.0351 36.2529Z" fill="#F5F5F5"/>
<path d="M16.0351 35.6591H15.5042C15.4704 35.6591 15.4429 35.6316 15.4429 35.5977V35.3124C15.4429 35.2785 15.4704 35.251 15.5042 35.251H16.0351C16.069 35.251 16.0965 35.2785 16.0965 35.3124V35.5977C16.0965 35.6316 16.069 35.6591 16.0351 35.6591Z" fill="#F5F5F5"/>
<path d="M16.0351 35.07H15.5042C15.4704 35.07 15.4429 35.0425 15.4429 35.0087V34.7889C15.4429 34.755 15.4704 34.7275 15.5042 34.7275H16.0351C16.069 34.7275 16.0965 34.755 16.0965 34.7889V35.0087C16.0965 35.0427 16.069 35.07 16.0351 35.07Z" fill="#F5F5F5"/>
<path d="M14.3755 36.2529H13.8446C13.8107 36.2529 13.7832 36.2254 13.7832 36.1915V35.8304C13.7832 35.7965 13.8107 35.769 13.8446 35.769H14.3755C14.4093 35.769 14.4368 35.7965 14.4368 35.8304V36.1915C14.4368 36.2254 14.4093 36.2529 14.3755 36.2529Z" fill="#F5F5F5"/>
<path d="M14.3755 35.6591H13.8446C13.8107 35.6591 13.7832 35.6316 13.7832 35.5977V35.3124C13.7832 35.2785 13.8107 35.251 13.8446 35.251H14.3755C14.4093 35.251 14.4368 35.2785 14.4368 35.3124V35.5977C14.4368 35.6316 14.4093 35.6591 14.3755 35.6591Z" fill="#F5F5F5"/>
<path d="M14.3755 35.07H13.8446C13.8107 35.07 13.7832 35.0425 13.7832 35.0087V34.7889C13.7832 34.755 13.8107 34.7275 13.8446 34.7275H14.3755C14.4093 34.7275 14.4368 34.755 14.4368 34.7889V35.0087C14.4368 35.0427 14.4093 35.07 14.3755 35.07Z" fill="#F5F5F5"/>
<path d="M14.1548 34.3716V34.6428L14.5542 34.5047L14.1548 34.3716Z" fill="#F5F5F5"/>
<path d="M15.8135 34.3716V34.6428L16.2129 34.5047L15.8135 34.3716Z" fill="#F5F5F5"/>
<path d="M14.9827 34.1765V34.4479L15.382 34.3098L14.9827 34.1765Z" fill="#F5F5F5"/>
<path d="M13.9216 32.3435L14.4024 32.665H14.9834L15.2518 32.435L15.0454 32.5175H14.3611L13.9216 32.3435Z" fill="#8C5A28"/>
<path d="M14.249 31.9287L14.2026 32.3967L13.9915 32.3161C13.9915 32.3161 14.0886 32.0906 14.249 31.9287Z" fill="#F5F5F5"/>
<path d="M14.6975 31.7437H14.6663V32.5405H14.6975V31.7437Z" fill="#8C5A28"/>
<path d="M14.9861 31.811H14.9548V32.5404H14.9861V31.811Z" fill="#8C5A28"/>
<path d="M14.4087 31.811H14.3774V32.5404H14.4087V31.811Z" fill="#8C5A28"/>
<path d="M14.7915 32.4644H14.5717C14.5599 32.4644 14.5503 32.4549 14.5503 32.443V32.3175C14.5503 32.3058 14.5598 32.2961 14.5717 32.2961H14.7915C14.8033 32.2961 14.8129 32.3056 14.8129 32.3175V32.443C14.8129 32.4549 14.8033 32.4644 14.7915 32.4644Z" fill="#F5F5F5"/>
<path d="M14.7915 32.2401H14.5717C14.5599 32.2401 14.5503 32.2306 14.5503 32.2188V32.0933C14.5503 32.0815 14.5598 32.072 14.5717 32.072H14.7915C14.8033 32.072 14.8129 32.0815 14.8129 32.0933V32.2188C14.8129 32.2306 14.8033 32.2401 14.7915 32.2401Z" fill="#F5F5F5"/>
<path d="M14.7915 32.0337H14.5717C14.5599 32.0337 14.5503 32.0242 14.5503 32.0124V31.8869C14.5503 31.8751 14.5598 31.8655 14.5717 31.8655H14.7915C14.8033 31.8655 14.8129 31.875 14.8129 31.8869V32.0124C14.8129 32.0241 14.8033 32.0337 14.7915 32.0337Z" fill="#F5F5F5"/>
<path d="M15.0623 32.4644H14.8778C14.8661 32.4644 14.8564 32.4549 14.8564 32.443V32.3175C14.8564 32.3058 14.8659 32.2961 14.8778 32.2961H15.0623C15.0741 32.2961 15.0837 32.3056 15.0837 32.3175V32.443C15.0837 32.4549 15.0742 32.4644 15.0623 32.4644Z" fill="#F5F5F5"/>
<path d="M15.0623 32.2581H14.8778C14.8661 32.2581 14.8564 32.2486 14.8564 32.2367V32.1376C14.8564 32.1258 14.8659 32.1162 14.8778 32.1162H15.0623C15.0741 32.1162 15.0837 32.1257 15.0837 32.1376V32.2367C15.0837 32.2485 15.0742 32.2581 15.0623 32.2581Z" fill="#F5F5F5"/>
<path d="M15.0623 32.0533H14.8778C14.8661 32.0533 14.8564 32.0438 14.8564 32.0321V31.9557C14.8564 31.944 14.8659 31.9343 14.8778 31.9343H15.0623C15.0741 31.9343 15.0837 31.9438 15.0837 31.9557V32.0321C15.0837 32.0438 15.0742 32.0533 15.0623 32.0533Z" fill="#F5F5F5"/>
<path d="M14.4858 32.4644H14.3013C14.2895 32.4644 14.28 32.4549 14.28 32.443V32.3175C14.28 32.3058 14.2895 32.2961 14.3013 32.2961H14.4858C14.4975 32.2961 14.5072 32.3056 14.5072 32.3175V32.443C14.5072 32.4549 14.4977 32.4644 14.4858 32.4644Z" fill="#F5F5F5"/>
<path d="M14.4858 32.2581H14.3013C14.2895 32.2581 14.28 32.2486 14.28 32.2367V32.1376C14.28 32.1258 14.2895 32.1162 14.3013 32.1162H14.4858C14.4975 32.1162 14.5072 32.1257 14.5072 32.1376V32.2367C14.5072 32.2485 14.4977 32.2581 14.4858 32.2581Z" fill="#F5F5F5"/>
<path d="M14.4858 32.0533H14.3013C14.2895 32.0533 14.28 32.0438 14.28 32.0321V31.9557C14.28 31.944 14.2895 31.9343 14.3013 31.9343H14.4858C14.4975 31.9343 14.5072 31.9438 14.5072 31.9557V32.0321C14.5072 32.0438 14.4977 32.0533 14.4858 32.0533Z" fill="#F5F5F5"/>
<path d="M14.4092 31.8108V31.905L14.5479 31.857L14.4092 31.8108Z" fill="#F5F5F5"/>
<path d="M14.9854 31.8108V31.905L15.1241 31.857L14.9854 31.8108Z" fill="#F5F5F5"/>
<path d="M14.6968 31.7429V31.8372L14.8355 31.7893L14.6968 31.7429Z" fill="#F5F5F5"/>
<path d="M13.6757 30.9133H13.1353C13.0598 30.9133 12.998 30.8516 12.998 30.7761V30.5882C12.998 30.5127 13.0598 30.4509 13.1353 30.4509H13.6757C13.7512 30.4509 13.8129 30.5127 13.8129 30.5882V30.7761C13.8129 30.8516 13.751 30.9133 13.6757 30.9133Z" fill="#F5F5F5"/>
<path d="M16.3569 30.9133H15.9366C15.8608 30.9133 15.7993 30.8518 15.7993 30.7761V30.5882C15.7993 30.5124 15.8608 30.4509 15.9366 30.4509H16.3569C16.4328 30.4509 16.4942 30.5124 16.4942 30.5882V30.7761C16.4942 30.8519 16.4328 30.9133 16.3569 30.9133Z" fill="#F5F5F5"/>
<path d="M17.9683 31.2613H17.6561C17.6128 31.2613 17.5776 31.2262 17.5776 31.1828V31.0536C17.5776 31.0102 17.6128 30.9751 17.6561 30.9751H17.9683C18.0116 30.9751 18.0468 31.0102 18.0468 31.0536V31.1828C18.0468 31.2262 18.0116 31.2613 17.9683 31.2613Z" fill="#F5F5F5"/>
</g>
<defs>
<clipPath id="clip0_3427_25936">
<rect width="64" height="64" rx="10" fill="white"/>
</clipPath>
</defs>
</svg>
