<svg width="64" height="64" viewBox="0 0 64 64" fill="none" xmlns="http://www.w3.org/2000/svg">
<g clip-path="url(#clip0_3427_25837)">
<path d="M50 0H32H14H0V14V50V64H14H50H64V50V14V0H50Z" fill="#334299"/>
<path d="M0 50C0 50.7523 0.060125 51.4904 0.17425 52.2105H63.8256C63.9399 51.4904 64 50.7523 64 50V43.7896H0V50Z" fill="#F5D33D"/>
<path d="M22.6935 15.7574L21.037 20.7244L15.8012 20.7651C15.2991 20.7689 15.091 21.4097 15.4948 21.7079L19.7068 24.8183L18.1275 29.8103C17.976 30.2891 18.5211 30.6851 18.9296 30.3931L23.1892 27.3484L27.4488 30.3931C27.8573 30.6851 28.4023 30.2891 28.251 29.8103L26.6716 24.8182L30.8836 21.7078C31.2875 21.4096 31.0793 20.7688 30.5772 20.7649L25.3415 20.7243L23.685 15.7573C23.526 15.2811 22.8523 15.2811 22.6935 15.7574Z" fill="#F5F5F5"/>
<path d="M10.7593 6.59156L9.80044 9.46656L6.76994 9.49006C6.47931 9.49231 6.35881 9.86319 6.59256 10.0358L9.03056 11.8362L8.11644 14.7257C8.02881 15.0028 8.34431 15.2319 8.58069 15.0631L11.0463 13.3008L13.5118 15.0631C13.7483 15.2321 14.0637 15.0028 13.9761 14.7258L13.0619 11.8363L15.4999 10.0359C15.7337 9.86331 15.6132 9.49244 15.3226 9.49019L12.2921 9.46669L11.3332 6.59169C11.2412 6.31581 10.8512 6.31581 10.7593 6.59156Z" fill="#F5F5F5"/>
</g>
<defs>
<clipPath id="clip0_3427_25837">
<rect width="64" height="64" rx="10" fill="white"/>
</clipPath>
</defs>
</svg>
