<svg width="64" height="64" viewBox="0 0 64 64" fill="none" xmlns="http://www.w3.org/2000/svg">
<g clip-path="url(#clip0_3427_26484)">
<path d="M0 0V64H21.3334V0H0Z" fill="#82AFFF"/>
<path d="M42.6675 0H21.3337V64H42.6675V0Z" fill="#F5F5F5"/>
<path d="M63.9999 0H42.6665V64H63.9999V0Z" fill="#82AFFF"/>
<path d="M31.6819 25.7109L30.9587 26.0724L31.624 26.3472L31.6819 25.7109Z" fill="#FFC855"/>
<path d="M32.0002 39.0735C27.9811 39.0735 24.7114 35.8037 24.7114 31.7848C24.7114 29.288 25.9681 26.9924 28.0729 25.6438L28.26 25.9359C26.2553 27.2205 25.0585 29.407 25.0585 31.7848C25.0585 35.6125 28.1727 38.7264 32.0002 38.7264V39.0735Z" fill="#73AF00"/>
<path d="M27.8286 39.5285C28.1064 39.585 28.5347 39.5119 28.9749 39.3069C29.4149 39.1019 29.7466 38.8209 29.8819 38.5719C29.6042 38.5154 29.1757 38.5885 28.7357 38.7935C28.2956 38.9987 27.964 39.2795 27.8286 39.5285Z" fill="#73AF00"/>
<path d="M29.8818 38.5719C29.9384 38.2942 29.8652 37.8658 29.6602 37.4258C29.4552 36.9857 29.1742 36.654 28.9252 36.5188C28.8687 36.7964 28.9418 37.2249 29.1468 37.6649C29.3519 38.1049 29.6328 38.4366 29.8818 38.5719Z" fill="#73AF00"/>
<path d="M26.3765 38.6372C26.6428 38.7339 27.0773 38.7244 27.5428 38.5862C28.0082 38.4479 28.3776 38.2188 28.548 37.9923C28.2816 37.8956 27.8471 37.9051 27.3816 38.0433C26.9162 38.1816 26.547 38.4107 26.3765 38.6372Z" fill="#73AF00"/>
<path d="M28.5478 37.9923C28.6446 37.7259 28.6351 37.2914 28.4968 36.8259C28.3587 36.3606 28.1295 35.9912 27.903 35.8208C27.8062 36.0872 27.8157 36.5217 27.954 36.9872C28.0922 37.4526 28.3215 37.8218 28.5478 37.9923Z" fill="#73AF00"/>
<path d="M25.0332 37.4218C25.2778 37.5648 25.7071 37.6335 26.1897 37.5812C26.6723 37.5288 27.0768 37.3697 27.2851 37.1776C27.0405 37.0346 26.6112 36.9659 26.1286 37.0182C25.646 37.0705 25.2415 37.2297 25.0332 37.4218Z" fill="#73AF00"/>
<path d="M27.2851 37.1774C27.4281 36.9328 27.4967 36.5035 27.4445 36.0209C27.3921 35.5383 27.233 35.1338 27.0408 34.9255C26.8978 35.1702 26.8292 35.5994 26.8815 36.082C26.9338 36.5647 27.093 36.9692 27.2851 37.1774Z" fill="#73AF00"/>
<path d="M23.9229 35.7434C24.1384 35.9275 24.5486 36.071 25.0329 36.105C25.5171 36.1389 25.9434 36.0539 26.1825 35.9018C25.967 35.7177 25.5567 35.5742 25.0725 35.5402C24.5881 35.5062 24.1619 35.5912 23.9229 35.7434Z" fill="#73AF00"/>
<path d="M26.1826 35.9017C26.3667 35.6862 26.5102 35.276 26.5442 34.7917C26.5781 34.3075 26.4931 33.8812 26.341 33.6421C26.1569 33.8576 26.0132 34.2678 25.9794 34.7521C25.9454 35.2365 26.0304 35.6627 26.1826 35.9017Z" fill="#73AF00"/>
<path d="M23.2727 33.8944C23.4447 34.1197 23.8155 34.3464 24.2818 34.4814C24.7482 34.6164 25.1827 34.6231 25.4485 34.5246C25.2765 34.2993 24.9057 34.0726 24.4393 33.9376C23.9731 33.8024 23.5385 33.7959 23.2727 33.8944Z" fill="#73AF00"/>
<path d="M25.4487 34.5246C25.6739 34.3526 25.9007 33.9819 26.0357 33.5155C26.1707 33.0491 26.1773 32.6146 26.0788 32.3489C25.8536 32.5209 25.6268 32.8916 25.4918 33.358C25.3567 33.8243 25.3501 34.2589 25.4487 34.5246Z" fill="#73AF00"/>
<path d="M22.9978 31.7359C23.1061 31.9978 23.4061 32.3123 23.8221 32.5627C24.2379 32.8132 24.6563 32.9312 24.9384 32.9043C24.8302 32.6424 24.5302 32.3279 24.1142 32.0775C23.6982 31.8272 23.2799 31.709 22.9978 31.7359Z" fill="#73AF00"/>
<path d="M24.9383 32.9042C25.2002 32.796 25.5147 32.496 25.7651 32.08C26.0154 31.6641 26.1336 31.2457 26.1067 30.9636C25.8448 31.0719 25.5303 31.3719 25.2799 31.7879C25.0294 32.2039 24.9114 32.6221 24.9383 32.9042Z" fill="#73AF00"/>
<path d="M23.2585 29.698C23.3094 29.9767 23.5369 30.3471 23.8912 30.6791C24.2454 31.0111 24.6295 31.2144 24.911 31.2471C24.8602 30.9684 24.6327 30.598 24.2784 30.266C23.9243 29.934 23.54 29.7309 23.2585 29.698Z" fill="#73AF00"/>
<path d="M24.9111 31.2472C25.1899 31.1964 25.5603 30.9689 25.8923 30.6146C26.2243 30.2605 26.4275 29.8762 26.4603 29.5947C26.1815 29.6456 25.8111 29.8731 25.4791 30.2274C25.1471 30.5815 24.944 30.9657 24.9111 31.2472Z" fill="#73AF00"/>
<path d="M24.2825 27.4924C24.2241 27.7698 24.2946 28.1987 24.4969 28.6401C24.6991 29.0814 24.9779 29.4148 25.2261 29.5517C25.2845 29.2743 25.214 28.8454 25.0117 28.4041C24.8095 27.9628 24.5306 27.6293 24.2825 27.4924Z" fill="#73AF00"/>
<path d="M25.2261 29.5518C25.5034 29.6102 25.9323 29.5397 26.3737 29.3374C26.8151 29.1352 27.1484 28.8564 27.2853 28.6082C27.0079 28.5498 26.5791 28.6203 26.1377 28.8226C25.6963 29.0249 25.3629 29.3037 25.2261 29.5518Z" fill="#73AF00"/>
<path d="M25.5069 25.8594C25.3761 26.1109 25.3287 26.5429 25.4049 27.0224C25.481 27.5019 25.66 27.898 25.8622 28.0965C25.993 27.845 26.0404 27.413 25.9642 26.9335C25.8881 26.454 25.7091 26.0579 25.5069 25.8594Z" fill="#73AF00"/>
<path d="M25.8621 28.0965C26.1136 28.2273 26.5456 28.2746 27.0251 28.1984C27.5046 28.1223 27.9007 27.9433 28.0992 27.741C27.8477 27.6103 27.4157 27.5629 26.9362 27.639C26.4567 27.7153 26.0607 27.8943 25.8621 28.0965Z" fill="#73AF00"/>
<path d="M26.7076 24.7227C26.5412 24.9522 26.4307 25.3724 26.4355 25.8579C26.4402 26.3434 26.5588 26.7615 26.7296 26.9877C26.8959 26.7582 27.0064 26.3379 27.0017 25.8524C26.9969 25.3669 26.8783 24.9488 26.7076 24.7227Z" fill="#73AF00"/>
<path d="M26.7295 26.9876C26.959 27.154 27.3792 27.2645 27.8647 27.2598C28.3502 27.255 28.7684 27.1364 28.9945 26.9656C28.765 26.7993 28.3447 26.6888 27.8592 26.6935C27.3739 26.6983 26.9557 26.8169 26.7295 26.9876Z" fill="#73AF00"/>
<path d="M27.3123 26.3923C27.5948 26.4151 28.0113 26.2913 28.4236 26.035C28.836 25.7788 29.1316 25.4601 29.2361 25.1968C28.9536 25.1739 28.5371 25.2978 28.1248 25.554C27.7125 25.8103 27.4168 26.1288 27.3123 26.3923Z" fill="#73AF00"/>
<path d="M32 39.0735V38.7264C35.8276 38.7264 38.9416 35.6125 38.9416 31.7848C38.9416 29.407 37.7447 27.2205 35.7401 25.9359L35.9272 25.6438C38.0321 26.9924 39.2887 29.2882 39.2887 31.7848C39.2887 35.8038 36.0191 39.0735 32 39.0735Z" fill="#73AF00"/>
<path d="M36.1717 39.5285C35.8939 39.585 35.4655 39.5119 35.0254 39.3069C34.5853 39.1019 34.2537 38.8209 34.1184 38.5719C34.396 38.5154 34.8245 38.5885 35.2645 38.7935C35.7047 38.9987 36.0363 39.2795 36.1717 39.5285Z" fill="#73AF00"/>
<path d="M34.1184 38.5719C34.0617 38.2942 34.135 37.8658 34.34 37.4258C34.545 36.9857 34.826 36.654 35.075 36.5188C35.1315 36.7964 35.0583 37.2249 34.8533 37.6649C34.6482 38.1049 34.3674 38.4366 34.1184 38.5719Z" fill="#73AF00"/>
<path d="M37.6236 38.6372C37.3573 38.7339 36.9228 38.7244 36.4573 38.5862C35.9919 38.4479 35.6225 38.2188 35.4521 37.9923C35.7185 37.8956 36.153 37.9051 36.6185 38.0433C37.0839 38.1816 37.4531 38.4107 37.6236 38.6372Z" fill="#73AF00"/>
<path d="M35.4523 37.9923C35.3555 37.7259 35.365 37.2914 35.5033 36.8259C35.6414 36.3606 35.8706 35.9912 36.097 35.8208C36.1938 36.0872 36.1843 36.5217 36.046 36.9872C35.9079 37.4526 35.6787 37.8218 35.4523 37.9923Z" fill="#73AF00"/>
<path d="M38.9667 37.4218C38.7221 37.5648 38.2928 37.6335 37.8102 37.5812C37.3276 37.5288 36.9231 37.3697 36.7148 37.1776C36.9595 37.0346 37.3887 36.9659 37.8713 37.0182C38.354 37.0705 38.7585 37.2297 38.9667 37.4218Z" fill="#73AF00"/>
<path d="M36.715 37.1774C36.572 36.9328 36.5032 36.5035 36.5556 36.0209C36.608 35.5383 36.7671 35.1338 36.9592 34.9255C37.1022 35.1702 37.1708 35.5994 37.1186 36.082C37.0662 36.5647 36.9071 36.9692 36.715 37.1774Z" fill="#73AF00"/>
<path d="M40.0773 35.7434C39.8618 35.9275 39.4515 36.071 38.9673 36.105C38.4829 36.1389 38.0568 36.0539 37.8176 35.9018C38.0331 35.7177 38.4434 35.5742 38.9276 35.5402C39.412 35.5062 39.8383 35.5912 40.0773 35.7434Z" fill="#73AF00"/>
<path d="M37.8175 35.9017C37.6334 35.6862 37.4899 35.276 37.4559 34.7917C37.4219 34.3075 37.507 33.8812 37.6592 33.6421C37.8433 33.8576 37.9868 34.2678 38.0208 34.7521C38.0548 35.2365 37.9698 35.6627 37.8175 35.9017Z" fill="#73AF00"/>
<path d="M40.7273 33.8944C40.5553 34.1197 40.1845 34.3464 39.7181 34.4814C39.2518 34.6164 38.8173 34.6231 38.5515 34.5246C38.7235 34.2993 39.0943 34.0726 39.5606 33.9376C40.0269 33.8024 40.4615 33.7959 40.7273 33.8944Z" fill="#73AF00"/>
<path d="M38.5514 34.5246C38.3261 34.3526 38.0994 33.9819 37.9644 33.5155C37.8294 33.0491 37.8227 32.6146 37.9212 32.3489C38.1465 32.5209 38.3732 32.8916 38.5082 33.358C38.6434 33.8243 38.65 34.2589 38.5514 34.5246Z" fill="#73AF00"/>
<path d="M41.0024 31.7359C40.8941 31.9978 40.5941 32.3123 40.1781 32.5627C39.7623 32.8132 39.3439 32.9312 39.0618 32.9043C39.17 32.6424 39.47 32.3279 39.886 32.0775C40.3019 31.8272 40.7203 31.709 41.0024 31.7359Z" fill="#73AF00"/>
<path d="M39.0618 32.9042C38.7999 32.796 38.4854 32.496 38.235 32.08C37.9846 31.6641 37.8665 31.2457 37.8934 30.9636C38.1553 31.0719 38.4698 31.3719 38.7201 31.7879C38.9706 32.2039 39.0886 32.6221 39.0618 32.9042Z" fill="#73AF00"/>
<path d="M40.7416 29.698C40.6907 29.9767 40.4632 30.3471 40.109 30.6791C39.7547 31.0111 39.3706 31.2144 39.0891 31.2471C39.14 30.9684 39.3675 30.598 39.7217 30.266C40.0759 29.934 40.4601 29.7309 40.7416 29.698Z" fill="#73AF00"/>
<path d="M39.0892 31.2472C38.8104 31.1964 38.44 30.9689 38.108 30.6146C37.776 30.2605 37.5728 29.8762 37.54 29.5947C37.8188 29.6456 38.1892 29.8731 38.5212 30.2274C38.8532 30.5816 39.0563 30.9657 39.0892 31.2472Z" fill="#73AF00"/>
<path d="M39.7176 27.4924C39.7759 27.7698 39.7054 28.1987 39.5032 28.6401C39.3009 29.0814 39.0221 29.4148 38.7739 29.5517C38.7156 29.2743 38.7861 28.8454 38.9883 28.4041C39.1906 27.9628 39.4694 27.6293 39.7176 27.4924Z" fill="#73AF00"/>
<path d="M38.774 29.5518C38.4966 29.6102 38.0677 29.5397 37.6263 29.3374C37.185 29.1352 36.8516 28.8564 36.7146 28.6082C36.992 28.5498 37.4208 28.6203 37.8622 28.8226C38.3037 29.0249 38.6371 29.3037 38.774 29.5518Z" fill="#73AF00"/>
<path d="M38.4933 25.8594C38.6241 26.1109 38.6714 26.5429 38.5953 27.0224C38.5192 27.5019 38.3402 27.898 38.1379 28.0965C38.0072 27.845 37.9598 27.413 38.0361 26.9335C38.1121 26.454 38.2911 26.0579 38.4933 25.8594Z" fill="#73AF00"/>
<path d="M38.138 28.0965C37.8865 28.2273 37.4545 28.2746 36.975 28.1984C36.4955 28.1223 36.0994 27.9433 35.9009 27.741C36.1524 27.6103 36.5844 27.5629 37.0639 27.639C37.5433 27.7153 37.9394 27.8943 38.138 28.0965Z" fill="#73AF00"/>
<path d="M37.2926 24.7227C37.4589 24.9522 37.5694 25.3724 37.5647 25.8579C37.5599 26.3434 37.4413 26.7615 37.2706 26.9877C37.1042 26.7582 36.9937 26.3379 36.9984 25.8524C37.0032 25.3669 37.1218 24.9488 37.2926 24.7227Z" fill="#73AF00"/>
<path d="M37.2706 26.9876C37.0412 27.154 36.6209 27.2645 36.1354 27.2598C35.6499 27.255 35.2317 27.1364 35.0056 26.9656C35.2351 26.7993 35.6554 26.6888 36.1409 26.6935C36.6264 26.6983 37.0445 26.8169 37.2706 26.9876Z" fill="#73AF00"/>
<path d="M36.688 26.3923C36.4055 26.4151 35.989 26.2913 35.5767 26.035C35.1643 25.7788 34.8687 25.4601 34.7642 25.1968C35.0467 25.1739 35.4632 25.2978 35.8755 25.554C36.2879 25.8103 36.5835 26.1288 36.688 26.3923Z" fill="#73AF00"/>
<path d="M28.0209 37.4593L26.7575 38.7227L26.1345 37.4767L28.0035 35.6077L28.6265 36.2307L28.4465 36.7705C28.36 37.03 28.2143 37.2659 28.0209 37.4593Z" fill="#966446"/>
<path d="M34.8565 28.1318L28.0035 34.9848C27.8315 35.1568 27.8315 35.4358 28.0035 35.6078L28.315 35.9193L29.561 34.6733L34.545 29.0663L35.168 28.4433L34.8565 28.1318Z" fill="#B9B9B9"/>
<path d="M29.69 33.9212C29.6074 34.0038 29.561 34.1158 29.561 34.2327V34.6732L34.545 29.0662L29.69 33.9212Z" fill="#966446"/>
<path d="M35.1682 28.4433L34.8567 28.1318L34.5452 28.4433L34.8567 28.7548L35.1682 29.0663L38.5947 25.0168L35.1682 28.4433Z" fill="#A0A0A0"/>
<path d="M36.3261 37.4593L37.5895 38.7227L38.2125 37.4767L36.3435 35.6077L35.7205 36.2307L35.9005 36.7705C35.987 37.03 36.1326 37.2659 36.3261 37.4593Z" fill="#966446"/>
<path d="M29.4905 28.1318L36.3435 34.9848C36.5155 35.1568 36.5155 35.4358 36.3435 35.6078L36.032 35.9193L34.786 34.6733L29.802 29.0663L29.179 28.4433L29.4905 28.1318Z" fill="#B9B9B9"/>
<path d="M34.657 33.9212C34.7396 34.0038 34.786 34.1158 34.786 34.2327V34.6732L29.802 29.0662L34.657 33.9212Z" fill="#966446"/>
<path d="M29.1789 28.4433L29.4904 28.1318L29.8019 28.4433L29.4904 28.7548L29.1789 29.0663L25.7524 25.0168L29.1789 28.4433Z" fill="#A0A0A0"/>
<path d="M29.6165 37.2L29.926 37.4824C31.0553 36.2442 33.0318 34.0773 36.1648 31.2642C36.1648 31.2642 33.5695 32.8664 29.6165 37.2Z" fill="#B9B9B9"/>
<path d="M28.7407 38.4713C28.6295 38.3699 28.6217 38.1977 28.7229 38.0866L29.3864 37.3591C29.4878 37.2479 29.66 37.2401 29.7712 37.3413C29.8823 37.4427 29.8902 37.6149 29.7888 37.7261L29.1253 38.4536C29.024 38.5647 28.8518 38.5727 28.7407 38.4713Z" fill="#F5D33D"/>
<path d="M29.3652 36.9709L29.1854 37.0509C29.0255 37.1304 28.605 37.3684 28.5325 37.7073C28.498 37.8679 28.5467 38.0243 28.6714 38.1724C28.6832 38.1418 28.6995 38.1123 28.7229 38.0866L28.8064 37.9951C28.7499 37.9131 28.72 37.8326 28.7372 37.7517C28.7825 37.5396 29.0655 37.3504 29.2432 37.2567L30.0379 37.9817L30.2355 37.7651L29.3652 36.9709Z" fill="#FFC855"/>
<path d="M34.7276 37.5431L34.4181 37.8254C33.2887 36.5872 31.3122 34.4203 28.1792 31.6072C28.1792 31.6072 30.7747 33.2093 34.7276 37.5431Z" fill="#B9B9B9"/>
<path d="M35.6032 38.8141C35.7143 38.7127 35.7222 38.5405 35.6209 38.4293L34.9574 37.7018C34.8561 37.5907 34.6838 37.5828 34.5727 37.6841C34.4616 37.7855 34.4537 37.9577 34.5549 38.0688L35.2184 38.7963C35.3198 38.9075 35.4921 38.9155 35.6032 38.8141Z" fill="#F5D33D"/>
<path d="M34.9788 37.3137L35.1585 37.3937C35.3184 37.4732 35.7389 37.7112 35.8114 38.0501C35.8459 38.2107 35.7973 38.3671 35.6725 38.5152C35.6608 38.4846 35.6444 38.4551 35.621 38.4293L35.5375 38.3378C35.594 38.2558 35.6239 38.1753 35.6068 38.0945C35.5614 37.8823 35.2784 37.6932 35.1008 37.5993L34.306 38.3243L34.1084 38.1077L34.9788 37.3137Z" fill="#FFC855"/>
<path d="M32.3088 26.0789C32.333 26.0188 32.3472 25.9533 32.3472 25.8844C32.3472 25.5969 32.114 25.3638 31.8265 25.3638C31.539 25.3638 31.3059 25.5969 31.3059 25.8844C31.3059 26.0558 31.3898 26.2065 31.5175 26.3014C31.3294 27.8136 32.8202 27.929 33.3883 28.1404C34.2503 28.4611 35.3315 29.11 35.2635 30.9236C35.1974 32.6866 34.0825 34.3878 34.0825 34.3878L35.0082 33.1296C34.6697 34.561 33.8795 36.3843 32 38.5528C32 38.5528 33.285 37.2958 34.3573 35.6749C33.5684 37.531 32.6942 39.247 32.6942 39.247C32.6942 39.247 34.2415 37.2368 35.4925 33.7588C37.0092 29.542 33.8189 27.0088 32.3088 26.0789Z" fill="#69B469"/>
<path d="M30.9588 32.3049H29.5701V32.9991H30.9588V32.3049Z" fill="#F4E08F"/>
<path d="M29.5701 33.6942C29.9535 33.6942 30.2642 33.3834 30.2642 33C30.2642 32.6167 29.9535 32.3059 29.5701 32.3059C29.1867 32.3059 28.876 32.6167 28.876 33C28.876 33.3834 29.1867 33.6942 29.5701 33.6942Z" fill="#ECD077"/>
<path d="M29.5701 29.1817C29.9535 29.1817 30.2642 28.8709 30.2642 28.4876C30.2642 28.1042 29.9535 27.7935 29.5701 27.7935C29.1867 27.7935 28.876 28.1042 28.876 28.4876C28.876 28.8709 29.1867 29.1817 29.5701 29.1817Z" fill="#ECD077"/>
<path d="M33.7353 29.1817C34.1187 29.1817 34.4295 28.871 34.4295 28.4876C34.4295 28.1042 34.1187 27.7935 33.7353 27.7935H29.5703C29.9537 27.7935 30.2645 28.1042 30.2645 28.4876C30.2645 28.871 29.9537 29.1817 29.5703 29.1817C29.187 29.1817 28.8762 28.871 28.8762 28.4876C28.8762 29.6527 29.8513 31.0617 30.1657 32.3055C30.1657 32.3055 30.2645 32.6162 30.2645 32.9996C30.2645 33.383 29.9537 33.6937 29.5703 33.6937H33.7353C34.1187 33.6937 34.4295 33.3828 34.4295 32.9996C34.4295 31.8345 33.4543 30.4255 33.14 29.1817H33.7353Z" fill="#FCF0A8"/>
<path d="M30.2647 28.4875C30.2647 28.8709 29.9539 29.1817 29.5706 29.1817H33.7356C34.1189 29.1817 34.4297 28.8709 34.4297 28.4875H30.2647Z" fill="#F4E08F"/>
<path d="M30.2647 32.9998C30.2647 33.3831 29.9539 33.6939 29.5706 33.6939H33.7356C34.1189 33.6939 34.4297 33.383 34.4297 32.9998H30.2647Z" fill="#F4E08F"/>
</g>
<defs>
<clipPath id="clip0_3427_26484">
<rect width="64" height="64" rx="10" fill="white"/>
</clipPath>
</defs>
</svg>
