<svg width="64" height="64" viewBox="0 0 64 64" fill="none" xmlns="http://www.w3.org/2000/svg">
<g clip-path="url(#clip0_3427_26860)">
<path d="M64 0H0V21.3334H64V0Z" fill="#4173CD"/>
<path d="M0 63.9999H64V42.6665H0V63.9999Z" fill="#4173CD"/>
<path d="M64 21.3337H0V42.6675H64V21.3337Z" fill="#F5F5F5"/>
<path d="M32.2436 29.2485L32.8463 31.0557L34.7514 31.0705C34.9981 31.0724 35.1003 31.3872 34.9019 31.5337L33.3693 32.6655L33.9439 34.4819C34.0183 34.717 33.7506 34.9116 33.5499 34.7681L32.0001 33.6604L30.4501 34.7682C30.2495 34.9116 29.9817 34.7171 30.0561 34.482L30.6307 32.6656L29.0981 31.5339C28.8997 31.3874 29.002 31.0726 29.2486 31.0706L31.1537 31.0559L31.7564 29.2486C31.8346 29.0145 32.1656 29.0145 32.2436 29.2485Z" fill="#4173CD"/>
<path d="M15.0395 34.0991L15.6422 35.9063L17.5473 35.9211C17.794 35.923 17.8962 36.2377 17.6978 36.3843L16.1652 37.5161L16.7398 39.3325C16.8142 39.5676 16.5465 39.7622 16.3458 39.6187L14.7958 38.5108L13.246 39.6187C13.0453 39.7621 12.7776 39.5676 12.852 39.3325L13.4266 37.5161L11.894 36.3843C11.6956 36.2378 11.7978 35.9231 12.0445 35.9211L13.9496 35.9063L14.5523 34.0991C14.6305 33.8651 14.9615 33.8651 15.0395 34.0991Z" fill="#4173CD"/>
<path d="M15.0395 24.3979L15.6422 26.2052L17.5473 26.2199C17.794 26.2218 17.8962 26.5367 17.6978 26.6832L16.1652 27.8149L16.7398 29.6313C16.8142 29.8664 16.5465 30.061 16.3458 29.9175L14.7958 28.8097L13.246 29.9175C13.0453 30.061 12.7776 29.8664 12.852 29.6313L13.4266 27.8149L11.894 26.6832C11.6956 26.5367 11.7978 26.2219 12.0445 26.2199L13.9496 26.2052L14.5523 24.3979C14.6305 24.1639 14.9615 24.1639 15.0395 24.3979Z" fill="#4173CD"/>
<path d="M49.4476 34.0991L50.0503 35.9063L51.9554 35.9211C52.2021 35.923 52.3043 36.2377 52.1059 36.3843L50.5733 37.5161L51.1479 39.3325C51.2223 39.5676 50.9546 39.7622 50.7539 39.6187L49.2039 38.5108L47.6539 39.6187C47.4533 39.7621 47.1856 39.5676 47.2599 39.3325L47.8346 37.5161L46.3019 36.3843C46.1036 36.2378 46.2058 35.9231 46.4524 35.9211L48.3576 35.9063L48.9603 34.0991C49.0386 33.8651 49.3694 33.8651 49.4476 34.0991Z" fill="#4173CD"/>
<path d="M49.4476 24.3979L50.0503 26.2052L51.9554 26.2199C52.2021 26.2218 52.3043 26.5367 52.1059 26.6832L50.5733 27.8149L51.1479 29.6313C51.2223 29.8664 50.9546 30.061 50.7539 29.9175L49.2039 28.8097L47.6539 29.9175C47.4533 30.061 47.1856 29.8664 47.2599 29.6313L47.8346 27.8149L46.3019 26.6832C46.1036 26.5367 46.2058 26.2219 46.4524 26.2199L48.3576 26.2052L48.9603 24.3979C49.0386 24.1639 49.3694 24.1639 49.4476 24.3979Z" fill="#4173CD"/>
</g>
<defs>
<clipPath id="clip0_3427_26860">
<rect width="64" height="64" rx="10" fill="white"/>
</clipPath>
</defs>
</svg>
