<svg width="64" height="64" viewBox="0 0 64 64" fill="none" xmlns="http://www.w3.org/2000/svg">
<g clip-path="url(#clip0_3427_27315)">
<path d="M50 0H32H14H0V14V50V64H14H50H64V50V14V0H50Z" fill="#334299"/>
<path d="M64 15.1575H0V48.8412H64V15.1575Z" fill="#FF333E"/>
<path d="M54.2874 44.77V42.3822H53.4914V40.7902H52.6954V39.1983H51.8994V37.6063H49.5115V32.8305H49.5112L50.3075 32.0345V29.6465H49.5115V28.0547H48.7155V25.6668H47.9196V24.0748H47.1236V22.4829H46.3276V21.6869H44.7356V22.4829H43.9397V24.0748H43.1437V25.6668H42.3477V28.0547H41.5519V29.6465H36.776V27.2587H35.98V24.8708H35.184V22.4829H34.3881V20.8909H33.5921V19.2989H32.7961V18.503H32.3981V17.707H31.6021V18.503H31.2042V19.2989H30.4082V20.8909H29.6122V22.4829H28.8162V24.8708H28.0202V27.2587H27.2244V29.6465H22.4485V28.0547H21.6525V25.6668H20.8566V24.0748H20.0606V22.4829H19.2646V21.6869H17.6726V22.4829H16.8767V24.0748H16.0807V25.6668H15.2847V28.0547H14.4887V29.6465H13.6929V32.0345L14.4884 32.8305H14.4887V37.6063H12.1009V39.1983H11.3049V40.7902H10.509V42.3822H9.71299V44.77H8.91699V47.1579H55.0832V44.77H54.2874Z" fill="#F5F5F5"/>
</g>
<defs>
<clipPath id="clip0_3427_27315">
<rect width="64" height="64" rx="10" fill="white"/>
</clipPath>
</defs>
</svg>
