<svg width="64" height="64" viewBox="0 0 64 64" fill="none" xmlns="http://www.w3.org/2000/svg">
<g clip-path="url(#clip0_3427_27370)">
<path d="M50 0H14H0V14V50V64H14H50H64V50V14V0H50Z" fill="#FF333E"/>
<path d="M0.010125 13.4941C0.00412499 13.6621 0 13.8306 0 14.0001V50.0001C0 50.1696 0.00412499 50.3381 0.010125 50.5061H63.9899C63.9959 50.3381 64 50.1696 64 50.0001V14.0001C64 13.8306 63.9959 13.6621 63.9899 13.4941H0.010125Z" fill="#334299"/>
<path d="M31.9999 43.5263C38.3656 43.5263 43.5261 38.3659 43.5261 32.0001C43.5261 25.6343 38.3656 20.4739 31.9999 20.4739C25.6341 20.4739 20.4736 25.6343 20.4736 32.0001C20.4736 38.3659 25.6341 43.5263 31.9999 43.5263Z" fill="#F5F5F5"/>
</g>
<defs>
<clipPath id="clip0_3427_27370">
<rect width="64" height="64" rx="10" fill="white"/>
</clipPath>
</defs>
</svg>
