<svg width="64" height="64" viewBox="0 0 64 64" fill="none" xmlns="http://www.w3.org/2000/svg">
<g clip-path="url(#clip0_3427_27548)">
<path d="M0 0V64H21.3334V0H0Z" fill="#73AF00"/>
<path d="M42.6675 0H21.3337V64H42.6675V0Z" fill="#F5F5F5"/>
<path d="M63.9999 0H42.6665V64H63.9999V0Z" fill="#FF333E"/>
<path d="M33.9031 32.9871L32 33.9387V34.8903H32.9516L33.9031 32.9871Z" fill="#FFD250"/>
<path d="M32.0002 37.2693C31.7372 37.2693 31.5244 37.0565 31.5244 36.7935V34.8903C31.5244 34.6273 31.7372 34.4146 32.0002 34.4146C32.2632 34.4146 32.4759 34.6273 32.4759 34.8903V36.7935C32.4759 37.0564 32.2632 37.2693 32.0002 37.2693Z" fill="#00C3A0"/>
<path d="M32.0001 35.366C30.1313 35.366 28.3266 34.6449 26.9182 33.3355C26.7258 33.1567 26.7147 32.8555 26.8936 32.6632C27.0738 32.4713 27.3745 32.461 27.566 32.6385C28.7977 33.7839 30.3725 34.4144 32.0001 34.4144C33.6277 34.4144 35.2025 33.7839 36.4342 32.6385C36.6261 32.4605 36.9267 32.4703 37.1066 32.6632C37.2855 32.8555 37.2743 33.1567 37.082 33.3355C35.6736 34.6449 33.8688 35.366 32.0001 35.366Z" fill="#00C3A0"/>
<path d="M32 37.2692C30.7803 37.2692 29.5988 36.9128 28.583 36.2382L29.1099 35.4456C30.8273 36.5867 33.1728 36.5867 34.8901 35.4456L35.417 36.2382C34.4013 36.9128 33.2198 37.2692 32 37.2692Z" fill="#00AADC"/>
<path d="M31.2467 30.8459L30.1961 32.4716L30.0176 33.0068L32.7535 32.3724L31.2467 30.8459Z" fill="#732D37"/>
<path d="M29.0879 33.5298C27.8302 33.5298 26.3205 32.4713 25.9199 30.1128L26.8585 29.954C27.1912 31.9152 28.3979 32.5797 29.1223 32.5778C29.3444 32.5718 29.5763 32.4951 29.5944 32.3381C29.6158 32.1503 29.6209 32.1057 29.1233 31.9376C28.8529 31.8461 28.5462 31.7425 28.331 31.4962C27.4608 30.5023 28.639 29.4503 29.205 28.9448C29.3049 28.8556 29.3463 28.7798 29.3357 28.7511C29.3045 28.6698 29.1178 28.5467 28.9073 28.5467C28.3028 28.5467 27.8442 28.2052 27.7108 27.656C27.5723 27.0872 27.8339 26.4878 28.332 26.2305L28.7688 27.0761C28.6522 27.1365 28.6057 27.3085 28.6354 27.4311C28.647 27.4803 28.6754 27.5951 28.9072 27.5951C29.4898 27.5951 30.0442 27.939 30.2244 28.412C30.3015 28.6136 30.4177 29.1377 29.8388 29.6548C29.2138 30.2128 28.8398 30.633 29.047 30.8695C29.0939 30.9228 29.2952 30.9912 29.428 31.0358C29.8564 31.1808 30.6538 31.4503 30.5394 32.447C30.4679 33.0737 29.9084 33.5087 29.1483 33.5291C29.1284 33.5293 29.1079 33.5298 29.0879 33.5298Z" fill="#AAD264"/>
<path d="M32.9516 28.2292C32.9516 28.2292 33.9032 26.3261 32 25.3745C32 25.3745 38.6611 24.4229 37.7095 32.9872L37.709 32.9869C37.0845 32.4872 36.1573 31.5742 35.8261 30.8462L32.9515 29.1809V28.2292H32.9516Z" fill="#874150"/>
<path d="M32 30.1323L36.758 32.9871C36.758 32.9871 36.758 32.9871 34.8549 33.9387L32 31.084V30.1323Z" fill="#732D37"/>
<path d="M30.0969 27.2774C30.6224 27.2774 31.0485 27.7034 31.0485 28.2291L31.0476 28.2301C30.4799 28.7977 30.3392 29.6649 30.6982 30.3831L30.9132 30.8132C31.0028 30.9924 31.1208 31.1562 31.2626 31.2979L33.9033 33.9387V32.6236C33.9033 30.9852 33.5218 29.3694 32.7892 27.9041C32.3055 26.9369 31.317 26.3259 30.2358 26.3259H30.0969V27.2774Z" fill="#783C46"/>
<path d="M30.0969 26.3259L29.1453 27.2776V28.2292C29.1453 28.2292 30.2773 27.6552 30.6588 27.4724C30.9254 27.3447 30.8769 27.0424 30.7239 26.8969C30.6048 26.7837 30.0969 26.3259 30.0969 26.3259Z" fill="#FFD250"/>
<path d="M32.0001 39.1725C27.54 39.1725 23.9116 35.5441 23.9116 31.084H24.8632C24.8632 35.0195 28.0646 38.221 32.0002 38.221C35.9359 38.221 39.1372 35.0196 39.1372 31.084H40.0889C40.0886 35.5441 36.4602 39.1725 32.0001 39.1725Z" fill="#AAD264"/>
<path d="M24.9137 34.5535C25.2704 34.5535 25.5596 34.2643 25.5596 33.9076C25.5596 33.5509 25.2704 33.2617 24.9137 33.2617C24.557 33.2617 24.2678 33.5509 24.2678 33.9076C24.2678 34.2643 24.557 34.5535 24.9137 34.5535Z" fill="#F5D33D"/>
<path d="M26.3412 36.8335C26.6979 36.8335 26.9871 36.5443 26.9871 36.1876C26.9871 35.8309 26.6979 35.5417 26.3412 35.5417C25.9845 35.5417 25.6953 35.8309 25.6953 36.1876C25.6953 36.5443 25.9845 36.8335 26.3412 36.8335Z" fill="#F5D33D"/>
<path d="M28.6613 38.5584C29.018 38.5584 29.3071 38.2692 29.3071 37.9125C29.3071 37.5558 29.018 37.2666 28.6613 37.2666C28.3045 37.2666 28.0154 37.5558 28.0154 37.9125C28.0154 38.2692 28.3045 38.5584 28.6613 38.5584Z" fill="#F5D33D"/>
<path d="M39.1537 34.5535C39.5104 34.5535 39.7996 34.2643 39.7996 33.9076C39.7996 33.5509 39.5104 33.2617 39.1537 33.2617C38.797 33.2617 38.5078 33.5509 38.5078 33.9076C38.5078 34.2643 38.797 34.5535 39.1537 34.5535Z" fill="#F5D33D"/>
<path d="M37.7262 36.8335C38.0829 36.8335 38.3721 36.5443 38.3721 36.1876C38.3721 35.8309 38.0829 35.5417 37.7262 35.5417C37.3695 35.5417 37.0803 35.8309 37.0803 36.1876C37.0803 36.5443 37.3695 36.8335 37.7262 36.8335Z" fill="#F5D33D"/>
<path d="M35.4061 38.5584C35.7628 38.5584 36.052 38.2692 36.052 37.9125C36.052 37.5558 35.7628 37.2666 35.4061 37.2666C35.0494 37.2666 34.7603 37.5558 34.7603 37.9125C34.7603 38.2692 35.0494 38.5584 35.4061 38.5584Z" fill="#F5D33D"/>
<path d="M32.4758 37.745H31.5241C30.9986 37.745 30.5725 37.319 30.5725 36.7934C30.5725 36.2679 30.9985 35.8418 31.5241 35.8418H32.4758C33.0013 35.8418 33.4274 36.2678 33.4274 36.7934C33.4274 37.319 33.0014 37.745 32.4758 37.745Z" fill="#FFB478"/>
<path d="M35.8262 30.846C36.1435 31.7777 36.8175 32.6302 37.7091 32.9866L37.7096 32.987C38.6611 24.4227 32 25.3742 32 25.3742C36.758 25.3742 35.8262 30.846 35.8262 30.846Z" fill="#9B4B5A"/>
</g>
<defs>
<clipPath id="clip0_3427_27548">
<rect width="64" height="64" rx="10" fill="white"/>
</clipPath>
</defs>
</svg>
