<svg width="64" height="64" viewBox="0 0 64 64" fill="none" xmlns="http://www.w3.org/2000/svg">
<g clip-path="url(#clip0_3427_27819)">
<path d="M64 0H0V4.57137H64V0Z" fill="#FF333E"/>
<path d="M64 4.57129H0V9.14279H64V4.57129Z" fill="#F5F5F5"/>
<path d="M64 9.14282H0C0 9.14282 0.0357871 12.1097 0.00366211 13.7142H63.9964L64 9.14282Z" fill="#FF333E"/>
<path d="M0.003625 13.7144C0.00175 13.8095 0 13.9046 0 14.0001V18.2859H64V14.0001C64 13.9046 63.9983 13.8095 63.9964 13.7144H0.003625Z" fill="#F5F5F5"/>
<path d="M64 18.2861H0V22.8575H64V18.2861Z" fill="#FF333E"/>
<path d="M64 22.8574H0V27.4288H64V22.8574Z" fill="#F5F5F5"/>
<path d="M64 27.4287H0V32.0001H64V27.4287Z" fill="#FF333E"/>
<path d="M0 33.6842H1.68425L1.68463 36.5715H64V32H0V33.6842Z" fill="#F5F5F5"/>
<path d="M1.68425 33.6843H0V36.5716V41.143H64V36.5716H1.68463L1.68425 33.6843Z" fill="#FF333E"/>
<path d="M64 41.1426H0V45.714H64V41.1426Z" fill="#F5F5F5"/>
<path d="M0 50.0001C0 50.0956 0.00175 50.1907 0.003625 50.2859H63.9964C63.9983 50.1907 64 50.0957 64 50.0001V45.7144H0V50.0001Z" fill="#FF333E"/>
<path d="M0 54.857H64L63.9963 50.2856H0.00366211L0 54.857Z" fill="#F5F5F5"/>
<path d="M0 59.4286H64V54.8572H0V59.4286Z" fill="#FF333E"/>
<path d="M0 64.0001H64V59.4287H0V64.0001Z" fill="#F5F5F5"/>
<path d="M36.5714 0H0V36.5714H36.5714V0Z" fill="#334299"/>
<path d="M7.84317 18.2675C7.84317 12.8322 12.2548 8.42323 17.685 8.42323C19.0513 8.42323 20.3505 8.70298 21.5337 9.20698C21.6873 9.27235 21.8029 9.0586 21.6649 8.96473C19.7072 7.63198 17.3132 6.90198 14.7453 7.03535C9.09967 7.32885 4.48329 11.8761 4.11829 17.5176C3.69379 24.0796 8.88642 29.5156 15.3444 29.5156C17.6782 29.5156 19.8477 28.7965 21.6493 27.5772C21.788 27.4834 21.673 27.2691 21.5188 27.3345C20.3395 27.8345 19.0455 28.112 17.685 28.112C12.2548 28.112 7.84317 23.703 7.84317 18.2675Z" fill="#F5D33D"/>
<path d="M30.3414 18.2674L34.5022 16.6574C34.7079 16.5777 34.6378 16.2706 34.4179 16.2882L29.9723 16.6442L33.0274 13.3785C33.178 13.2175 32.9818 12.9714 32.7913 13.0825L28.9302 15.335L30.2628 11.0737C30.3285 10.8634 30.0449 10.7269 29.9217 10.9096L27.422 14.6125L26.7808 10.1929C26.7492 9.97462 26.4342 9.97437 26.4022 10.1926L25.9925 12.9891L25.8225 14.1725L25.7572 14.6125L23.2575 10.9129C23.134 10.7301 22.8504 10.8669 22.9165 11.0772L24.2542 15.335L20.3933 13.0825C20.2028 12.9714 20.0065 13.2174 20.1572 13.3785L23.2122 16.6442L18.7654 16.2882C18.5454 16.2706 18.4753 16.5779 18.6812 16.6574L22.8457 18.2672L18.681 19.8775C18.4753 19.9571 18.5453 20.2642 18.7653 20.2466L23.2122 19.8906L20.157 23.1646C20.0065 23.3259 20.2033 23.5716 20.3935 23.4602L24.2542 21.1999L22.9165 25.4576C22.8504 25.668 23.1342 25.8049 23.2575 25.6221L25.757 21.9224L25.8224 22.3727L25.9924 23.5457L26.402 26.3496C26.4339 26.568 26.749 26.5677 26.7807 26.3494L27.4219 21.9224L29.9215 25.6252C30.0449 25.808 30.3285 25.6715 30.2627 25.4611L28.93 21.1999L32.7909 23.4602C32.9812 23.5716 33.1779 23.3259 33.0274 23.1646L29.9722 19.8906L34.4179 20.2466C34.6378 20.2642 34.708 19.9571 34.5022 19.8775L30.3414 18.2674Z" fill="#F5D33D"/>
</g>
<defs>
<clipPath id="clip0_3427_27819">
<rect width="64" height="64" rx="10" fill="white"/>
</clipPath>
</defs>
</svg>
