<svg width="64" height="64" viewBox="0 0 64 64" fill="none" xmlns="http://www.w3.org/2000/svg">
<g clip-path="url(#clip0_3427_27880)">
<path d="M64 21.3337H0V42.6675H64V21.3337Z" fill="#F5F5F5"/>
<path d="M32 25.833L26.8625 33.3881H37.1376L32 25.833Z" fill="#AFEBFF"/>
<path d="M26.8626 33.3882L23.5383 38.2236H40.4618L37.1376 33.3882H26.8626Z" fill="#557DE6"/>
<path d="M33.3147 32.9659C33.3352 32.9236 33.3567 32.8822 33.3752 32.8391C33.3567 32.8821 33.3351 32.9237 33.3147 32.9659Z" fill="#73AF00"/>
<path d="M33.1399 33.283C33.1658 33.2416 33.1915 33.2005 33.2156 33.158C33.1916 33.2003 33.1658 33.2417 33.1399 33.283Z" fill="#73AF00"/>
<path d="M33.9253 31.8755C33.8794 31.8755 33.8353 31.883 33.7947 31.8967C33.8353 31.8831 33.8794 31.8755 33.9253 31.8755Z" fill="#73AF00"/>
<path d="M33.5288 34.2101C33.6009 34.2784 33.6722 34.3435 33.7438 34.4054C34.1273 34.0734 34.5276 33.6514 34.8084 33.158C34.7883 33.1934 34.7664 33.2276 34.7452 33.2624C34.4829 32.78 34.3444 32.3627 34.2773 32.1154C34.2389 31.974 34.0928 31.8757 33.9259 31.8755C33.9899 32.4391 34.1279 33.4749 33.5288 34.2101Z" fill="#73AF00"/>
<path d="M35.2774 31.9551C35.2133 32.005 35.1697 32.0746 35.1598 32.1541C35.1698 32.0747 35.2134 32.005 35.2774 31.9551Z" fill="#73AF00"/>
<path d="M34.9075 32.9659C34.928 32.9236 34.9495 32.8822 34.9678 32.8391C34.9495 32.8821 34.9278 32.9237 34.9075 32.9659Z" fill="#73AF00"/>
<path d="M38.1698 34.597C37.5873 34.597 37.0361 34.3175 36.6996 33.842C36.1927 33.1257 35.9628 32.458 35.8698 32.1154C35.8314 31.9739 35.6849 31.8754 35.5178 31.8754L35.5184 31.8755C35.5949 32.5481 35.7776 33.8932 34.6846 34.5969H33.9729C33.9437 34.5736 33.9152 34.5516 33.8854 34.5271C33.8861 34.5276 33.8867 34.5282 33.8874 34.5287C33.6883 34.7887 33.2899 34.8616 32.9809 34.7025C31.6876 34.0361 31.8886 32.583 31.9691 31.8754C31.8022 31.8756 31.6561 31.9739 31.6177 32.1152C31.5506 32.3626 31.4121 32.7799 31.1498 33.2622C31.1284 33.2276 31.1067 33.1932 31.0866 33.1579C31.4026 33.7131 31.8713 34.1816 32.2948 34.5287C32.0957 34.7887 31.6973 34.8616 31.3883 34.7025C30.0949 34.0361 30.2959 32.583 30.3764 31.8754C30.2096 31.8756 30.0634 31.9739 30.0251 32.1152C29.9579 32.3626 29.8194 32.7799 29.5572 33.2622C29.5358 33.2276 29.5141 33.1932 29.4939 33.1579C29.8099 33.7131 30.2787 34.1816 30.7022 34.5287C30.5031 34.7887 30.1047 34.8616 29.7957 34.7025C28.5023 34.0361 28.7033 32.583 28.7838 31.8754L28.7844 31.8752C28.6173 31.8752 28.4708 31.9736 28.4324 32.1152C28.3396 32.4579 28.1096 33.1255 27.6027 33.8419C27.2662 34.3174 26.7151 34.5969 26.1324 34.5969H25.6538V35.2012H38.0443H38.3466V34.5969L38.1698 34.597Z" fill="#73AF00"/>
<path d="M32.5198 32.8391C32.5383 32.8822 32.5598 32.9236 32.5802 32.9659C32.5598 32.9237 32.5382 32.8821 32.5198 32.8391Z" fill="#73AF00"/>
<path d="M32.679 33.158C32.7031 33.2005 32.7288 33.2416 32.7547 33.283C32.729 33.2417 32.7031 33.2003 32.679 33.158Z" fill="#73AF00"/>
<path d="M32.9568 33.5771C32.9537 33.573 32.9508 33.5688 32.9478 33.5647C32.9737 33.5302 32.9987 33.4953 33.0236 33.46C32.9988 33.4952 32.9733 33.5297 32.9475 33.5641C32.9216 33.5297 32.8961 33.4951 32.8713 33.46C32.8992 33.4996 32.9276 33.5385 32.9568 33.5771Z" fill="#73AF00"/>
<path d="M33.0896 33.7441C33.1191 33.7795 33.1482 33.8145 33.1785 33.8488C33.1483 33.8146 33.119 33.7794 33.0896 33.7441Z" fill="#73AF00"/>
<path d="M33.4122 34.0988C33.3841 34.0707 33.3565 34.0411 33.3286 34.012C33.3566 34.0411 33.384 34.0706 33.4122 34.0988Z" fill="#73AF00"/>
<path d="M35.5187 31.8756L35.5181 31.8755C35.4262 31.8755 35.3417 31.9055 35.2776 31.9552C35.2134 32.0051 35.1698 32.0747 35.1599 32.1542L35.1598 32.1547C35.1449 32.2739 35.1196 32.3902 35.0876 32.5044C35.0767 32.5429 35.0614 32.5797 35.0489 32.6177C35.0242 32.6925 34.9989 32.767 34.9681 32.8392C34.9496 32.8824 34.9281 32.9237 34.9077 32.966C34.8763 33.0309 34.8443 33.0955 34.8087 33.1581C34.5278 33.6515 34.1276 34.0735 33.7441 34.4055C33.6724 34.3435 33.6012 34.2785 33.5291 34.2102C34.1282 33.475 33.9902 32.4394 33.9261 31.8757L33.9254 31.8756C33.8796 31.8756 33.8354 31.8831 33.7948 31.8969C33.7542 31.9106 33.7171 31.9306 33.6849 31.9554C33.6208 32.0052 33.5772 32.0749 33.5673 32.1544L33.5672 32.1549C33.5523 32.274 33.5269 32.3904 33.4949 32.5045C33.4842 32.543 33.4688 32.5799 33.4563 32.6179C33.4316 32.6926 33.4063 32.7671 33.3754 32.8394C33.3569 32.8825 33.3354 32.9239 33.3149 32.9661C33.2836 33.031 33.2516 33.0956 33.2159 33.1582C33.1918 33.2007 33.1661 33.2419 33.1402 33.2832C33.1027 33.3431 33.0644 33.4025 33.0238 33.4601C32.9989 33.4955 32.9739 33.5304 32.9481 33.5649C32.9221 33.5304 32.8966 33.4956 32.8716 33.4601C32.8309 33.4025 32.7927 33.3431 32.7552 33.2832C32.7293 33.2419 32.7036 33.2007 32.6794 33.1582C32.6437 33.0956 32.6118 33.031 32.5804 32.9661C32.5599 32.9239 32.5384 32.8825 32.5201 32.8394C32.4891 32.7671 32.4639 32.6925 32.4392 32.6179C32.4267 32.58 32.4113 32.543 32.4006 32.5045C32.3686 32.3904 32.3433 32.274 32.3283 32.1549L32.3282 32.1544C32.3183 32.0749 32.2747 32.0052 32.2106 31.9554C32.1464 31.9056 32.0619 31.8756 31.9701 31.8756L31.9694 31.8757C31.8889 32.5834 31.6881 34.0365 32.9813 34.7029C33.1994 34.8152 33.4611 34.811 33.6663 34.7075C33.7974 34.6414 33.9381 34.5972 34.0848 34.5972H34.6849C35.7778 33.8934 35.5952 32.5484 35.5187 31.8756Z" fill="#F5D33D"/>
<path d="M30.927 32.8394C30.9455 32.8825 30.967 32.9239 30.9875 32.9661C30.967 32.924 30.9454 32.8824 30.927 32.8394Z" fill="#73AF00"/>
<path d="M30.377 31.8755C30.4228 31.8755 30.467 31.883 30.5076 31.8967C30.467 31.8831 30.4228 31.8755 30.377 31.8755Z" fill="#73AF00"/>
<path d="M31.3883 34.7027C31.6973 34.8619 32.0957 34.789 32.2948 34.529C31.8713 34.1819 31.4026 33.7134 31.0866 33.1581C31.0509 33.0955 31.0189 33.0309 30.9876 32.966C30.9671 32.9237 30.9456 32.8824 30.9271 32.8392C30.8961 32.767 30.8709 32.6924 30.8462 32.6177C30.8337 32.5799 30.8183 32.5429 30.8076 32.5044C30.7756 32.3902 30.7503 32.2739 30.7353 32.1547L30.7352 32.1542C30.7253 32.0747 30.6817 32.0051 30.6176 31.9552C30.5856 31.9304 30.5483 31.9104 30.5077 31.8967C30.4671 31.8831 30.4229 31.8755 30.3771 31.8755L30.3764 31.8756C30.2959 32.5832 30.0949 34.0364 31.3883 34.7027Z" fill="#F5D33D"/>
<path d="M29.2146 32.5042C29.2255 32.5427 29.2407 32.5795 29.2532 32.6175C29.2406 32.5795 29.2253 32.5427 29.2146 32.5042Z" fill="#73AF00"/>
<path d="M29.7955 34.7027C30.1045 34.8619 30.5029 34.789 30.702 34.529C30.2785 34.1819 29.8098 33.7134 29.4938 33.1581C29.458 33.0955 29.4262 33.0309 29.3948 32.966C29.3743 32.9237 29.3528 32.8824 29.3343 32.8392C29.3033 32.767 29.2782 32.6924 29.2534 32.6177C29.2408 32.5799 29.2255 32.5429 29.2148 32.5044C29.1828 32.3902 29.1575 32.2739 29.1425 32.1547L29.1424 32.1542C29.1325 32.0747 29.0889 32.0051 29.0248 31.9552C28.9607 31.9055 28.8762 31.8755 28.7843 31.8755L28.7837 31.8756C28.7032 32.5832 28.5022 34.0364 29.7955 34.7027Z" fill="#F5D33D"/>
<path d="M29.4538 29.4723C29.4287 29.5687 29.4035 29.665 29.3784 29.7615C30.2034 29.5142 31.1137 29.3655 32.1018 29.3655C33.0897 29.366 34.0002 29.5137 34.8252 29.7615C34.8 29.665 34.7749 29.5687 34.7498 29.4723C33.9292 29.2605 33.0459 29.1388 32.1018 29.1392C31.1578 29.139 30.2745 29.2604 29.4538 29.4723Z" fill="#334299"/>
<path d="M29.4865 29.3468C29.4614 29.4432 29.4363 29.5396 29.4111 29.6361C30.227 29.3881 31.1263 29.2393 32.1018 29.239C33.0773 29.2393 33.9766 29.3881 34.7924 29.6361C34.7673 29.5396 34.7421 29.4432 34.717 29.3468C33.9055 29.1336 33.0336 29.0128 32.1018 29.0125C31.1698 29.0127 30.298 29.134 29.4865 29.3468Z" fill="#5AA0E6"/>
<path d="M29.517 29.2305C29.4919 29.3269 29.4668 29.4233 29.4417 29.5198C30.2494 29.2709 31.1382 29.121 32.1019 29.1214C33.0659 29.1214 33.9545 29.2709 34.7621 29.5198C34.737 29.4234 34.7119 29.327 34.6868 29.2305C33.8841 29.0174 33.0227 28.895 32.1019 28.895C31.1813 28.8948 30.32 29.0174 29.517 29.2305Z" fill="#9BC800"/>
<path d="M29.5517 29.0976C29.5266 29.1941 29.5014 29.2905 29.4763 29.3869C30.2746 29.1372 31.1514 28.9871 32.1019 28.9871C33.0526 28.9875 33.9293 29.1371 34.7276 29.3869C34.7024 29.2905 34.6773 29.1941 34.6522 29.0976C33.8589 28.8835 33.0098 28.761 32.1019 28.7607C31.1942 28.761 30.3448 28.8835 29.5517 29.0976Z" fill="#FFE14E"/>
<path d="M29.5856 28.9672C29.5605 29.0635 29.5354 29.1599 29.5103 29.2563C30.2994 29.0059 31.164 28.8554 32.1019 28.8553C33.0396 28.8559 33.9045 29.0055 34.6935 29.2563C34.6684 29.1599 34.6433 29.0635 34.6181 28.9672C33.8346 28.7527 32.997 28.6292 32.1019 28.6289C31.2069 28.6293 30.3693 28.7522 29.5856 28.9672Z" fill="#FFB14E"/>
<path d="M29.6001 28.9115C29.5825 28.979 29.565 29.0465 29.5474 29.114C30.3261 28.8634 31.1785 28.7114 32.102 28.7115C33.0256 28.7111 33.8777 28.8629 34.6565 29.114C34.6389 29.0465 34.6214 28.979 34.6037 28.9115C33.8245 28.6966 32.9916 28.573 32.102 28.5728C31.2122 28.5723 30.3795 28.6963 29.6001 28.9115Z" fill="#FF333E"/>
<path d="M40.462 38.5169H23.5382C23.4267 38.5169 23.3242 38.4555 23.2717 38.3575C23.2192 38.2589 23.2251 38.1397 23.2867 38.047L31.7486 25.3542C31.8607 25.1866 32.1394 25.1866 32.2515 25.3542L40.7132 38.047C40.7749 38.1396 40.7809 38.2589 40.7282 38.3575C40.6759 38.4555 40.5735 38.5169 40.462 38.5169ZM24.1029 37.9125H39.8974L32.0001 26.0667L24.1029 37.9125Z" fill="#F5D33D"/>
<path d="M32.5779 30.6516C32.5779 30.3858 32.3084 29.9814 31.8772 29.9814C31.6251 29.9814 31.4207 30.1354 31.4207 30.3256C31.4207 30.4204 31.4717 30.5062 31.5539 30.5684C31.5536 30.5719 31.5533 30.5756 31.5529 30.5789C31.4499 30.6421 31.3828 30.7371 31.3828 30.8449C31.3828 31.0263 31.5696 31.1732 31.8056 31.1864L31.9998 31.5749L32.1752 31.2243C32.4056 31.1653 32.5779 30.9318 32.5779 30.6516Z" fill="#FF333E"/>
<path d="M0 0V21.3334H64V0H0Z" fill="#334299"/>
<path d="M0 63.9999H64V42.6665H0V63.9999Z" fill="#334299"/>
</g>
<defs>
<clipPath id="clip0_3427_27880">
<rect width="64" height="64" rx="10" fill="white"/>
</clipPath>
</defs>
</svg>
