<svg width="64" height="64" viewBox="0 0 64 64" fill="none" xmlns="http://www.w3.org/2000/svg">
<g clip-path="url(#clip0_3427_28046)">
<path d="M0 0V64H64V0H0Z" fill="#F5F5F5"/>
<path d="M64 0H32V32H64V0Z" fill="#FF333E"/>
<path d="M0 32C0 32 0 56.268 0 64H32V32H0Z" fill="#4173CD"/>
<path d="M16.425 11.2936L17.477 14.4478L20.802 14.4736C21.2325 14.4769 21.411 15.0263 21.0646 15.2819L18.3899 17.2572L19.3927 20.4273C19.5226 20.8377 19.0552 21.1773 18.7051 20.9269L16 18.9936L13.2949 20.9271C12.9446 21.1774 12.4774 20.8378 12.6072 20.4274L13.6101 17.2573L10.9354 15.2821C10.5891 15.0263 10.7676 14.4769 11.198 14.4737L14.5229 14.4479L15.5749 11.2937C15.7111 10.8852 16.2889 10.8852 16.425 11.2936Z" fill="#4173CD"/>
<path d="M48.425 43.2936L49.477 46.4478L52.802 46.4736C53.2325 46.4769 53.411 47.0263 53.0646 47.2819L50.3899 49.2572L51.3927 52.4273C51.5226 52.8378 51.0552 53.1773 50.7051 52.9269L48 50.9936L45.2949 52.9271C44.9446 53.1774 44.4774 52.8378 44.6072 52.4274L45.6101 49.2573L42.9354 47.2821C42.5891 47.0263 42.7676 46.4769 43.198 46.4737L46.523 46.4479L47.575 43.2937C47.7112 42.8852 48.2887 42.8852 48.425 43.2936Z" fill="#FF333E"/>
</g>
<defs>
<clipPath id="clip0_3427_28046">
<rect width="64" height="64" rx="10" fill="white"/>
</clipPath>
</defs>
</svg>
