<svg width="64" height="64" viewBox="0 0 64 64" fill="none" xmlns="http://www.w3.org/2000/svg">
<g clip-path="url(#clip0_3427_28202)">
<path d="M0 0.0625V21.3541H64V0.0625H0Z" fill="#FF333E"/>
<path d="M0 63.9376H64V42.646H0V63.9376Z" fill="#334299"/>
<path d="M64 21.3538H0V42.645H64V21.3538Z" fill="#F5F5F5"/>
<path d="M32.0001 23.5789C27.3494 23.5789 23.5791 27.349 23.5791 31.9999C23.5791 36.6507 27.3494 40.4209 32.0001 40.4209C36.6509 40.4209 40.4211 36.6507 40.4211 31.9999C40.4211 27.3491 36.6509 23.5789 32.0001 23.5789ZM32.0001 38.3509C28.4926 38.3509 25.6492 35.5075 25.6492 32C25.6492 28.4925 28.4926 25.6491 32.0001 25.6491C35.5076 25.6491 38.351 28.4925 38.351 32C38.351 35.5075 35.5076 38.3509 32.0001 38.3509Z" fill="#FF333E"/>
<path d="M32.0001 34.9211C33.6133 34.9211 34.9211 33.6133 34.9211 32.0001C34.9211 30.3869 33.6133 29.0791 32.0001 29.0791C30.3869 29.0791 29.0791 30.3869 29.0791 32.0001C29.0791 33.6133 30.3869 34.9211 32.0001 34.9211Z" fill="#334299"/>
<path d="M32.1903 29.7875L32.6611 31.1992L34.1493 31.2107C34.3419 31.2122 34.4218 31.4581 34.2668 31.5726L33.0696 32.4566L33.5185 33.8755C33.5766 34.0592 33.3675 34.2111 33.2108 34.0991L32 33.2336L30.7894 34.099C30.6326 34.211 30.4235 34.0591 30.4816 33.8753L30.9305 32.4565L29.7334 31.5725C29.5784 31.458 29.6583 31.2121 29.851 31.2106L31.3391 31.1991L31.81 29.7873C31.8708 29.6047 32.1293 29.6047 32.1903 29.7875Z" fill="#F5D33D"/>
<path d="M37.5252 32.068C37.5252 32.068 37.6921 31.296 36.871 32.2223C36.871 32.2223 36.8829 31.9586 36.8599 31.7411C37.0404 31.5455 37.2645 31.1179 37.212 30.2049C37.212 30.2049 37.0832 29.4256 36.6604 30.589C36.6604 30.589 36.545 30.2459 36.4222 30.0558C36.5242 29.8445 36.6027 29.4595 36.3585 28.7301C36.3585 28.7301 36.0729 28.1064 35.9839 29.178C35.9839 29.178 35.7494 28.8273 35.597 28.7411C35.6265 28.5683 35.6032 28.2715 35.2584 27.7908C35.2584 27.7908 34.9141 27.4054 35.0881 28.1964C35.0881 28.1964 34.7731 27.9411 34.6724 27.9714C34.6201 27.8204 34.4687 27.5649 33.9609 27.2288C33.9609 27.2288 33.5206 26.9876 34.0257 27.6166C34.0257 27.6166 33.5794 27.4396 33.5846 27.541C33.5899 27.6424 33.8057 27.8296 33.983 27.9133C33.983 27.9133 33.3284 27.9813 33.5971 28.127C33.5971 28.127 34.2614 28.356 34.6604 28.1356C34.6924 28.2519 34.7574 28.3821 34.854 28.4758C34.854 28.4758 34.0749 28.3245 34.2857 28.5584C34.2857 28.5584 34.8701 28.9879 35.4476 28.922C35.4449 29.0811 35.493 29.2866 35.5776 29.4405C35.5776 29.4405 34.6486 28.9438 34.8246 29.323C34.8246 29.323 35.3802 30.066 36.1194 30.2275C36.089 30.3928 36.0897 30.5926 36.1296 30.7578C36.1296 30.7578 35.2477 29.9249 35.3286 30.3994C35.3286 30.3994 35.6972 31.3765 36.4445 31.7918C36.3836 31.9158 36.3336 32.0546 36.3154 32.1839C36.3154 32.1839 35.8016 31.0848 35.7022 31.556C35.7022 31.556 35.6852 32.6538 36.2714 33.3103C36.1465 33.414 36.0242 33.5594 35.9492 33.7018C35.9492 33.7018 35.8367 32.4941 35.5841 32.9038C35.5841 32.9038 35.235 33.8188 35.4712 34.6073C35.3151 34.6533 35.1447 34.7386 35.0189 34.8408C35.0189 34.8408 35.3915 33.6864 34.9977 33.9633C34.9977 33.9633 34.2966 34.7215 34.2432 35.5749C34.0574 35.5711 33.8057 35.638 33.6235 35.7469C33.6235 35.7469 34.1567 34.6575 33.7275 34.8756C33.7275 34.8756 32.9627 35.5001 32.7654 36.311C32.5846 36.4141 32.2774 36.5895 31.9705 36.7636C31.7921 36.6601 31.6185 36.5591 31.4701 36.4728L31.4751 36.4648L29.7367 35.0076L29.7712 35.4843L28.8984 33.9233L28.7906 34.4545L28.5047 32.7288L28.2512 32.9834L28.3494 31.3734L28.019 31.5515L28.6191 30.354L28.3371 30.4336L29.0787 29.7226L28.6869 29.756L29.6244 29.3303L29.2816 29.2776L30.1969 28.8143L29.8026 28.795L30.9891 28.3846L30.7719 28.1946L31.7989 27.8916L30.5682 27.7979L30.9189 27.3665L29.9799 27.847L30.1146 27.1975L29.2934 28.0433L29.4362 27.451L28.6675 28.2159L28.7172 27.6386L27.9571 28.9258L27.8591 28.3498L27.2275 29.7949L27.0536 29.1653L26.7716 30.9574L26.5364 30.6908L26.8456 32.4195L26.4534 32.1254L27.1726 33.678C27.1726 33.678 26.6496 33.4493 26.5842 33.4493C26.5189 33.4493 27.8346 34.7854 27.8346 34.7854L27.1481 34.7119L28.4745 35.6445L27.9816 35.7663L29.0849 36.1951L28.8151 36.4036L31.0992 36.5669C31.0992 36.5669 31.3195 36.7503 31.619 36.9626C31.4609 37.0518 31.3219 37.1295 31.2356 37.1766C31.1487 37.224 31.047 37.2286 30.9556 37.1906C30.7389 37.0998 30.425 36.9715 30.2737 36.9109C30.2737 36.9109 30.2884 37.5601 30.9644 37.5764C31.2421 37.5828 31.6206 37.4061 31.9726 37.1969C32.333 37.4216 32.7306 37.6199 33.018 37.6131C33.6792 37.5969 33.6937 36.9476 33.6937 36.9476C33.5457 37.0083 33.2386 37.1365 33.0266 37.2274C32.9372 37.2654 32.8376 37.2608 32.7527 37.2134C32.659 37.161 32.505 37.0729 32.3282 36.9709C32.5086 36.8485 32.66 36.7376 32.7664 36.6556C32.9326 36.7864 33.4089 37.0161 34.4732 36.6165C34.4732 36.6165 35.1791 36.262 33.9426 36.2039C33.9426 36.2039 34.1721 36.0355 34.327 35.8755C34.5297 35.9799 35.0311 36.1035 35.9839 35.5804C35.9839 35.5804 36.6321 35.1289 35.4 35.2476C35.4 35.2476 35.5645 35.0875 35.6939 34.9244C35.9065 34.9483 36.4314 34.8914 37.1274 34.0013C37.1274 34.0013 37.5451 33.3309 36.4595 33.9254C36.4595 33.9254 36.5999 33.5908 36.633 33.3668C36.8726 33.2516 37.2384 32.9364 37.5252 32.068Z" fill="#64C86E"/>
</g>
<defs>
<clipPath id="clip0_3427_28202">
<rect width="64" height="64" rx="10" fill="white"/>
</clipPath>
</defs>
</svg>
