<svg width="64" height="64" viewBox="0 0 64 64" fill="none" xmlns="http://www.w3.org/2000/svg">
<g clip-path="url(#clip0_3427_28301)">
<path d="M64 0H0V32H64V0Z" fill="#FF333E"/>
<path d="M0 64H64V32H0V64Z" fill="#F5F5F5"/>
<path d="M10.7805 15.1776C10.7805 9.74415 14.7674 5.2404 19.9733 4.40727C20.2559 4.36202 20.2687 3.97315 19.9898 3.9089C18.7009 3.6124 17.332 3.52827 15.9105 3.72177C10.2955 4.48652 5.95541 9.34552 5.87616 15.0118C5.78566 21.4815 11.0017 26.7499 17.4409 26.7499C18.3174 26.7499 19.1687 26.6474 19.9875 26.4591C20.266 26.3951 20.2522 26.0053 19.9699 25.9601C14.7658 25.1274 10.7805 20.632 10.7805 15.1776Z" fill="#F5F5F5"/>
<path d="M20.0588 18.085L19.5697 19.5517L18.0237 19.5637C17.8236 19.5652 17.7406 19.8207 17.9016 19.9395L19.1452 20.8579L18.6788 22.3319C18.6185 22.5228 18.8357 22.6807 18.9986 22.5642L20.2563 21.6652L21.5141 22.5642C21.677 22.6805 21.8942 22.5227 21.8338 22.3319L21.3675 20.8579L22.6111 19.9395C22.7721 19.8207 22.6891 19.5652 22.489 19.5637L20.943 19.5517L20.4538 18.085C20.3908 17.8952 20.1222 17.8952 20.0588 18.085Z" fill="#F5F5F5"/>
<path d="M27.7007 18.085L27.2116 19.5517L25.6656 19.5637C25.4654 19.5652 25.3824 19.8207 25.5434 19.9395L26.7871 20.8579L26.3207 22.3319C26.2603 22.5228 26.4776 22.6807 26.6404 22.5642L27.8982 21.6652L29.1559 22.5642C29.3188 22.6805 29.5361 22.5227 29.4757 22.3319L29.0093 20.8579L30.2529 19.9395C30.4139 19.8207 30.3309 19.5652 30.1308 19.5637L28.5848 19.5517L28.0957 18.085C28.0326 17.8952 27.7639 17.8952 27.7007 18.085Z" fill="#F5F5F5"/>
<path d="M23.9141 6.29208L23.4249 7.75858L21.8789 7.77058C21.6788 7.7722 21.5958 8.02758 21.7568 8.14645L23.0004 9.06483L22.5341 10.5388C22.4737 10.7297 22.6909 10.8876 22.8538 10.7711L24.1116 9.87208L25.3693 10.7711C25.5322 10.8875 25.7494 10.7296 25.6891 10.5388L25.2227 9.06483L26.4663 8.14645C26.6273 8.02758 26.5443 7.77208 26.3442 7.77058L24.7982 7.75858L24.3091 6.29196C24.2461 6.10221 23.9774 6.10221 23.9141 6.29208Z" fill="#F5F5F5"/>
<path d="M17.8212 10.8101L17.332 12.2768L15.7862 12.2886C15.586 12.2901 15.503 12.5456 15.664 12.6645L16.9077 13.5829L16.4413 15.0569C16.3809 15.2478 16.5982 15.4056 16.761 15.2891L18.0188 14.3901L19.2765 15.2891C19.4394 15.4055 19.6567 15.2476 19.5963 15.0569L19.1299 13.5829L20.3735 12.6645C20.5345 12.5456 20.4515 12.2901 20.2514 12.2886L18.7054 12.2766L18.2163 10.81C18.1532 10.6203 17.8845 10.6203 17.8212 10.8101Z" fill="#F5F5F5"/>
<path d="M29.9553 10.8101L29.4662 12.2768L27.9202 12.2888C27.7201 12.2903 27.6371 12.5458 27.7981 12.6646L29.0417 13.583L28.5753 15.057C28.515 15.2479 28.7322 15.4058 28.8951 15.2893L30.1528 14.3903L31.4106 15.2893C31.5735 15.4056 31.7907 15.2478 31.7303 15.057L31.264 13.583L32.5076 12.6646C32.6686 12.5458 32.5856 12.2903 32.3855 12.2888L30.8395 12.2768L30.3503 10.8101C30.2872 10.6203 30.0187 10.6203 29.9553 10.8101Z" fill="#F5F5F5"/>
</g>
<defs>
<clipPath id="clip0_3427_28301">
<rect width="64" height="64" rx="10" fill="white"/>
</clipPath>
</defs>
</svg>
