<svg width="64" height="64" viewBox="0 0 64 64" fill="none" xmlns="http://www.w3.org/2000/svg">
<g clip-path="url(#clip0_3427_28519)">
<path d="M0 0V21.3334H64V0H0Z" fill="#334299"/>
<path d="M0 63.9999H64V42.6665H0V63.9999Z" fill="#334299"/>
<path d="M64 21.3337H0V42.6675H64V21.3337Z" fill="#F5F5F5"/>
<path d="M31.9597 39.1664C27.8968 39.1664 24.5913 35.8609 24.5913 31.798C24.5913 30.0624 25.2064 28.377 26.3237 27.0518L26.6457 27.3231C25.5924 28.5723 25.0124 30.1615 25.0124 31.798C25.0124 35.6286 28.1291 38.7454 31.9598 38.7454L31.9597 39.1664Z" fill="#50AF69"/>
<path d="M29.2644 36.9907C29.1724 37.1477 29.127 37.3632 29.1069 37.5822C29.0236 37.5223 28.9355 37.4667 28.8396 37.42C28.8396 37.42 28.6947 37.9301 28.8081 38.2975C28.8081 38.2975 28.4241 38.3451 28.0716 38.6987C28.0716 38.6987 28.1931 38.7847 28.4017 38.8742C28.0516 39.1475 27.9436 39.4175 27.9436 39.4175C30.0099 40.4506 31.0001 39.0095 31.0431 38.9447C30.537 37.5003 29.2644 36.9907 29.2644 36.9907Z" fill="#50AF69"/>
<path d="M31.0432 38.945C31.0445 38.9486 31.0461 38.9518 31.0473 38.9555V38.939C31.0473 38.939 31.0442 38.9435 31.0432 38.945Z" fill="#50AF69"/>
<path d="M27.3562 35.6135C27.2212 35.7123 27.1042 35.8774 27.0072 36.0545C26.959 35.9737 26.9051 35.8945 26.8412 35.82C26.8412 35.82 26.5326 36.1971 26.4938 36.5483C26.4938 36.5483 26.1527 36.448 25.7262 36.6173C25.7262 36.6173 25.7972 36.7342 25.9403 36.8859C25.5453 36.9883 25.3555 37.1764 25.3555 37.1764C26.7195 38.8029 28.0813 37.95 28.1412 37.9113C28.2428 36.5085 27.3562 35.6135 27.3562 35.6135Z" fill="#50AF69"/>
<path d="M28.1412 37.9113C28.141 37.9148 28.1411 37.9181 28.1409 37.9217L28.1469 37.9077C28.1469 37.9077 28.1426 37.9105 28.1412 37.9113Z" fill="#50AF69"/>
<path d="M26.1723 33.8132C26.0248 33.8442 25.8676 33.9366 25.7222 34.0461C25.7126 33.9617 25.6976 33.8769 25.6727 33.792C25.6727 33.792 25.2795 33.9874 25.1175 34.2614C25.1175 34.2614 24.8743 34.0526 24.4613 34.0336C24.4613 34.0336 24.4763 34.156 24.5377 34.3336C24.1753 34.2712 23.9497 34.3555 23.9497 34.3555C24.4675 36.1969 25.902 36.001 25.9656 35.9914C26.5688 34.8769 26.1723 33.8132 26.1723 33.8132Z" fill="#50AF69"/>
<path d="M25.9658 35.9914C25.9643 35.9941 25.9632 35.9969 25.9617 35.9997L25.9718 35.9905C25.9718 35.9905 25.9673 35.9912 25.9658 35.9914Z" fill="#50AF69"/>
<path d="M25.7037 31.7611C25.5639 31.7702 25.4011 31.8312 25.2451 31.9087C25.2559 31.8344 25.2617 31.7589 25.2589 31.6824C25.2589 31.6824 24.8601 31.8044 24.6515 32.0225C24.6515 32.0225 24.4806 31.812 24.1132 31.7455C24.1132 31.7455 24.0986 31.8535 24.1131 32.015C23.8012 31.9171 23.5789 31.9629 23.5789 31.9629C23.6224 33.6231 24.9585 33.6266 25.018 33.626C25.8166 32.732 25.7037 31.7611 25.7037 31.7611Z" fill="#50AF69"/>
<path d="M25.0181 33.626C25.0161 33.6282 25.0145 33.6305 25.0125 33.6327L25.0237 33.626C25.0237 33.626 25.0195 33.626 25.0181 33.626Z" fill="#50AF69"/>
<path d="M25.859 30.0618C25.7394 30.0333 25.587 30.0423 25.4361 30.0671C25.4644 30.0075 25.4889 29.9457 25.5062 29.8807C25.5062 29.8807 25.1402 29.8798 24.9087 30.0088C24.9087 30.0088 24.8199 29.7881 24.5289 29.6372C24.5289 29.6372 24.4887 29.724 24.459 29.8633C24.2227 29.7005 24.0244 29.6813 24.0244 29.6813C23.6314 31.0852 24.7512 31.4338 24.8012 31.4487C25.7026 30.9053 25.859 30.0618 25.859 30.0618Z" fill="#50AF69"/>
<path d="M24.8014 31.4487C24.7992 31.4501 24.7973 31.4516 24.7949 31.453L24.806 31.4502C24.806 31.4502 24.8025 31.4491 24.8014 31.4487Z" fill="#50AF69"/>
<path d="M24.9728 27.9953C24.9728 27.9953 24.5912 28.9953 25.1833 29.5743C25.1833 29.5743 25.9553 29.3463 26.3368 28.5436L26.0123 28.4822L25.8457 27.9822L25.2931 28.2278L24.9728 27.9953Z" fill="#50AF69"/>
<path d="M26.0477 26.3879C26.0477 26.3879 25.4496 27.2756 25.8952 27.9736C25.8952 27.9736 26.6987 27.9263 27.2522 27.2309L26.95 27.0976L26.9009 26.5728L26.307 26.6869L26.0477 26.3879Z" fill="#50AF69"/>
<path d="M32.0403 39.1664V38.7454C35.871 38.7454 38.9877 35.6286 38.9877 31.798C38.9877 30.1615 38.4077 28.5723 37.3544 27.3231L37.6764 27.0518C38.7937 28.377 39.4087 30.0624 39.4087 31.798C39.4088 35.8609 36.1033 39.1664 32.0403 39.1664Z" fill="#50AF69"/>
<path d="M34.7355 36.9907C34.8275 37.1477 34.8729 37.3632 34.893 37.5822C34.9763 37.5223 35.0643 37.4667 35.1603 37.42C35.1603 37.42 35.305 37.9301 35.1918 38.2975C35.1918 38.2975 35.5758 38.3451 35.9283 38.6987C35.9283 38.6987 35.8068 38.7847 35.5982 38.8742C35.9483 39.1475 36.0563 39.4175 36.0563 39.4175C33.99 40.4506 32.9998 39.0095 32.9568 38.9447C33.4629 37.5003 34.7355 36.9907 34.7355 36.9907Z" fill="#50AF69"/>
<path d="M32.9568 38.945C32.9555 38.9486 32.9539 38.9518 32.9526 38.9555V38.939C32.9526 38.939 32.9558 38.9435 32.9568 38.945Z" fill="#50AF69"/>
<path d="M36.6437 35.6135C36.7787 35.7123 36.8957 35.8774 36.9927 36.0545C37.0409 35.9737 37.0948 35.8945 37.1587 35.82C37.1587 35.82 37.4673 36.1971 37.5061 36.5483C37.5061 36.5483 37.8472 36.448 38.2737 36.6173C38.2737 36.6173 38.2027 36.7342 38.0596 36.8859C38.4546 36.9883 38.6444 37.1764 38.6444 37.1764C37.2804 38.8029 35.9186 37.95 35.8587 37.9113C35.7572 36.5085 36.6437 35.6135 36.6437 35.6135Z" fill="#50AF69"/>
<path d="M35.8587 37.9113C35.8589 37.9148 35.8588 37.9181 35.859 37.9217L35.853 37.9077C35.853 37.9077 35.8573 37.9105 35.8587 37.9113Z" fill="#50AF69"/>
<path d="M37.8277 33.8132C37.9752 33.8442 38.1324 33.9366 38.2778 34.0461C38.2874 33.9617 38.3024 33.8769 38.3273 33.792C38.3273 33.792 38.7205 33.9874 38.8825 34.2614C38.8825 34.2614 39.1255 34.0526 39.5387 34.0336C39.5387 34.0336 39.5237 34.156 39.4623 34.3336C39.8247 34.2712 40.0503 34.3555 40.0503 34.3555C39.5325 36.1969 38.098 36.001 38.0344 35.9914C37.431 34.8769 37.8277 33.8132 37.8277 33.8132Z" fill="#50AF69"/>
<path d="M38.0343 35.9914C38.0358 35.9941 38.0369 35.9969 38.0384 35.9997L38.0283 35.9905C38.0283 35.9905 38.0328 35.9912 38.0343 35.9914Z" fill="#50AF69"/>
<path d="M38.2963 31.7611C38.4361 31.7702 38.5989 31.8312 38.7549 31.9087C38.7441 31.8344 38.7383 31.7589 38.7411 31.6824C38.7411 31.6824 39.1399 31.8044 39.3485 32.0225C39.3485 32.0225 39.5194 31.812 39.8868 31.7455C39.8868 31.7455 39.9014 31.8535 39.8869 32.015C40.1988 31.9171 40.4211 31.9629 40.4211 31.9629C40.3776 33.6231 39.0415 33.6266 38.982 33.626C38.1834 32.732 38.2963 31.7611 38.2963 31.7611Z" fill="#50AF69"/>
<path d="M38.9819 33.626C38.9839 33.6282 38.9856 33.6305 38.9876 33.6327L38.9763 33.626C38.9763 33.626 38.9806 33.626 38.9819 33.626Z" fill="#50AF69"/>
<path d="M38.1409 30.0618C38.2605 30.0333 38.4129 30.0423 38.5637 30.0671C38.5355 30.0075 38.511 29.9457 38.4936 29.8807C38.4936 29.8807 38.8596 29.8798 39.0911 30.0088C39.0911 30.0088 39.18 29.7881 39.471 29.6372C39.471 29.6372 39.5111 29.724 39.5409 29.8633C39.7771 29.7005 39.9755 29.6813 39.9755 29.6813C40.3685 31.0852 39.2486 31.4338 39.1986 31.4487C38.2972 30.9053 38.1409 30.0618 38.1409 30.0618Z" fill="#50AF69"/>
<path d="M39.1987 31.4487C39.201 31.4501 39.203 31.4516 39.2052 31.453L39.1941 31.4502C39.1941 31.4502 39.1975 31.4491 39.1987 31.4487Z" fill="#50AF69"/>
<path d="M39.0273 27.9953C39.0273 27.9953 39.409 28.9953 38.8168 29.5743C38.8168 29.5743 38.0448 29.3463 37.6633 28.5436L37.9878 28.4822L38.1545 27.9822L38.7071 28.2278L39.0273 27.9953Z" fill="#50AF69"/>
<path d="M37.9522 26.3879C37.9522 26.3879 38.5503 27.2756 38.1048 27.9736C38.1048 27.9736 37.3013 27.9263 36.7478 27.2309L37.0501 27.0976L37.0992 26.5728L37.6931 26.6869L37.9522 26.3879Z" fill="#50AF69"/>
<path d="M32.0001 34.7368L31.3492 35.7132C31.2381 35.8799 31.2599 36.1021 31.4017 36.2437L32.0001 36.8421L32.5984 36.2437C32.7402 36.1019 32.7622 35.8799 32.6509 35.7132L32.0001 34.7368Z" fill="#334299"/>
<path d="M32.2775 35.7131L32.0001 34.7368L31.7227 35.7132C31.6753 35.8799 31.6847 36.1019 31.7451 36.2437L32.0001 36.8421L32.2551 36.2437C32.3155 36.1019 32.3248 35.8798 32.2775 35.7131Z" fill="#F5F5F5"/>
<path d="M31.9999 26V23.3684C31.9999 23.3684 30.9999 24.807 31.1578 26.9123" fill="#334299"/>
<path d="M27.5153 26.009C26.0688 29.1485 27.5525 31.732 27.864 32.2183C27.8723 32.2313 29.9298 28.903 29.9298 28.903L27.5153 26.009Z" fill="#334299"/>
<path d="M29.0382 30.3427C28.8101 29.632 28.777 28.8022 29.051 27.8499L28.1558 26.7769C27.4202 28.7587 27.7247 30.2222 28.4608 31.2721C28.6417 30.9816 28.8425 30.6584 29.0382 30.3427Z" fill="#F5F5F5"/>
<path d="M29.895 29.0786C29.8322 29.0786 29.7702 29.0506 29.7286 28.9972L27.0886 25.6028C27.0171 25.5111 27.0337 25.3787 27.1254 25.3076C27.2177 25.2361 27.3495 25.2528 27.4209 25.3446L30.0609 28.7389C30.1324 28.8307 30.1157 28.9631 30.0241 29.0342C29.9857 29.0642 29.9401 29.0786 29.895 29.0786Z" fill="#F5D33D"/>
<path d="M25.6841 29.2715C24.842 37.6925 31.5788 35.5872 31.9998 34.7451L27.7893 32.6399L28.6315 30.9556L25.6841 29.2715Z" fill="#334299"/>
<path d="M27.7201 30.2403L26.5467 29.5361C26.2827 34.5401 28.955 35.3735 30.9258 35.1253C29.3278 34.9108 27.7315 33.7309 27.7201 30.2403Z" fill="#F5F5F5"/>
<path d="M28.631 31.1656C28.593 31.1656 28.5544 31.1554 28.5196 31.1335L25.1514 29.0286C25.0529 28.967 25.0229 28.837 25.0845 28.7388C25.146 28.6396 25.2758 28.6096 25.3746 28.6718L28.7429 30.7766C28.8414 30.8383 28.8714 30.9683 28.8098 31.0665C28.7698 31.1306 28.7011 31.1656 28.631 31.1656Z" fill="#F5D33D"/>
<path d="M36.4846 26.0007C37.9311 29.1402 36.4473 31.7237 36.1358 32.21C36.1276 32.223 34.0701 28.8947 34.0701 28.8947L36.4846 26.0007Z" fill="#334299"/>
<path d="M34.9617 30.3344C35.1898 29.6237 35.223 28.7939 34.949 27.8416L35.8441 26.7686C36.5797 28.7504 36.2752 30.2139 35.5391 31.2638C35.3582 30.9734 35.1575 30.6502 34.9617 30.3344Z" fill="#F5F5F5"/>
<path d="M34.1049 29.0703C34.0599 29.0703 34.0143 29.0559 33.9758 29.0259C33.8841 28.9548 33.8674 28.8224 33.939 28.7307L36.579 25.3363C36.6505 25.2447 36.7825 25.2282 36.8744 25.2993C36.9662 25.3704 36.9828 25.5028 36.9112 25.5945L34.2712 28.9889C34.2298 29.0424 34.1677 29.0703 34.1049 29.0703Z" fill="#F5D33D"/>
<path d="M38.3158 29.2632C39.1579 37.6842 32.421 35.5789 32 34.7368L36.2105 32.6316L35.3684 30.9473L38.3158 29.2632Z" fill="#334299"/>
<path d="M36.2798 30.232L37.4533 29.5278C37.7173 34.5318 35.0451 35.3652 33.0742 35.117C34.6722 34.9026 36.2686 33.7226 36.2798 30.232Z" fill="#F5F5F5"/>
<path d="M35.3689 31.1576C35.2987 31.1576 35.2301 31.1226 35.1902 31.0585C35.1286 30.9602 35.1586 30.8302 35.257 30.7686L38.6252 28.6637C38.7241 28.6016 38.8539 28.6316 38.9154 28.7307C38.977 28.829 38.947 28.959 38.8485 29.0206L35.4802 31.1255C35.4455 31.1473 35.4069 31.1576 35.3689 31.1576Z" fill="#F5D33D"/>
<path d="M31.9999 31.368C32.9301 31.368 33.6842 30.6139 33.6842 29.6838C33.6842 28.7536 32.9301 27.9995 31.9999 27.9995C31.0697 27.9995 30.3157 28.7536 30.3157 29.6838C30.3157 30.6139 31.0697 31.368 31.9999 31.368Z" fill="#FFE6E6"/>
<path d="M32.0001 30.5258C32.4652 30.5258 32.8422 30.1488 32.8422 29.6837C32.8422 29.2186 32.4652 28.8416 32.0001 28.8416C31.535 28.8416 31.158 29.2186 31.158 29.6837C31.158 30.1488 31.535 30.5258 32.0001 30.5258Z" fill="#F5F5F5"/>
<path d="M32.0001 32.421C31.8837 32.421 31.7896 32.3269 31.7896 32.2105V29.6841C31.7896 29.5678 31.8837 29.4736 32.0001 29.4736C32.1164 29.4736 32.2106 29.5678 32.2106 29.6841V32.2105C32.2106 32.3269 32.1164 32.421 32.0001 32.421Z" fill="#F5D33D"/>
<path d="M37.7544 34.7017H26.4736L27.7895 32.198H36.2456L37.7544 34.7017Z" fill="#5AA0E6"/>
<path d="M32.3425 32.6665H35.2763L34.3637 31.7539C34.3207 31.711 34.2684 31.6786 34.2108 31.6594L33.8932 31.5535C33.7787 31.5154 33.6529 31.5321 33.5525 31.5991L32.5383 32.2754L32.3425 32.6665Z" fill="#FFB750"/>
<path d="M31.345 32.8245H34.8465L33.7572 31.7353C33.706 31.684 33.6435 31.6454 33.5747 31.6225L33.1956 31.4962C33.059 31.4505 32.9088 31.4707 32.789 31.5507L31.5783 32.3578L31.345 32.8245Z" fill="#FFC455"/>
<path d="M30.127 33.0001H34.3553L33.04 31.6847C32.9781 31.6229 32.9026 31.5762 32.8196 31.5485L32.3617 31.3959C32.1967 31.3409 32.0155 31.3651 31.8707 31.4616L30.4088 32.4362L30.127 33.0001Z" fill="#FFCD55"/>
<path d="M28.9216 33.158H33.7631L32.257 31.6519C32.1861 31.581 32.0998 31.5276 32.0046 31.496L31.4804 31.3212C31.2914 31.2582 31.0839 31.286 30.9181 31.3965L29.2441 32.5125L28.9216 33.158Z" fill="#FFD25A"/>
<path d="M26.9473 33.4737H33.263L31.2983 31.509C31.2058 31.4165 31.0931 31.3469 30.9691 31.3056L30.2853 31.0776C30.0388 30.9955 29.7681 31.0317 29.5519 31.1759L27.3683 32.6316L26.9473 33.4737Z" fill="#F5D33D"/>
<path d="M32.4546 30.0619H31.5442L31.7538 29.1829H32.0702C32.1727 29.1829 32.2618 29.2532 32.2856 29.3529L32.4546 30.0619Z" fill="#FF333E"/>
<path d="M32.4022 30.203H31.585C31.5181 30.203 31.4639 30.1488 31.4639 30.0819V30.0415C31.4639 29.9747 31.5181 29.9204 31.585 29.9204H32.4022C32.4691 29.9204 32.5234 29.9747 32.5234 30.0415V30.0819C32.5232 30.1488 32.4691 30.203 32.4022 30.203Z" fill="#FF333E"/>
<path d="M31.862 29.5831L31.6575 29.5314C31.5958 29.5157 31.5691 29.4431 31.6058 29.3914L31.7537 29.1829L31.862 29.5831Z" fill="#FF333E"/>
<path d="M30.9498 27.5214C30.9398 27.5988 30.9299 27.676 30.9199 27.7534C31.247 27.5549 31.6082 27.4356 32 27.4358C32.3918 27.4361 32.7529 27.5545 33.0802 27.7534C33.0702 27.676 33.0603 27.5987 33.0503 27.5214C32.7248 27.3515 32.3745 27.2539 32 27.2542C31.6257 27.2539 31.2753 27.3514 30.9498 27.5214Z" fill="#334299"/>
<path d="M30.9627 27.4206C30.9527 27.498 30.9427 27.5752 30.9329 27.6526C31.2565 27.4536 31.6131 27.3343 32 27.334C32.3869 27.3343 32.7436 27.4536 33.0671 27.6526C33.0571 27.5752 33.0472 27.4978 33.0372 27.4206C32.7154 27.2496 32.3696 27.1526 32 27.1523C31.6304 27.1526 31.2846 27.2498 30.9627 27.4206Z" fill="#5AA0E6"/>
<path d="M30.9747 27.3274C30.9647 27.4047 30.9547 27.482 30.9448 27.5594C31.2652 27.3597 31.6177 27.2395 31.9999 27.2397C32.3823 27.2397 32.7347 27.3597 33.0551 27.5594C33.0451 27.482 33.0351 27.4047 33.0252 27.3274C32.7068 27.1564 32.3652 27.0582 31.9999 27.0581C31.6348 27.0581 31.2932 27.1564 30.9747 27.3274Z" fill="#9BC800"/>
<path d="M30.9886 27.2207C30.9786 27.2981 30.9686 27.3754 30.9587 27.4527C31.2754 27.2524 31.6231 27.1319 32.0001 27.1321C32.3771 27.1324 32.7249 27.2523 33.0415 27.4527C33.0315 27.3753 33.0215 27.2981 33.0116 27.2207C32.697 27.0489 32.3602 26.9506 32.0001 26.9504C31.6401 26.9506 31.3032 27.0488 30.9886 27.2207Z" fill="#FFE14E"/>
<path d="M31.002 27.1161C30.992 27.1935 30.982 27.2707 30.9722 27.3481C31.2852 27.1472 31.628 27.0265 32 27.0264C32.3719 27.0269 32.7149 27.1469 33.0279 27.3481C33.0179 27.2707 33.0079 27.1935 32.998 27.1161C32.6873 26.944 32.3552 26.845 32 26.8447C31.645 26.8451 31.3128 26.9437 31.002 27.1161Z" fill="#FFB14E"/>
<path d="M31.0077 27.0713C31.0007 27.1254 30.9937 27.1797 30.9868 27.2338C31.2957 27.0327 31.6337 26.9108 31.9999 26.9109C32.3662 26.9107 32.7042 27.0324 33.0131 27.2338C33.0061 27.1797 32.9991 27.1254 32.9922 27.0713C32.6831 26.8989 32.3528 26.7997 31.9999 26.7996C31.6471 26.7992 31.3168 26.8986 31.0077 27.0713Z" fill="#FF333E"/>
<path d="M37.8948 34.9474H26.1053C26.0275 34.9474 25.9563 34.9046 25.9196 34.8364C25.883 34.7677 25.8871 34.6846 25.9301 34.6201L31.8249 25.778C31.903 25.6612 32.0971 25.6612 32.1753 25.778L38.07 34.6201C38.113 34.6846 38.1171 34.7677 38.0805 34.8364C38.0438 34.9046 37.9725 34.9474 37.8948 34.9474ZM26.4985 34.5262H37.5014L32 26.2742L26.4985 34.5262Z" fill="#F5D33D"/>
<path d="M32.0001 23.9999C31.8837 23.9999 31.7896 23.9058 31.7896 23.7894V22.9473C31.7896 22.8309 31.8837 22.7368 32.0001 22.7368C32.1164 22.7368 32.2106 22.8309 32.2106 22.9473V23.7894C32.2106 23.9058 32.1164 23.9999 32.0001 23.9999Z" fill="#F5D33D"/>
<path d="M32.421 23.9999H31.5789C31.4625 23.9999 31.3684 23.9057 31.3684 23.7894C31.3684 23.673 31.4625 23.5789 31.5789 23.5789H32.421C32.5374 23.5789 32.6315 23.673 32.6315 23.7894C32.6317 23.9057 32.5374 23.9999 32.421 23.9999Z" fill="#F5D33D"/>
<path d="M31.9999 39.1581C31.9847 39.1581 31.9693 39.1565 31.9543 39.1532C31.7483 39.1072 31.0605 38.9422 30.8579 38.7412C30.6005 38.4855 30.5989 38.0681 30.8544 37.8103C30.9784 37.6857 31.1433 37.6167 31.319 37.6162H31.3213C31.4963 37.6162 31.6607 37.6841 31.7849 37.8075C31.9877 38.009 32.1579 38.6948 32.2052 38.9003C32.2214 38.9707 32.2003 39.0447 32.1494 39.0961C32.1093 39.1363 32.0554 39.1581 31.9999 39.1581ZM31.3213 38.0372C31.2654 38.0557 31.1979 38.0623 31.1532 38.1071C31.0613 38.1996 31.0619 38.3501 31.1547 38.4422C31.2057 38.492 31.4333 38.578 31.706 38.6556C31.6263 38.3838 31.5387 38.1568 31.4883 38.1058L31.6365 37.9566L31.488 38.1058C31.4434 38.0615 31.3842 38.0372 31.3213 38.0372Z" fill="#334299"/>
<path d="M31.9999 39.158C31.9444 39.158 31.8905 39.1362 31.8504 39.0958C31.7997 39.0445 31.7784 38.9705 31.7947 38.9001C31.8419 38.6945 32.0122 38.0086 32.2149 37.8072C32.3397 37.6835 32.4884 37.6271 32.6808 37.616C32.8565 37.6163 33.0214 37.6855 33.1452 37.8101C33.4009 38.068 33.3993 38.4852 33.142 38.7406C32.9392 38.9421 32.2514 39.107 32.0454 39.153C32.0305 39.1563 32.0152 39.158 31.9999 39.158ZM32.3634 37.9565L32.5117 38.1057C32.4613 38.1567 32.3737 38.3837 32.2939 38.6555C32.5667 38.5777 32.7943 38.4918 32.8455 38.4416C32.938 38.3498 32.9387 38.1993 32.8465 38.1068C32.8022 38.0621 32.7427 38.037 32.6794 38.037H32.6785C32.6157 38.037 32.5564 38.0612 32.5118 38.1056L32.3634 37.9565Z" fill="#334299"/>
<path d="M31.1578 40.4211C31.0414 40.4211 30.9473 40.327 30.9473 40.2106C30.9473 39.2493 31.8666 38.7789 31.9058 38.7591C32.0104 38.7069 32.1356 38.7496 32.1876 38.8529C32.2399 38.9565 32.1981 39.0828 32.0948 39.1354C32.0874 39.1391 31.3684 39.5124 31.3684 40.2106C31.3683 40.327 31.2741 40.4211 31.1578 40.4211Z" fill="#334299"/>
<path d="M32.8421 40.4211C32.7257 40.4211 32.6316 40.327 32.6316 40.2106C32.6316 39.5124 31.9126 39.1391 31.9052 39.1354C31.8018 39.0828 31.7601 38.9565 31.8123 38.8529C31.8647 38.7496 31.99 38.7069 32.0942 38.7591C32.1333 38.7789 33.0527 39.2493 33.0527 40.2106C33.0526 40.327 32.9585 40.4211 32.8421 40.4211Z" fill="#334299"/>
</g>
<defs>
<clipPath id="clip0_3427_28519">
<rect width="64" height="64" rx="10" fill="white"/>
</clipPath>
</defs>
</svg>
