<svg width="64" height="64" viewBox="0 0 64 64" fill="none" xmlns="http://www.w3.org/2000/svg">
<g clip-path="url(#clip0_3427_29130)">
<path d="M64.0001 0L0.000195992 9.15574e-05L7.71402e-05 50C7.71402e-05 64 -5.79976e-05 58 2.94564e-05 64H64.0001V0Z" fill="#F5F5F5"/>
<path d="M12.2058 4.45801L15.0234 17.4949L19.432 15.6688L12.2058 4.45801Z" fill="#F5D33D"/>
<path d="M12.2058 4.45801L17.2277 16.5818L15.0234 17.4949L12.2058 4.45801Z" fill="#FFCD5A"/>
<path d="M23.1627 30.9101L20.3452 17.8733L15.9365 19.6994L23.1627 30.9101Z" fill="#F5D33D"/>
<path d="M23.1627 30.9101L18.1409 18.7863L20.3452 17.8733L23.1627 30.9101Z" fill="#FFCD5A"/>
<path d="M30.9102 12.2056L17.8733 15.0232L19.6995 19.4318L30.9102 12.2056Z" fill="#F5D33D"/>
<path d="M30.9102 12.2056L18.7864 17.2275L17.8733 15.0232L30.9102 12.2056Z" fill="#FFCD5A"/>
<path d="M4.45825 23.1625L17.4952 20.345L15.6691 15.9363L4.45825 23.1625Z" fill="#F5D33D"/>
<path d="M4.45825 23.1625L16.5821 18.1406L17.4952 20.345L4.45825 23.1625Z" fill="#FFCD5A"/>
<path d="M23.1627 4.45801L15.9365 15.6688L20.3452 17.4949L23.1627 4.45801Z" fill="#F5D33D"/>
<path d="M23.1627 4.45801L18.1409 16.5818L15.9365 15.6688L23.1627 4.45801Z" fill="#FFCD5A"/>
<path d="M12.2058 30.9101L19.432 19.6994L15.0234 17.8733L12.2058 30.9101Z" fill="#F5D33D"/>
<path d="M12.2058 30.9102L17.2277 18.7864L19.432 19.6995L12.2058 30.9102Z" fill="#FFCD5A"/>
<path d="M30.9102 23.1625L19.6995 15.9363L17.8733 20.345L30.9102 23.1625Z" fill="#F5D33D"/>
<path d="M30.9102 23.1625L18.7864 18.1406L19.6995 15.9363L30.9102 23.1625Z" fill="#FFCD5A"/>
<path d="M4.45825 12.2056L15.6691 19.4318L17.4952 15.0232L4.45825 12.2056Z" fill="#F5D33D"/>
<path d="M4.45825 12.2056L16.5821 17.2275L15.6691 19.4318L4.45825 12.2056Z" fill="#FFCD5A"/>
<path d="M63.9996 21.3337H35.3748V28.4448H63.9996V21.3337Z" fill="#4173CD"/>
<path d="M63.9999 35.5547H0.000244141V42.6658H63.9999V35.5547Z" fill="#4173CD"/>
<path d="M17.6843 3.36841L15.2983 16.4912H20.0702L17.6843 3.36841Z" fill="#F5D33D"/>
<path d="M17.6843 3.36841V16.4912H15.2983L17.6843 3.36841Z" fill="#FFCD5A"/>
<path d="M17.6843 31.9999L20.0702 18.8772H15.2983L17.6843 31.9999Z" fill="#F5D33D"/>
<path d="M17.6843 31.9999V18.8772H20.0702L17.6843 31.9999Z" fill="#FFCD5A"/>
<path d="M31.9999 17.6841L18.8772 15.2981V20.0699L31.9999 17.6841Z" fill="#F5D33D"/>
<path d="M31.9999 17.6841H18.8772V15.2981L31.9999 17.6841Z" fill="#FFCD5A"/>
<path d="M3.36841 17.6841L16.4912 20.0699V15.2981L3.36841 17.6841Z" fill="#F5D33D"/>
<path d="M3.36841 17.6841H16.4912V20.0699L3.36841 17.6841Z" fill="#FFCD5A"/>
<path d="M27.8069 7.56128L16.8406 15.1534L20.2148 18.5276L27.8069 7.56128Z" fill="#F5D33D"/>
<path d="M27.8069 7.56128L18.5277 16.8405L16.8406 15.1534L27.8069 7.56128Z" fill="#FFCD5A"/>
<path d="M7.56152 27.8069L18.5278 20.2148L15.1536 16.8406L7.56152 27.8069Z" fill="#F5D33D"/>
<path d="M7.56152 27.8068L16.8407 18.5276L18.5278 20.2147L7.56152 27.8068Z" fill="#FFCD5A"/>
<path d="M27.8069 27.8069L20.2148 16.8406L16.8406 20.2148L27.8069 27.8069Z" fill="#F5D33D"/>
<path d="M27.807 27.8069L18.5278 18.5277L20.2149 16.8406L27.807 27.8069Z" fill="#FFCD5A"/>
<path d="M7.56152 7.56128L15.1536 18.5276L18.5278 15.1534L7.56152 7.56128Z" fill="#F5D33D"/>
<path d="M7.56152 7.56128L16.8407 16.8405L15.1536 18.5276L7.56152 7.56128Z" fill="#FFCD5A"/>
<path d="M17.6836 22.4548C20.3186 22.4548 22.4548 20.3186 22.4548 17.6836C22.4548 15.0485 20.3186 12.9124 17.6836 12.9124C15.0485 12.9124 12.9124 15.0485 12.9124 17.6836C12.9124 20.3186 15.0485 22.4548 17.6836 22.4548Z" fill="#F5D33D"/>
<path d="M63.9996 50H0V57.1111H63.9996V50Z" fill="#4173CD"/>
<path d="M63.9949 7.11011H35.3701V14.2212H63.9949V7.11011Z" fill="#4173CD"/>
</g>
<defs>
<clipPath id="clip0_3427_29130">
<rect width="64" height="64" rx="10" fill="white"/>
</clipPath>
</defs>
</svg>
