<svg width="64" height="64" viewBox="0 0 64 64" fill="none" xmlns="http://www.w3.org/2000/svg">
<g clip-path="url(#clip0_3427_29175)">
<path d="M64 14.7688H0V19.6913H64V14.7688Z" fill="#F5F5F5"/>
<path d="M0 4.9231V9.84622H64V4.9231H0Z" fill="#F5F5F5"/>
<path d="M64 24.615H0V29.5375H64V24.615Z" fill="#F5F5F5"/>
<path d="M64 34.4612H0V39.3837H64V34.4612Z" fill="#F5F5F5"/>
<path d="M64 44.3074H0V49.2299H64V44.3074Z" fill="#F5F5F5"/>
<path d="M64 54.1445H0V59H64V54.1445Z" fill="#F5F5F5"/>
<path d="M0 0V4.92312H64V0H0Z" fill="#FF333E"/>
<path d="M64 19.6924H0V24.6149H64V19.6924Z" fill="#FF333E"/>
<path d="M64 9.84619H0V14.7692H64V9.84619Z" fill="#FF333E"/>
<path d="M64 29.5388H0V34.4613H64V29.5388Z" fill="#FF333E"/>
<path d="M64 39.385H0V44.3075H64V39.385Z" fill="#FF333E"/>
<path d="M34.4615 0H0V34.4615H34.4615V0Z" fill="#334299"/>
<path d="M4.68186 3.07734L4.94736 3.87359L5.78661 3.88009C5.89524 3.88097 5.94036 4.01959 5.85299 4.08409L5.17774 4.58272L5.43086 5.38297C5.46361 5.48659 5.34574 5.57234 5.25724 5.50909L4.57461 5.02097L3.89174 5.50909C3.80336 5.57234 3.68536 5.48659 3.71811 5.38297L3.97124 4.58272L3.29611 4.08409C3.20874 4.01959 3.25374 3.88084 3.36236 3.88009L4.20161 3.87359L4.46711 3.07734C4.50161 2.97422 4.64749 2.97422 4.68186 3.07734Z" fill="#F5F5F5"/>
<path d="M4.68199 9.71943L4.94749 10.5157L5.78674 10.5222C5.89537 10.5231 5.94049 10.6617 5.85312 10.7263L5.17787 11.2249L5.43099 12.0252C5.46374 12.1288 5.34587 12.2144 5.25737 12.1513L4.57449 11.6632L3.89162 12.1513C3.80324 12.2146 3.68524 12.1288 3.71799 12.0252L3.97112 11.2249L3.29587 10.7263C3.20849 10.6618 3.25349 10.5231 3.36212 10.5222L4.20137 10.5157L4.46687 9.71943C4.50174 9.61631 4.64762 9.61631 4.68199 9.71943Z" fill="#F5F5F5"/>
<path d="M4.68199 17.0859L4.94749 17.8821L5.78674 17.8886C5.89537 17.8895 5.94049 18.0281 5.85312 18.0928L5.17787 18.5914L5.43099 19.3916C5.46374 19.4953 5.34587 19.5809 5.25737 19.5178L4.57449 19.0298L3.89162 19.5178C3.80324 19.5809 3.68524 19.4953 3.71799 19.3916L3.97112 18.5914L3.29587 18.0928C3.20849 18.0283 3.25349 17.8895 3.36212 17.8886L4.20137 17.8821L4.46687 17.0859C4.50174 16.9828 4.64762 16.9828 4.68199 17.0859Z" fill="#F5F5F5"/>
<path d="M4.68199 23.8542L4.94749 24.6504L5.78674 24.6569C5.89537 24.6578 5.94049 24.7965 5.85312 24.8611L5.17787 25.3597L5.43099 26.1599C5.46374 26.2636 5.34587 26.3492 5.25737 26.2861L4.57449 25.7979L3.89162 26.2861C3.80324 26.3492 3.68524 26.2636 3.71799 26.1599L3.97112 25.3597L3.29587 24.8611C3.20849 24.7966 3.25349 24.6578 3.36212 24.6569L4.20137 24.6504L4.46687 23.8542C4.50174 23.7511 4.64762 23.7511 4.68199 23.8542Z" fill="#F5F5F5"/>
<path d="M4.68199 30.0131L4.94749 30.8094L5.78674 30.8159C5.89537 30.8168 5.94049 30.9554 5.85312 31.02L5.17787 31.5186L5.43099 32.3189C5.46374 32.4225 5.34587 32.5081 5.25737 32.445L4.57449 31.957L3.89162 32.445C3.80324 32.5081 3.68524 32.4225 3.71799 32.3189L3.97112 31.5186L3.29587 31.02C3.20849 30.9555 3.25349 30.8168 3.36212 30.8159L4.20137 30.8094L4.46687 30.0131C4.50174 29.91 4.64762 29.91 4.68199 30.0131Z" fill="#F5F5F5"/>
<path d="M7.91477 6.22261L8.18027 7.01886L9.01952 7.02536C9.12815 7.02623 9.17327 7.16486 9.0859 7.22936L8.41065 7.72798L8.66377 8.52823C8.69652 8.63186 8.57865 8.71761 8.49015 8.65436L7.80752 8.16623L7.12465 8.65436C7.03627 8.71761 6.91827 8.63186 6.95102 8.52823L7.20415 7.72798L6.52902 7.22936C6.44165 7.16486 6.48665 7.02611 6.59527 7.02536L7.43452 7.01886L7.70002 6.22261C7.73452 6.11948 7.8804 6.11948 7.91477 6.22261Z" fill="#F5F5F5"/>
<path d="M7.91478 13.5893L8.18028 14.3856L9.01953 14.3921C9.12815 14.3929 9.17328 14.5316 9.0859 14.5962L8.41065 15.0948L8.66378 15.8951C8.69653 15.9987 8.57865 16.0844 8.49015 16.0212L7.80728 15.5331L7.1244 16.0212C7.03603 16.0844 6.91803 15.9987 6.95078 15.8951L7.2039 15.0948L6.52878 14.5962C6.4414 14.5317 6.4864 14.3929 6.59503 14.3921L7.43428 14.3856L7.69978 13.5893C7.73453 13.4862 7.8804 13.4862 7.91478 13.5893Z" fill="#F5F5F5"/>
<path d="M7.91478 20.5882L8.18028 21.3845L9.01953 21.391C9.12815 21.3919 9.17328 21.5305 9.0859 21.5951L8.41065 22.0937L8.66378 22.894C8.69653 22.9976 8.57865 23.0832 8.49015 23.0201L7.80728 22.532L7.1244 23.0201C7.03603 23.0834 6.91803 22.9976 6.95078 22.894L7.2039 22.0937L6.52878 21.5951C6.4414 21.5306 6.4864 21.3919 6.59503 21.391L7.43428 21.3845L7.69978 20.5882C7.73453 20.4852 7.8804 20.4852 7.91478 20.5882Z" fill="#F5F5F5"/>
<path d="M7.91478 26.8735L8.18028 27.6697L9.01953 27.6762C9.12815 27.6771 9.17328 27.8157 9.0859 27.8804L8.41065 28.379L8.66378 29.1792C8.69653 29.2829 8.57865 29.3686 8.49015 29.3054L7.80728 28.8174L7.1244 29.3054C7.03603 29.3686 6.91803 29.2829 6.95078 29.1792L7.2039 28.379L6.52878 27.8804C6.4414 27.8159 6.4864 27.6771 6.59503 27.6762L7.43428 27.6697L7.69978 26.8735C7.73453 26.7704 7.8804 26.7704 7.91478 26.8735Z" fill="#F5F5F5"/>
<path d="M11.1477 3.07725L11.4132 3.8735L12.2524 3.88C12.3611 3.88088 12.4062 4.0195 12.3188 4.084L11.6436 4.58262L11.8967 5.38287C11.9294 5.4865 11.8116 5.57212 11.7231 5.509L11.0402 5.02087L10.3573 5.509C10.2689 5.57225 10.1509 5.4865 10.1837 5.38287L10.4368 4.58262L9.76169 4.084C9.67431 4.0195 9.71931 3.88075 9.82794 3.88L10.6672 3.8735L10.9327 3.07725C10.9674 2.97425 11.1133 2.97425 11.1477 3.07725Z" fill="#F5F5F5"/>
<path d="M11.1477 9.71943L11.4132 10.5157L12.2524 10.5222C12.3611 10.5231 12.4062 10.6617 12.3188 10.7263L11.6436 11.2249L11.8967 12.0252C11.9294 12.1288 11.8116 12.2144 11.7231 12.1513L11.0402 11.6632L10.3573 12.1513C10.2689 12.2146 10.1509 12.1288 10.1837 12.0252L10.4368 11.2249L9.76169 10.7263C9.67431 10.6618 9.71931 10.5231 9.82794 10.5222L10.6672 10.5157L10.9327 9.71943C10.9674 9.61631 11.1133 9.61631 11.1477 9.71943Z" fill="#F5F5F5"/>
<path d="M11.1477 17.0859L11.4132 17.8821L12.2524 17.8886C12.3611 17.8895 12.4062 18.0281 12.3188 18.0928L11.6436 18.5914L11.8967 19.3916C11.9294 19.4953 11.8116 19.5809 11.7231 19.5178L11.0402 19.0298L10.3573 19.5178C10.2689 19.5809 10.1509 19.4953 10.1837 19.3916L10.4368 18.5914L9.76169 18.0928C9.67431 18.0283 9.71931 17.8895 9.82794 17.8886L10.6672 17.8821L10.9327 17.0859C10.9674 16.9828 11.1133 16.9828 11.1477 17.0859Z" fill="#F5F5F5"/>
<path d="M11.1477 23.8542L11.4132 24.6504L12.2524 24.6569C12.3611 24.6578 12.4062 24.7965 12.3188 24.8611L11.6436 25.3597L11.8967 26.1599C11.9294 26.2636 11.8116 26.3492 11.7231 26.2861L11.0402 25.7979L10.3573 26.2861C10.2689 26.3492 10.1509 26.2636 10.1837 26.1599L10.4368 25.3597L9.76169 24.8611C9.67431 24.7966 9.71931 24.6578 9.82794 24.6569L10.6672 24.6504L10.9327 23.8542C10.9674 23.7511 11.1133 23.7511 11.1477 23.8542Z" fill="#F5F5F5"/>
<path d="M11.1477 30.0131L11.4132 30.8094L12.2524 30.8159C12.3611 30.8168 12.4062 30.9554 12.3188 31.02L11.6436 31.5186L11.8967 32.3189C11.9294 32.4225 11.8116 32.5081 11.7231 32.445L11.0402 31.957L10.3573 32.445C10.2689 32.5081 10.1509 32.4225 10.1837 32.3189L10.4368 31.5186L9.76169 31.02C9.67431 30.9555 9.71931 30.8168 9.82794 30.8159L10.6672 30.8094L10.9327 30.0131C10.9674 29.91 11.1133 29.91 11.1477 30.0131Z" fill="#F5F5F5"/>
<path d="M14.3807 6.22261L14.6462 7.01886L15.4855 7.02536C15.5941 7.02623 15.6392 7.16486 15.5517 7.22936L14.8766 7.72798L15.1297 8.52823C15.1625 8.63186 15.0446 8.71761 14.9561 8.65436L14.2732 8.16623L13.5903 8.65436C13.502 8.71761 13.384 8.63186 13.4167 8.52823L13.6698 7.72798L12.9946 7.22936C12.9072 7.16486 12.9522 7.02611 13.061 7.02536L13.9002 7.01886L14.1657 6.22261C14.2006 6.11948 14.3463 6.11948 14.3807 6.22261Z" fill="#F5F5F5"/>
<path d="M14.3807 13.5893L14.6462 14.3856L15.4855 14.3921C15.5941 14.3929 15.6392 14.5316 15.5517 14.5962L14.8766 15.0948L15.1297 15.8951C15.1625 15.9987 15.0446 16.0844 14.9561 16.0212L14.2732 15.5331L13.5903 16.0212C13.502 16.0844 13.384 15.9987 13.4167 15.8951L13.6698 15.0948L12.9946 14.5962C12.9072 14.5317 12.9522 14.3929 13.061 14.3921L13.9002 14.3856L14.1657 13.5893C14.2006 13.4862 14.3463 13.4862 14.3807 13.5893Z" fill="#F5F5F5"/>
<path d="M14.3807 20.5882L14.6462 21.3845L15.4855 21.391C15.5941 21.3919 15.6392 21.5305 15.5517 21.5951L14.8766 22.0937L15.1297 22.894C15.1625 22.9976 15.0446 23.0832 14.9561 23.0201L14.2732 22.532L13.5903 23.0201C13.502 23.0834 13.384 22.9976 13.4167 22.894L13.6698 22.0937L12.9946 21.5951C12.9072 21.5306 12.9522 21.3919 13.061 21.391L13.9002 21.3845L14.1657 20.5882C14.2006 20.4852 14.3463 20.4852 14.3807 20.5882Z" fill="#F5F5F5"/>
<path d="M14.3807 26.8735L14.6462 27.6697L15.4855 27.6762C15.5941 27.6771 15.6392 27.8157 15.5517 27.8804L14.8766 28.379L15.1297 29.1792C15.1625 29.2829 15.0446 29.3686 14.9561 29.3054L14.2732 28.8174L13.5903 29.3054C13.502 29.3686 13.384 29.2829 13.4167 29.1792L13.6698 28.379L12.9946 27.8804C12.9072 27.8159 12.9522 27.6771 13.061 27.6762L13.9002 27.6697L14.1657 26.8735C14.2006 26.7704 14.3463 26.7704 14.3807 26.8735Z" fill="#F5F5F5"/>
<path d="M17.6135 3.07725L17.879 3.8735L18.7183 3.88C18.8269 3.88088 18.872 4.0195 18.7845 4.084L18.1094 4.58262L18.3625 5.38287C18.3953 5.4865 18.2774 5.57212 18.1889 5.509L17.506 5.02087L16.8231 5.509C16.7348 5.57225 16.6168 5.4865 16.6495 5.38287L16.9026 4.58262L16.2275 4.084C16.1401 4.0195 16.1851 3.88075 16.2939 3.88L17.1331 3.8735L17.3986 3.07725C17.4334 2.97425 17.5791 2.97425 17.6135 3.07725Z" fill="#F5F5F5"/>
<path d="M17.6134 9.71945L17.8789 10.5157L18.7181 10.5222C18.8268 10.5231 18.8719 10.6617 18.7844 10.7263L18.1093 11.2249L18.3625 12.0251C18.3953 12.1287 18.2774 12.2143 18.1889 12.1512L17.506 11.6631L16.8231 12.1512C16.7348 12.2144 16.6168 12.1287 16.6495 12.0251L16.9026 11.2248L16.2275 10.7262C16.1401 10.6617 16.1851 10.5229 16.2939 10.5221L17.1331 10.5156L17.3986 9.71932C17.4333 9.61632 17.579 9.61632 17.6134 9.71945Z" fill="#F5F5F5"/>
<path d="M17.6135 17.0859L17.879 17.8821L18.7183 17.8886C18.8269 17.8895 18.872 18.0281 18.7845 18.0928L18.1094 18.5914L18.3625 19.3916C18.3953 19.4953 18.2774 19.5809 18.1889 19.5178L17.506 19.0298L16.8231 19.5178C16.7348 19.5809 16.6168 19.4953 16.6495 19.3916L16.9026 18.5914L16.2275 18.0928C16.1401 18.0283 16.1851 17.8895 16.2939 17.8886L17.1331 17.8821L17.3986 17.0859C17.4334 16.9828 17.5791 16.9828 17.6135 17.0859Z" fill="#F5F5F5"/>
<path d="M17.6135 23.8542L17.879 24.6504L18.7183 24.6569C18.8269 24.6578 18.872 24.7965 18.7845 24.8611L18.1094 25.3597L18.3625 26.1599C18.3953 26.2636 18.2774 26.3492 18.1889 26.2861L17.506 25.7979L16.8231 26.2861C16.7348 26.3492 16.6168 26.2636 16.6495 26.1599L16.9026 25.3597L16.2275 24.8611C16.1401 24.7966 16.1851 24.6578 16.2939 24.6569L17.1331 24.6504L17.3986 23.8542C17.4334 23.7511 17.5791 23.7511 17.6135 23.8542Z" fill="#F5F5F5"/>
<path d="M17.6135 30.0131L17.879 30.8094L18.7183 30.8159C18.8269 30.8168 18.872 30.9554 18.7845 31.02L18.1094 31.5186L18.3625 32.3189C18.3953 32.4225 18.2774 32.5081 18.1889 32.445L17.506 31.957L16.8231 32.445C16.7348 32.5081 16.6168 32.4225 16.6495 32.3189L16.9026 31.5186L16.2275 31.02C16.1401 30.9555 16.1851 30.8168 16.2939 30.8159L17.1331 30.8094L17.3986 30.0131C17.4334 29.91 17.5791 29.91 17.6135 30.0131Z" fill="#F5F5F5"/>
<path d="M20.8463 6.22261L21.1118 7.01886L21.951 7.02536C22.0597 7.02623 22.1048 7.16486 22.0173 7.22936L21.342 7.72798L21.5952 8.52823C21.6279 8.63186 21.5099 8.71761 21.4215 8.65436L20.7387 8.16623L20.0558 8.65436C19.9674 8.71761 19.8494 8.63186 19.8822 8.52823L20.1353 7.72798L19.4602 7.22936C19.3728 7.16486 19.4178 7.02611 19.5264 7.02536L20.3657 7.01886L20.6312 6.22261C20.6662 6.11948 20.8119 6.11948 20.8463 6.22261Z" fill="#F5F5F5"/>
<path d="M20.8463 13.5893L21.1118 14.3856L21.951 14.3921C22.0597 14.3929 22.1048 14.5316 22.0173 14.5962L21.342 15.0948L21.5952 15.8951C21.6279 15.9987 21.5099 16.0844 21.4215 16.0212L20.7387 15.5331L20.0558 16.0212C19.9674 16.0844 19.8494 15.9987 19.8822 15.8951L20.1353 15.0948L19.4602 14.5962C19.3728 14.5317 19.4178 14.3929 19.5264 14.3921L20.3657 14.3856L20.6312 13.5893C20.6662 13.4862 20.8119 13.4862 20.8463 13.5893Z" fill="#F5F5F5"/>
<path d="M20.8463 20.5882L21.1118 21.3845L21.951 21.391C22.0597 21.3919 22.1048 21.5305 22.0173 21.5951L21.342 22.0937L21.5952 22.894C21.6279 22.9976 21.5099 23.0832 21.4215 23.0201L20.7387 22.532L20.0558 23.0201C19.9674 23.0834 19.8494 22.9976 19.8822 22.894L20.1353 22.0937L19.4602 21.5951C19.3728 21.5306 19.4178 21.3919 19.5264 21.391L20.3657 21.3845L20.6312 20.5882C20.6662 20.4852 20.8119 20.4852 20.8463 20.5882Z" fill="#F5F5F5"/>
<path d="M20.8463 26.8735L21.1118 27.6697L21.951 27.6762C22.0597 27.6771 22.1048 27.8157 22.0173 27.8804L21.342 28.379L21.5952 29.1792C21.6279 29.2829 21.5099 29.3686 21.4215 29.3054L20.7387 28.8174L20.0558 29.3054C19.9674 29.3686 19.8494 29.2829 19.8822 29.1792L20.1353 28.379L19.4602 27.8804C19.3728 27.8159 19.4178 27.6771 19.5264 27.6762L20.3657 27.6697L20.6312 26.8735C20.6662 26.7704 20.8119 26.7704 20.8463 26.8735Z" fill="#F5F5F5"/>
<path d="M24.0793 3.07725L24.3448 3.8735L25.1841 3.88C25.2927 3.88088 25.3378 4.0195 25.2503 4.084L24.5751 4.58262L24.8282 5.38287C24.861 5.4865 24.743 5.57212 24.6546 5.509L23.9717 5.02087L23.2888 5.509C23.2005 5.57225 23.0825 5.4865 23.1152 5.38287L23.3683 4.58262L22.6931 4.084C22.6057 4.0195 22.6507 3.88075 22.7595 3.88L23.5987 3.8735L23.8642 3.07725C23.8992 2.97425 24.045 2.97425 24.0793 3.07725Z" fill="#F5F5F5"/>
<path d="M24.0793 9.71943L24.3448 10.5157L25.1841 10.5222C25.2927 10.5231 25.3378 10.6617 25.2503 10.7263L24.5751 11.2249L24.8282 12.0252C24.861 12.1288 24.743 12.2144 24.6546 12.1513L23.9717 11.6632L23.2888 12.1513C23.2005 12.2146 23.0825 12.1288 23.1152 12.0252L23.3683 11.2249L22.6931 10.7263C22.6057 10.6618 22.6507 10.5231 22.7595 10.5222L23.5987 10.5157L23.8642 9.71943C23.8992 9.61631 24.045 9.61631 24.0793 9.71943Z" fill="#F5F5F5"/>
<path d="M24.0793 17.0859L24.3448 17.8821L25.1841 17.8886C25.2927 17.8895 25.3378 18.0281 25.2503 18.0928L24.5751 18.5914L24.8282 19.3916C24.861 19.4953 24.743 19.5809 24.6546 19.5178L23.9717 19.0298L23.2888 19.5178C23.2005 19.5809 23.0825 19.4953 23.1152 19.3916L23.3683 18.5914L22.6931 18.0928C22.6057 18.0283 22.6507 17.8895 22.7595 17.8886L23.5987 17.8821L23.8642 17.0859C23.8992 16.9828 24.045 16.9828 24.0793 17.0859Z" fill="#F5F5F5"/>
<path d="M24.0793 23.8542L24.3448 24.6504L25.1841 24.6569C25.2927 24.6578 25.3378 24.7965 25.2503 24.8611L24.5751 25.3597L24.8282 26.1599C24.861 26.2636 24.743 26.3492 24.6546 26.2861L23.9717 25.7979L23.2888 26.2861C23.2005 26.3492 23.0825 26.2636 23.1152 26.1599L23.3683 25.3597L22.6931 24.8611C22.6057 24.7966 22.6507 24.6578 22.7595 24.6569L23.5987 24.6504L23.8642 23.8542C23.8992 23.7511 24.045 23.7511 24.0793 23.8542Z" fill="#F5F5F5"/>
<path d="M24.0793 30.0131L24.3448 30.8094L25.1841 30.8159C25.2927 30.8168 25.3378 30.9554 25.2503 31.02L24.5751 31.5186L24.8282 32.3189C24.861 32.4225 24.743 32.5081 24.6546 32.445L23.9717 31.957L23.2888 32.445C23.2005 32.5081 23.0825 32.4225 23.1152 32.3189L23.3683 31.5186L22.6931 31.02C22.6057 30.9555 22.6507 30.8168 22.7595 30.8159L23.5987 30.8094L23.8642 30.0131C23.8992 29.91 24.045 29.91 24.0793 30.0131Z" fill="#F5F5F5"/>
<path d="M27.3121 6.22261L27.5776 7.01886L28.417 7.02536C28.5256 7.02623 28.5707 7.16486 28.4832 7.22936L27.808 7.72798L28.0611 8.52823C28.0939 8.63186 27.9759 8.71761 27.8875 8.65436L27.2046 8.16623L26.5217 8.65436C26.4334 8.71761 26.3154 8.63186 26.3481 8.52823L26.6012 7.72798L25.926 7.22936C25.8386 7.16486 25.8836 7.02611 25.9922 7.02536L26.8316 7.01886L27.0971 6.22261C27.132 6.11948 27.2777 6.11948 27.3121 6.22261Z" fill="#F5F5F5"/>
<path d="M27.3121 13.5893L27.5776 14.3856L28.417 14.3921C28.5256 14.3929 28.5707 14.5316 28.4832 14.5962L27.808 15.0948L28.0611 15.8951C28.0939 15.9987 27.9759 16.0844 27.8875 16.0212L27.2046 15.5331L26.5217 16.0212C26.4334 16.0844 26.3154 15.9987 26.3481 15.8951L26.6012 15.0948L25.926 14.5962C25.8386 14.5317 25.8836 14.3929 25.9922 14.3921L26.8316 14.3856L27.0971 13.5893C27.132 13.4862 27.2777 13.4862 27.3121 13.5893Z" fill="#F5F5F5"/>
<path d="M27.3121 20.5882L27.5776 21.3845L28.417 21.391C28.5256 21.3919 28.5707 21.5305 28.4832 21.5951L27.808 22.0937L28.0611 22.894C28.0939 22.9976 27.9759 23.0832 27.8875 23.0201L27.2046 22.532L26.5217 23.0201C26.4334 23.0834 26.3154 22.9976 26.3481 22.894L26.6012 22.0937L25.926 21.5951C25.8386 21.5306 25.8836 21.3919 25.9922 21.391L26.8316 21.3845L27.0971 20.5882C27.132 20.4852 27.2777 20.4852 27.3121 20.5882Z" fill="#F5F5F5"/>
<path d="M27.3121 26.8735L27.5776 27.6697L28.417 27.6762C28.5256 27.6771 28.5707 27.8157 28.4832 27.8804L27.808 28.379L28.0611 29.1792C28.0939 29.2829 27.9759 29.3686 27.8875 29.3054L27.2046 28.8174L26.5217 29.3054C26.4334 29.3686 26.3154 29.2829 26.3481 29.1792L26.6012 28.379L25.926 27.8804C25.8386 27.8159 25.8836 27.6771 25.9922 27.6762L26.8316 27.6697L27.0971 26.8735C27.132 26.7704 27.2777 26.7704 27.3121 26.8735Z" fill="#F5F5F5"/>
<path d="M30.545 3.07725L30.8105 3.8735L31.6498 3.88C31.7584 3.88088 31.8035 4.0195 31.7162 4.084L31.0409 4.58262L31.294 5.38287C31.3268 5.4865 31.2088 5.57212 31.1204 5.509L30.4375 5.02087L29.7547 5.509C29.6663 5.57225 29.5483 5.4865 29.581 5.38287L29.8342 4.58262L29.1589 4.084C29.0715 4.0195 29.1165 3.88075 29.2252 3.88L30.0644 3.8735L30.3299 3.07725C30.3649 2.97425 30.5107 2.97425 30.545 3.07725Z" fill="#F5F5F5"/>
<path d="M30.545 9.71943L30.8105 10.5157L31.6498 10.5222C31.7584 10.5231 31.8035 10.6617 31.7162 10.7263L31.0409 11.2249L31.294 12.0252C31.3268 12.1288 31.2088 12.2144 31.1204 12.1513L30.4375 11.6632L29.7547 12.1513C29.6663 12.2146 29.5483 12.1288 29.581 12.0252L29.8342 11.2249L29.1589 10.7263C29.0715 10.6618 29.1165 10.5231 29.2252 10.5222L30.0644 10.5157L30.3299 9.71943C30.3649 9.61631 30.5107 9.61631 30.545 9.71943Z" fill="#F5F5F5"/>
<path d="M30.545 17.0859L30.8105 17.8821L31.6498 17.8886C31.7584 17.8895 31.8035 18.0281 31.7162 18.0928L31.0409 18.5914L31.294 19.3916C31.3268 19.4953 31.2088 19.5809 31.1204 19.5178L30.4375 19.0298L29.7547 19.5178C29.6663 19.5809 29.5483 19.4953 29.581 19.3916L29.8342 18.5914L29.1589 18.0928C29.0715 18.0283 29.1165 17.8895 29.2252 17.8886L30.0644 17.8821L30.3299 17.0859C30.3649 16.9828 30.5107 16.9828 30.545 17.0859Z" fill="#F5F5F5"/>
<path d="M30.545 23.8542L30.8105 24.6504L31.6498 24.6569C31.7584 24.6578 31.8035 24.7965 31.7162 24.8611L31.0409 25.3597L31.294 26.1599C31.3268 26.2636 31.2088 26.3492 31.1204 26.2861L30.4375 25.7979L29.7547 26.2861C29.6663 26.3492 29.5483 26.2636 29.581 26.1599L29.8342 25.3597L29.1589 24.8611C29.0715 24.7966 29.1165 24.6578 29.2252 24.6569L30.0644 24.6504L30.3299 23.8542C30.3649 23.7511 30.5107 23.7511 30.545 23.8542Z" fill="#F5F5F5"/>
<path d="M30.545 30.0131L30.8105 30.8094L31.6498 30.8159C31.7584 30.8168 31.8035 30.9554 31.7162 31.02L31.0409 31.5186L31.294 32.3189C31.3268 32.4225 31.2088 32.5081 31.1204 32.445L30.4375 31.957L29.7547 32.445C29.6663 32.5081 29.5483 32.4225 29.581 32.3189L29.8342 31.5186L29.1589 31.02C29.0715 30.9555 29.1165 30.8168 29.2252 30.8159L30.0644 30.8094L30.3299 30.0131C30.3649 29.91 30.5107 29.91 30.545 30.0131Z" fill="#F5F5F5"/>
<path d="M64 49.22H0V54.1425H64V49.22Z" fill="#FF333E"/>
<path d="M64 59H0V64H64V59Z" fill="#FF333E"/>
</g>
<defs>
<clipPath id="clip0_3427_29175">
<rect width="64" height="64" rx="10" fill="white"/>
</clipPath>
</defs>
</svg>
