<svg width="64" height="64" viewBox="0 0 64 64" fill="none" xmlns="http://www.w3.org/2000/svg">
<g clip-path="url(#clip0_3427_29801)">
<path d="M50 0H14H0V14V50V64H14H50H64V50V14V0H50Z" fill="#FF333E"/>
<path d="M32.5706 18.3287L35.8411 28.1349L46.178 28.215C46.756 28.2195 46.9956 28.9571 46.5307 29.3005L38.2151 35.4411L41.3331 45.2967C41.5075 45.8479 40.88 46.3037 40.4097 45.9676L32 39.9567L23.5902 45.9677C23.12 46.3039 22.4925 45.848 22.6668 45.2969L25.7848 35.4412L17.4692 29.3006C17.0042 28.9572 17.244 28.2196 17.822 28.2151L28.1588 28.135L31.4293 18.3289C31.6122 17.7804 32.3877 17.7804 32.5706 18.3287Z" fill="#F5D33D"/>
</g>
<defs>
<clipPath id="clip0_3427_29801">
<rect width="64" height="64" rx="10" fill="white"/>
</clipPath>
</defs>
</svg>
