<svg width="64" height="64" viewBox="0 0 64 64" fill="none" xmlns="http://www.w3.org/2000/svg">
<g clip-path="url(#clip0_16_283)">
<path d="M32.0155 0.484848C18.8562 0.484848 15.0075 0.498424 14.2594 0.560484C11.5589 0.784969 9.87849 1.21018 8.04775 2.1217C6.63689 2.8223 5.52419 3.63442 4.42604 4.77285C2.42611 6.84897 1.21402 9.40315 0.775246 12.4393C0.561919 13.9132 0.49986 14.2138 0.487255 21.7425C0.482406 24.2521 0.487255 27.5549 0.487255 31.985C0.487255 45.1341 0.5018 48.9789 0.564828 49.7256C0.783003 52.3535 1.19511 54.0068 2.06781 55.8153C3.73564 59.2771 6.921 61.8759 10.6736 62.8456C11.973 63.1801 13.4081 63.3644 15.2504 63.4516C16.031 63.4856 23.9871 63.5098 31.9481 63.5098C39.9091 63.5098 47.8701 63.5001 48.6313 63.4613C50.7645 63.361 52.0033 63.1947 53.3729 62.8407C57.1498 61.8662 60.277 59.3062 61.9787 55.7959C62.8345 54.031 63.2684 52.3147 63.4647 49.824C63.5074 49.281 63.5253 40.623 63.5253 31.9767C63.5253 23.329 63.506 14.687 63.4633 14.144C63.2645 11.6131 62.8306 9.91127 61.9472 8.11248C61.2224 6.64 60.4176 5.54036 59.2491 4.416C57.1638 2.42424 54.6136 1.21212 51.5747 0.773818C50.1022 0.560969 49.8089 0.497939 42.2746 0.484848H32.0155Z" fill="url(#paint0_radial_16_283)"/>
<path d="M32.0104 0C18.6507 0 14.7435 0.0137858 13.9841 0.0768065C11.2424 0.304764 9.53639 0.736555 7.67779 1.66217C6.24544 2.37362 5.11581 3.1983 4.00094 4.35434C1.97056 6.46258 0.740018 9.05627 0.294563 12.1394C0.0779888 13.6361 0.0149852 13.9414 0.00218762 21.5866C-0.00273453 24.135 0.00218762 27.4889 0.00218762 31.9874C0.00218762 45.34 0.0169541 49.2443 0.080942 50.0025C0.302439 52.671 0.720822 54.35 1.60681 56.1864C3.30003 59.7018 6.53388 62.3408 10.3436 63.3255C11.6628 63.6652 13.1197 63.8523 14.9901 63.9409C15.7826 63.9754 23.8599 64 31.942 64C40.0242 64 48.1064 63.9902 48.8791 63.9508C51.0449 63.8489 52.3025 63.68 53.693 63.3206C57.5274 62.3309 60.7022 59.7313 62.4298 56.1667C63.2986 54.3746 63.7391 52.6317 63.9385 50.1025C63.9818 49.551 64 40.7591 64 31.9791C64 23.1975 63.9803 14.4219 63.937 13.8705C63.7352 11.3004 63.2947 9.57226 62.3978 7.74564C61.662 6.25038 60.8449 5.13373 59.6587 3.99197C57.5416 1.9694 54.9526 0.738524 51.8674 0.29344C50.3725 0.0772989 50.0747 0.0132934 42.4257 0H32.0104Z" fill="url(#paint1_radial_16_283)"/>
<path d="M32.001 8.72728C25.6807 8.72728 24.8875 8.75492 22.4051 8.86789C19.9276 8.98134 18.2365 9.37358 16.7568 9.9491C15.2262 10.5435 13.9278 11.3387 12.6343 12.6327C11.3398 13.9263 10.5446 15.2247 9.9483 16.7549C9.37135 18.2352 8.97863 19.9268 8.86712 22.4034C8.75609 24.8858 8.72701 25.6795 8.72701 32C8.72701 38.3205 8.75513 39.1113 8.86761 41.5937C8.98154 44.0713 9.37377 45.7624 9.94879 47.2422C10.5437 48.7729 11.3388 50.0713 12.6328 51.3649C13.9259 52.6594 15.2243 53.4565 16.7539 54.0509C18.2346 54.6264 19.9262 55.0187 22.4032 55.1321C24.8855 55.2451 25.6782 55.2727 31.9981 55.2727C38.3188 55.2727 39.1096 55.2451 41.592 55.1321C44.0695 55.0187 45.7625 54.6264 47.2432 54.0509C48.7733 53.4565 50.0698 52.6594 51.3628 51.3649C52.6573 50.0713 53.4524 48.7729 54.0488 47.2427C54.6209 45.7624 55.0136 44.0708 55.13 41.5942C55.2415 39.1118 55.2706 38.3205 55.2706 32C55.2706 25.6795 55.2415 24.8863 55.13 22.4039C55.0136 19.9263 54.6209 18.2352 54.0488 16.7554C53.4524 15.2247 52.6573 13.9263 51.3628 12.6327C50.0683 11.3382 48.7738 10.543 47.2417 9.9491C45.7581 9.37358 44.0661 8.98134 41.5886 8.86789C39.1062 8.75492 38.3159 8.72728 31.9937 8.72728H32.001ZM29.9133 12.9212C30.5329 12.9202 31.2243 12.9212 32.001 12.9212C38.2146 12.9212 38.9511 12.9435 41.4048 13.055C43.6738 13.1588 44.9053 13.5379 45.7256 13.8565C46.8117 14.2783 47.586 14.7826 48.4 15.5971C49.2145 16.4116 49.7187 17.1874 50.1415 18.2735C50.46 19.0929 50.8397 20.3244 50.9429 22.5935C51.0544 25.0468 51.0787 25.7838 51.0787 31.9947C51.0787 38.2056 51.0544 38.9426 50.9429 41.3959C50.8392 43.665 50.46 44.8965 50.1415 45.7159C49.7197 46.8019 49.2145 47.5753 48.4 48.3893C47.5855 49.2039 46.8122 49.7081 45.7256 50.1299C44.9063 50.4499 43.6738 50.8281 41.4048 50.9319C38.9515 51.0434 38.2146 51.0676 32.001 51.0676C25.7869 51.0676 25.0504 51.0434 22.5971 50.9319C20.3281 50.8272 19.0966 50.448 18.2758 50.1295C17.1898 49.7076 16.414 49.2034 15.5995 48.3889C14.785 47.5743 14.2808 46.8005 13.858 45.7139C13.5395 44.8946 13.1598 43.663 13.0566 41.3939C12.9451 38.9406 12.9228 38.2036 12.9228 31.9889C12.9228 25.7741 12.9451 25.041 13.0566 22.5876C13.1603 20.3186 13.5395 19.087 13.858 18.2667C14.2798 17.1806 14.785 16.4049 15.5995 15.5903C16.414 14.7758 17.1898 14.2715 18.2758 13.8487C19.0961 13.5287 20.3281 13.1506 22.5971 13.0463C24.744 12.9493 25.576 12.9202 29.9133 12.9154V12.9212ZM44.4234 16.7855C42.8816 16.7855 41.6307 18.0349 41.6307 19.5772C41.6307 21.119 42.8816 22.3699 44.4234 22.3699C45.9652 22.3699 47.216 21.119 47.216 19.5772C47.216 18.0354 45.9652 16.7845 44.4234 16.7845V16.7855ZM32.001 20.0485C25.4009 20.0485 20.0498 25.3998 20.0498 32C20.0498 38.6003 25.4009 43.9491 32.001 43.9491C38.601 43.9491 43.9502 38.6003 43.9502 32C43.9502 25.3998 38.601 20.0485 32.001 20.0485ZM32.001 24.2424C36.285 24.2424 39.7583 27.7154 39.7583 32C39.7583 36.2841 36.285 39.7576 32.001 39.7576C27.7165 39.7576 24.2436 36.2841 24.2436 32C24.2436 27.7154 27.7165 24.2424 32.001 24.2424Z" fill="white"/>
</g>
<defs>
<radialGradient id="paint0_radial_16_283" cx="0" cy="0" r="1" gradientUnits="userSpaceOnUse" gradientTransform="translate(17.2302 68.3641) rotate(-90) scale(62.4624 58.109)">
<stop stop-color="#FFDD55"/>
<stop offset="0.1" stop-color="#FFDD55"/>
<stop offset="0.5" stop-color="#FF543E"/>
<stop offset="1" stop-color="#C837AB"/>
</radialGradient>
<radialGradient id="paint1_radial_16_283" cx="0" cy="0" r="1" gradientTransform="matrix(5.56503 27.8014 -114.596 22.9517 -10.7203 4.61045)" gradientUnits="userSpaceOnUse">
<stop stop-color="#3771C8"/>
<stop offset="0.128" stop-color="#3771C8"/>
<stop offset="1" stop-color="#6600FF" stop-opacity="0"/>
</radialGradient>
<clipPath id="clip0_16_283">
<rect width="64" height="64" fill="white"/>
</clipPath>
</defs>
</svg>
