<svg width="64" height="64" viewBox="0 0 64 64" fill="none" xmlns="http://www.w3.org/2000/svg">
<rect width="64" height="64" rx="10" fill="#0068B7"/>
<path d="M22.9136 49.5609C22.9136 50.2473 22.3572 50.8037 21.6708 50.8037H16.3806C15.6942 50.8037 15.1378 50.2473 15.1378 49.5609V27.3847C15.1378 26.6983 15.6942 26.1419 16.3806 26.1419H21.6708C22.3572 26.1419 22.9136 26.6983 22.9136 27.3847V49.5609ZM19.0257 24.0514C16.2501 24.0514 14 21.8013 14 19.0257C14 16.2501 16.2501 14 19.0257 14C21.8013 14 24.0514 16.2501 24.0514 19.0257C24.0514 21.8013 21.8014 24.0514 19.0257 24.0514ZM50.56 49.661C50.56 50.2921 50.0484 50.8037 49.4173 50.8037H43.7406C43.1095 50.8037 42.5979 50.2921 42.5979 49.661V39.2591C42.5979 37.7074 43.0531 32.4593 38.5427 32.4593C35.0441 32.4593 34.3345 36.0514 34.192 37.6635V49.661C34.192 50.2921 33.6805 50.8037 33.0493 50.8037H27.5589C26.9279 50.8037 26.4162 50.2921 26.4162 49.661V27.2846C26.4162 26.6535 26.9279 26.1419 27.5589 26.1419H33.0493C33.6803 26.1419 34.192 26.6535 34.192 27.2846V29.2193C35.4893 27.2724 37.4172 25.7698 41.5221 25.7698C50.612 25.7698 50.56 34.2621 50.56 38.9281V49.661Z" fill="#FEFEFE"/>
</svg>
