<svg width="64" height="64" viewBox="0 0 64 64" fill="none" xmlns="http://www.w3.org/2000/svg">
<rect width="64" height="64" rx="10" fill="#6526D9"/>
<path d="M32 56C45.2548 56 56 45.2548 56 32C56 18.7452 45.2548 8 32 8C18.7452 8 8 18.7452 8 32C8 45.2548 18.7452 56 32 56Z" fill="#86D2F9"/>
<path d="M42.2876 10.3414C40.9249 11.0988 39.7916 12.3788 38.2502 11.9161C35.7502 11.1668 32.4169 9.50011 30.2502 11.5828C28.0836 13.6654 27.5836 15.5828 30.2502 15.5001C32.9169 15.4174 34.7502 12.2494 36.0836 13.5828C37.4169 14.9161 37.0822 16.0001 33.9169 16.4161C30.7516 16.8321 27.3329 17.3334 25.4996 17.3334C23.6662 17.3334 23.2489 18.4161 24.4996 19.5841C25.7502 20.7521 23.7489 20.8334 21.6662 22.0001C19.5836 23.1668 22.1662 23.6668 23.9169 24.6668C25.6676 25.6668 26.9996 24.4161 27.7502 22.7494C28.5009 21.0828 31.7249 19.0828 33.0702 19.3334C34.4169 19.5841 34.4169 20.2508 34.1662 21.4161C33.9156 22.5814 35.1662 22.2494 35.2489 20.9161C35.3316 19.5828 36.8329 18.5828 37.9982 18.5001C39.1636 18.4174 40.1649 20.0841 38.8316 20.9161C37.4982 21.7481 36.1649 22.4161 37.8316 22.8334C39.4982 23.2508 40.6649 25.4174 38.7489 26.3334C36.8329 27.2494 33.4996 27.8334 31.9996 27.0828C30.4996 26.3321 27.0822 25.2494 26.1662 25.8321C25.2502 26.4148 24.7502 27.0188 23.6662 27.4254C22.5836 27.8321 18.1662 29.8321 18.0822 32.4161C17.9982 35.0001 17.9169 37.9174 19.6662 38.0001C21.4156 38.0828 25.6662 36.9174 26.9996 35.8334C28.3329 34.7494 30.1662 35.0001 30.7489 36.2494C31.3316 37.4988 30.9156 38.2495 30.3329 40.2495C29.7502 42.2495 30.7142 43.2494 31.6489 44.9988C32.5836 46.7481 33.3329 47.7481 33.3329 48.9988C33.3329 50.2495 34.6662 51.4988 36.6662 49.4148C38.6662 47.3308 40.4996 43.2481 41.3329 41.7481C42.1662 40.2481 42.8329 36.9148 43.8329 36.2481C44.8329 35.5814 46.4169 33.9974 45.2489 34.2481C44.0809 34.4988 41.7489 34.1654 41.1662 32.4988C40.5836 30.8321 38.0836 27.6654 39.2489 27.3321C40.4142 26.9988 41.7489 29.1854 42.2489 30.2174C42.7489 31.2494 43.4156 32.4988 44.4156 32.8321C45.4156 33.1654 47.5822 30.6014 48.2489 30.2174C48.9156 29.8321 48.4156 28.2494 47.0822 28.4161C45.7489 28.5828 43.9996 28.4161 43.9996 27.5841C43.9996 26.7521 45.6662 25.6668 46.9996 25.9174C48.3329 26.1681 49.3329 26.5841 50.1662 27.5841C50.9996 28.5841 52.6662 30.4174 53.3329 31.5841C53.9996 32.7508 54.4996 32.9174 54.8329 30.8348C55.0542 29.4508 55.3489 28.6894 55.6196 27.8721C54.2689 20.1001 49.1929 13.6281 42.2876 10.3414Z" fill="#559D34"/>
</svg>
