<svg width="64" height="64" viewBox="0 0 64 64" fill="none" xmlns="http://www.w3.org/2000/svg">
<rect width="64" height="64" rx="10" fill="#232323"/>
<path d="M52 29C52 16.5 43.0462 9 32 9C20.955 9 12 16.5 12 29C12 35.9675 12.0025 41.985 19.5 44.8V50.25C19.5 52.3212 21.1788 54 23.25 54C25.3212 54 27 52.3212 27 50.25V46.3062C27.405 46.34 27.8238 46.3688 28.25 46.3938V50.25C28.25 52.3212 29.9288 54 32 54C34.0712 54 35.75 52.3212 35.75 50.25V46.3938C36.1775 46.3675 36.595 46.34 37 46.3062V50.25C37 52.3212 38.68 54 40.75 54C42.8212 54 44.5 52.3212 44.5 50.25V44.8C51.9975 41.985 52 35.9675 52 29Z" fill="#CCD6DD"/>
<path d="M23.25 32.75C26.7018 32.75 29.5 29.9518 29.5 26.5C29.5 23.0482 26.7018 20.25 23.25 20.25C19.7982 20.25 17 23.0482 17 26.5C17 29.9518 19.7982 32.75 23.25 32.75Z" fill="#292F33"/>
<path d="M40.75 32.75C44.2018 32.75 47 29.9518 47 26.5C47 23.0482 44.2018 20.25 40.75 20.25C37.2982 20.25 34.5 23.0482 34.5 26.5C34.5 29.9518 37.2982 32.75 40.75 32.75Z" fill="#292F33"/>
<path d="M34.3787 37.8275C34.0637 37.0613 33.125 36.5 32 36.5C30.875 36.5 29.935 37.0613 29.6213 37.8275C28.8313 38.0475 28.25 38.765 28.25 39.625C28.25 40.66 29.0888 41.5 30.125 41.5C30.9437 41.5 31.6325 40.9725 31.8875 40.2413C31.925 40.2425 31.9613 40.25 32 40.25C32.0387 40.25 32.075 40.2425 32.1125 40.2413C32.3688 40.9725 33.0575 41.5 33.875 41.5C34.91 41.5 35.75 40.66 35.75 39.625C35.75 38.765 35.1675 38.0488 34.3787 37.8275Z" fill="#292F33"/>
</svg>
