<svg width="67" height="67" viewBox="0 0 67 67" fill="none" xmlns="http://www.w3.org/2000/svg">
<rect width="66.1616" height="66.1389" rx="10" fill="#1769DB"/>
<path d="M26.794 32.222C26.696 32.0936 26.5665 31.9927 26.4181 31.9291C26.2696 31.8655 26.1072 31.8413 25.9467 31.8588C25.7861 31.8764 25.6328 31.9351 25.5017 32.0293C25.3705 32.1236 25.2658 32.2501 25.1979 32.3966L17.1028 48.5869C17.0288 48.7343 16.9938 48.8982 17.0009 49.0629C17.0081 49.2276 17.0572 49.3878 17.1436 49.5282C17.2301 49.6686 17.351 49.7846 17.4948 49.8651C17.6387 49.9457 17.8008 49.9882 17.9656 49.9885H29.238C29.4205 49.992 29.6 49.9419 29.7542 49.8444C29.9085 49.7468 30.0308 49.6062 30.1059 49.4399C32.5349 44.4521 31.0635 36.7858 26.794 32.222Z" fill="#FEFEFE"/>
<path d="M32.7345 17.518C30.7165 20.6225 29.5405 24.1984 29.3219 27.8947C29.1032 31.591 29.8496 35.2807 31.4876 38.6014L36.9492 49.4399C37.0289 49.6009 37.1518 49.7366 37.3042 49.8317C37.4566 49.9269 37.6324 49.9777 37.8121 49.9785H49.0845C49.2425 49.9655 49.3951 49.915 49.5297 49.8312C49.6643 49.7474 49.777 49.6327 49.8584 49.4967C49.9398 49.3607 49.9876 49.2072 49.9979 49.049C50.0082 48.8907 49.9806 48.7324 49.9174 48.5869L34.3805 17.518C34.3061 17.3629 34.1894 17.2319 34.0437 17.1403C33.8981 17.0486 33.7296 17 33.5575 17C33.3855 17 33.2169 17.0486 33.0713 17.1403C32.9257 17.2319 32.809 17.3629 32.7345 17.518Z" fill="#FEFEFE"/>
</svg>
