<svg width="64" height="64" viewBox="0 0 64 64" fill="none" xmlns="http://www.w3.org/2000/svg">
<rect width="64" height="64" rx="10" fill="#68217A"/>
<path d="M54.928 18.6637L55.059 18.5764C54.7971 18.0962 54.4042 17.6597 54.0113 17.4414L32.9264 5.30558C32.5772 5.08731 32.097 5 31.5732 5C31.0493 5 30.5691 5.13096 30.2199 5.30558L9.26597 17.485C8.52385 17.9216 8 19.0129 8 19.8424V44.1576C8 44.6378 8.08731 45.1617 8.39289 45.6419L8.30558 45.6855C8.52385 46.0348 8.82943 46.3403 9.135 46.515L30.1762 58.6944C30.5255 58.9127 31.0057 59 31.5295 59C32.0534 59 32.5335 58.869 32.8828 58.6944L53.8367 46.515C54.5788 46.0784 55.1027 44.9871 55.1027 44.1576V19.7987C55.1463 19.4495 55.1027 19.0566 54.928 18.6637Z" fill="#FEFEFE"/>
<path d="M30.5148 50.0295C20.8484 50.0295 13 42.1811 13 32.5148C13 22.8484 20.8484 15 30.5148 15C37.0329 15 42.7086 18.5916 45.7238 23.8682L39.9594 27.1938C38.0971 23.8682 34.5498 21.6512 30.5148 21.6512C24.5287 21.6512 19.6512 26.5287 19.6512 32.5148C19.6512 38.5008 24.5287 43.3783 30.5148 43.3783C34.5498 43.3783 38.0971 41.1613 39.9594 37.88L45.6794 41.25C42.6642 46.4822 36.9886 50.0295 30.5148 50.0295ZM53.1287 31.6279H51.7098L51.3107 33.4016H53.1287V35.6186H50.9117L50.3796 38.2791H48.2069L48.739 35.6186H47.054L46.5219 38.2791H44.3935L44.9256 35.6186H43.8171V33.4016H45.369L45.7681 31.6279H43.8171V29.4109H46.1672L46.6993 26.7504H48.872L48.3399 29.4109H50.0249L50.5569 26.7504H52.6853L52.1532 29.4109H53.1287V31.6279ZM47.4974 33.4016H49.1824L49.5814 31.6279H47.8965L47.4974 33.4016Z" fill="#68217A"/>
</svg>
