<svg width="64" height="64" viewBox="0 0 64 64" fill="none" xmlns="http://www.w3.org/2000/svg">
<rect width="64" height="64" rx="10" fill="#663399"/>
<path d="M35.1401 41.743H31.593V41.1263C31.593 40.4711 31.4387 39.97 31.1689 39.6617C30.9375 39.3533 30.5134 39.1606 30.1279 39.1606C29.5495 39.1606 29.1254 39.3533 28.8941 39.7773C28.6628 40.3169 28.5471 40.9336 28.5856 41.5503V48.6039C28.5856 50.0685 29.0869 50.8394 30.1279 50.8394C30.6291 50.8394 30.9761 50.6467 31.2074 50.2998C31.4773 49.8758 31.593 49.3362 31.593 48.8351V48.2955H35.1401V48.8351C35.1401 49.9914 34.9087 50.9165 34.4846 51.6874C34.0605 52.4197 33.4051 53.0364 32.634 53.4218C31.8243 53.8073 30.899 54 29.9736 54C28.4314 54 27.2362 53.576 26.3494 52.7666C25.4627 51.9572 25 50.6852 25 49.0664V40.9722C25 39.3533 25.4627 38.1199 26.4265 37.2719C27.3904 36.424 28.6628 36 30.205 36C31.7086 36 32.9038 36.424 33.7906 37.3105C34.6774 38.1585 35.1401 39.4689 35.1401 41.1649V41.743ZM44.9717 52.651C44.0849 53.5375 42.8511 54 41.3089 54C39.7667 54 38.5715 53.5375 37.7233 52.651C36.9136 51.7259 36.4509 50.4154 36.4124 48.7195H39.7667C39.8053 50.2227 40.3065 50.9936 41.3475 50.9936C41.8872 50.9936 42.2728 50.8394 42.4656 50.4925C42.6969 50.1456 42.774 49.6445 42.774 48.9122C42.774 48.334 42.6198 47.833 42.3499 47.4861C41.9643 47.0236 41.4631 46.6767 40.9234 46.4839L39.6896 45.8672C38.5715 45.3276 37.7618 44.7109 37.2606 43.9786C36.7594 43.2463 36.528 42.2441 36.528 40.9336C36.528 39.4689 36.9522 38.2741 37.8004 37.3876C38.6871 36.4625 39.8438 36.0385 41.3475 36.0385C42.8126 36.0385 43.9307 36.5011 44.7403 37.3876C45.55 38.2741 45.9741 39.5846 46.0127 41.242H42.774C42.774 40.7024 42.6969 40.1627 42.4656 39.6617C42.2728 39.2762 41.9258 39.1221 41.386 39.1221C40.4221 39.1221 39.9595 39.7002 39.9595 40.818C39.9595 41.3961 40.0751 41.8201 40.3065 42.167C40.6535 42.5525 41.0776 42.8223 41.5402 43.015L42.7355 43.5546C43.9692 44.1328 44.856 44.8266 45.3958 45.636C45.9355 46.4839 46.2054 47.5632 46.2054 48.9508C46.2825 50.4925 45.8584 51.7645 44.9717 52.651ZM55.8443 52.651C54.9575 53.5375 53.7237 54 52.1815 54C50.6393 54 49.4441 53.5375 48.5959 52.651C47.7862 51.7259 47.3235 50.4154 47.285 48.7195H50.6393C50.6393 50.2227 51.1791 50.9936 52.2201 50.9936C52.7598 50.9936 53.1454 50.8394 53.3382 50.4925C53.5695 50.1456 53.6466 49.6445 53.6466 48.9122C53.6466 48.334 53.4924 47.833 53.2225 47.4861C52.837 47.0236 52.3357 46.6767 51.796 46.4839L50.5622 45.8672C49.4441 45.3276 48.6344 44.7109 48.1332 43.9786C47.632 43.2463 47.4007 42.2441 47.4007 40.9336C47.4007 39.4689 47.8248 38.2741 48.673 37.3876C49.5598 36.4625 50.7164 36.0385 52.2201 36.0385C53.6852 36.0385 54.8033 36.5011 55.6129 37.3876C56.4226 38.2741 56.8467 39.5846 56.8853 41.242H53.6466C53.6852 40.7024 53.5695 40.1627 53.3382 39.6617C53.1454 39.2762 52.7984 39.1221 52.2586 39.1221C51.2947 39.1221 50.8321 39.7002 50.8321 40.818C50.8321 41.3961 50.9477 41.8201 51.1791 42.167C51.5261 42.5525 51.9502 42.8223 52.4128 43.015L53.6081 43.5546C54.8418 44.1328 55.7286 44.8266 56.2684 45.636C56.8082 46.4839 57.078 47.5632 57.078 48.9508C57.1552 50.4925 56.731 51.7645 55.8443 52.651Z" fill="#FEFEFE"/>
</svg>
