<svg width="64" height="64" viewBox="0 0 64 64" fill="none" xmlns="http://www.w3.org/2000/svg">
<g clip-path="url(#clip0_11_5)">
<path d="M64 0H0V64H64V0Z" fill="#512BD4"/>
<path d="M11.4069 40.8888C10.9543 40.8888 10.5697 40.7381 10.2529 40.4365C9.93616 40.1272 9.77777 39.7599 9.77777 39.3346C9.77777 38.9015 9.93616 38.5304 10.2529 38.221C10.5697 37.9117 10.9543 37.757 11.4069 37.757C11.8669 37.757 12.2554 37.9117 12.5721 38.221C12.8964 38.5304 13.0586 38.9015 13.0586 39.3346C13.0586 39.7599 12.8964 40.1272 12.5721 40.4365C12.2554 40.7381 11.8669 40.8888 11.4069 40.8888Z" fill="#FEFEFE"/>
<path d="M29.4971 40.6337H26.5557L18.8062 28.4079C18.6101 28.0985 18.4479 27.7775 18.3197 27.4451H18.2518C18.3122 27.8008 18.3423 28.5625 18.3423 29.7301V40.6337H15.7402V24H18.874L26.3634 35.9359C26.6802 36.4309 26.8838 36.7711 26.9743 36.9566H27.0195C26.9442 36.5159 26.9064 35.7697 26.9064 34.7179V24H29.4971V40.6337Z" fill="#FEFEFE"/>
<path d="M42.1683 40.6337H33.0612V24H41.8063V26.3432H35.7538V31.0525H41.3313V33.384H35.7538V38.3022H42.1683V40.6337Z" fill="#FEFEFE"/>
<path d="M55.1112 26.3432H50.4501V40.6337H47.7575V26.3432H43.1078V24H55.1112V26.3432Z" fill="#FEFEFE"/>
</g>
<defs>
<clipPath id="clip0_11_5">
<rect width="64" height="64" rx="10" fill="white"/>
</clipPath>
</defs>
</svg>
