<svg width="64" height="64" viewBox="0 0 64 64" fill="none" xmlns="http://www.w3.org/2000/svg">
<g clip-path="url(#clip0_11_37)">
<rect width="64" height="64" rx="10" fill="#273849"/>
<path d="M25.1675 53.005C29.1346 53.005 32.3349 49.8046 32.3349 45.8375V38.67H25.1675C21.2004 38.67 18 41.8704 18 45.8375C18 49.8046 21.2004 53.005 25.1675 53.005Z" fill="#0ACF83"/>
<path d="M18 31.5025C18 27.5354 21.2004 24.335 25.1675 24.335H32.3349V38.67H25.1675C21.2004 38.67 18 35.4697 18 31.5025Z" fill="#A259FF"/>
<path d="M18 17.1675C18 13.2004 21.2004 10 25.1675 10H32.3349V24.335H25.1675C21.2004 24.335 18 21.1346 18 17.1675Z" fill="#F24E1E"/>
<path d="M32.3352 10H39.5027C43.4698 10 46.6701 13.2004 46.6701 17.1675C46.6701 21.1346 43.4698 24.335 39.5027 24.335H32.3352V10Z" fill="#FF7262"/>
<path d="M46.6701 31.5025C46.6701 35.4697 43.4698 38.67 39.5027 38.67C35.5356 38.67 32.3352 35.4697 32.3352 31.5025C32.3352 27.5354 35.5356 24.335 39.5027 24.335C43.4698 24.335 46.6701 27.5354 46.6701 31.5025Z" fill="#1ABCFE"/>
</g>
<defs>
<clipPath id="clip0_11_37">
<rect width="64" height="64" rx="10" fill="white"/>
</clipPath>
</defs>
</svg>
