<svg width="64" height="64" viewBox="0 0 64 64" fill="none" xmlns="http://www.w3.org/2000/svg">
<rect width="64" height="64" rx="10" fill="#035BDA"/>
<path d="M24.4493 41.3724L23.1699 42.6554C23.0608 42.7648 22.9126 42.8264 22.7581 42.8266C22.6035 42.8269 22.4551 42.7657 22.3457 42.6565L12.8424 33.1801C12.6239 32.9622 12.5009 32.6665 12.5005 32.3579C12.5001 32.0493 12.6222 31.7532 12.8401 31.5347L14.1256 30.2455L24.4543 40.545C24.5637 40.6542 24.6254 40.8023 24.6256 40.9569C24.6258 41.1115 24.5646 41.2598 24.4555 41.3693L24.4493 41.3724Z" fill="#50E6FF"/>
<path d="M22.9711 22.1622L24.2587 23.4462C24.3681 23.5554 24.4297 23.7035 24.43 23.8581C24.4302 24.0127 24.369 24.161 24.2598 24.2705L14.1129 34.4461L12.8238 33.1606C12.6053 32.9427 12.4823 32.6469 12.4818 32.3383C12.4814 32.0298 12.6036 31.7337 12.8215 31.5151L22.1499 22.1603C22.2593 22.0522 22.407 21.9917 22.5609 21.9921C22.7147 21.9925 22.8621 22.0536 22.9711 22.1622Z" fill="#1490DF"/>
<path d="M49.8785 30.2544L51.1625 31.542C51.3804 31.7605 51.5026 32.0566 51.5021 32.3652C51.5017 32.6738 51.3787 32.9696 51.1602 33.1875L41.6569 42.6639C41.5475 42.773 41.3992 42.8342 41.2446 42.834C41.09 42.8338 40.9418 42.7722 40.8327 42.6627L39.5549 41.3813C39.4457 41.2718 39.3845 41.1235 39.3848 40.9689C39.385 40.8143 39.4466 40.6662 39.556 40.557L49.8832 30.2591L49.8785 30.2544Z" fill="#50E6FF"/>
<path d="M51.1715 33.155L49.8839 34.439L39.737 24.2633C39.6278 24.1539 39.5666 24.0056 39.5669 23.851C39.5671 23.6964 39.6287 23.5482 39.7382 23.4391L41.0258 22.1551C41.1352 22.046 41.2835 21.9848 41.4381 21.985C41.5927 21.9852 41.7409 22.0468 41.85 22.1563L51.1784 31.5111C51.3963 31.7296 51.5185 32.0257 51.5181 32.3343C51.5176 32.6429 51.3946 32.9387 51.1761 33.1565L51.1715 33.155Z" fill="#1490DF"/>
<path d="M30.8201 34.376H22.9855C22.8756 34.3802 22.7683 34.3412 22.6868 34.2673C22.6052 34.1935 22.5557 34.0907 22.549 33.9808C22.549 33.9239 22.5625 33.8679 22.5882 33.8171L31.9814 15.2317C32.0214 15.1596 32.0804 15.0999 32.152 15.0591C32.2236 15.0183 32.305 14.998 32.3874 15.0003H41.6539C41.7639 14.9961 41.8711 15.0351 41.9527 15.1089C42.0343 15.1828 42.0838 15.2856 42.0905 15.3954C42.0897 15.4746 42.0629 15.5513 42.0141 15.6137L30.9838 30.1542H41.7412C41.8512 30.15 41.9584 30.189 42.04 30.2628C42.1216 30.3366 42.1711 30.4395 42.1778 30.5493C42.1762 30.6495 42.1354 30.745 42.0643 30.8156L24.1883 49.412C24.0202 49.5124 22.8262 50.5034 23.4112 48.9994L30.8201 34.376Z" fill="url(#paint0_linear_12_246)"/>
<defs>
<linearGradient id="paint0_linear_12_246" x1="32.2741" y1="49.5626" x2="32.2741" y2="14.7259" gradientUnits="userSpaceOnUse">
<stop stop-color="#FEA11B"/>
<stop offset="0.284" stop-color="#FEA51A"/>
<stop offset="0.547" stop-color="#FEB018"/>
<stop offset="0.8" stop-color="#FFC314"/>
<stop offset="1" stop-color="#FFD70F"/>
</linearGradient>
</defs>
</svg>
