<svg width="64" height="64" viewBox="0 0 64 64" fill="none" xmlns="http://www.w3.org/2000/svg">
<g clip-path="url(#clip0_11_31)">
<rect width="64" height="64" fill="#243342"/>
<path d="M0 0V64H64V0H0ZM33.8529 54.5347C32.9083 56.4541 31.105 57.7152 29.0156 58.324C25.8048 59.0613 22.7338 58.6409 20.4493 57.2698C18.9204 56.3318 17.7265 54.8879 16.916 53.2245L21.7902 50.2395C21.8327 50.2574 21.9607 50.4888 22.1317 50.7878C22.7533 51.8293 23.2893 52.5665 24.343 53.0842C25.3783 53.4374 27.6511 53.6632 28.5286 51.8415C29.0647 50.9148 28.8942 47.936 28.8942 44.6403C28.8937 39.4614 28.9178 34.304 28.9178 29.184H34.9128C34.9128 34.816 34.9435 40.15 34.9128 45.6458C34.9256 49.0148 35.2179 52.0182 33.8529 54.5347ZM58.7228 52.841C56.639 59.969 45.0207 60.2004 40.3779 55.4911C39.3969 54.3826 38.782 53.8035 38.1967 52.524C40.6641 51.1048 40.6641 51.1048 43.0648 49.7157C44.3689 51.7202 45.5747 52.8225 47.744 53.2736C50.687 53.633 53.6479 52.6218 52.9838 49.4961C52.3013 46.9432 46.9576 46.3222 43.3208 43.5922C39.6288 41.1126 38.7635 35.0874 41.7976 31.6447C42.8088 30.3713 44.5333 29.4211 46.3427 28.9644L48.2309 28.7201C51.8564 28.6469 54.1225 29.6044 55.786 31.4619C56.2488 31.9309 56.6267 32.4367 57.3332 33.5329C55.402 34.7638 55.4081 34.752 52.6418 36.543C52.0509 35.2701 51.0705 34.4714 50.0342 34.1243C48.4255 33.6369 46.3969 34.1668 45.9761 35.8666C45.8301 36.3904 45.8604 36.8778 46.0923 37.7431C46.7441 39.2294 48.9313 39.8756 50.8933 40.7772C56.5412 43.0679 58.4484 45.524 58.9174 48.4475C59.369 50.9645 58.8083 52.5973 58.7228 52.841Z" fill="#F0DB4F"/>
</g>
<defs>
<clipPath id="clip0_11_31">
<rect width="64" height="64" rx="10" fill="white"/>
</clipPath>
</defs>
</svg>
