<svg width="64" height="64" viewBox="0 0 64 64" fill="none" xmlns="http://www.w3.org/2000/svg">
<g clip-path="url(#clip0_11_106)">
<rect width="64" height="64" rx="10" fill="#409433"/>
<path fill-rule="evenodd" clip-rule="evenodd" d="M40.2927 24.3783C40.8322 25.9389 41.2208 27.5322 41.3485 29.1837C41.5072 31.2324 41.4346 33.2667 41.0027 35.2818C40.9909 35.3373 40.966 35.3894 40.9475 35.4432C40.8121 35.4435 40.6739 35.4267 40.5415 35.4472C39.4225 35.623 38.3045 35.8052 37.1866 35.9864C36.031 36.1736 34.8737 36.3534 33.7201 36.5534C33.3113 36.624 32.8055 36.5397 32.6404 37.105C32.6357 37.1205 32.5887 37.1232 32.5614 37.1319L32.6172 33.7534L32.5604 25.6015L33.0989 25.509C33.9796 25.3648 34.8602 25.2186 35.7416 25.0784C36.7933 24.9114 37.8461 24.749 38.8985 24.586C39.3627 24.5137 39.8275 24.4475 40.2927 24.3783Z" fill="#D9F1D5"/>
<path fill-rule="evenodd" clip-rule="evenodd" d="M31.4493 46.9807C30.8812 46.4923 30.2933 46.0254 29.7488 45.5118C26.8188 42.7481 24.6756 39.4953 23.6202 35.5736C23.3294 34.4943 23.1355 33.3974 23.0733 32.2821C23.0296 31.5016 22.9664 30.7141 23.0215 29.9376C23.1684 27.8724 23.4669 25.827 24.0726 23.8377L24.1059 23.7913C24.1647 23.8697 24.2494 23.9389 24.2793 24.0273C24.8706 25.7685 25.4574 27.511 26.0413 29.2546C27.8759 34.7336 29.7081 40.214 31.5457 45.6916C31.5817 45.7985 31.6748 45.8863 31.7417 45.9827L31.4493 46.9807Z" fill="#DCF2D9"/>
<path fill-rule="evenodd" clip-rule="evenodd" d="M40.2923 24.3783C39.8271 24.4476 39.3619 24.5138 38.8977 24.5854C37.8453 24.7484 36.7925 24.9108 35.7408 25.0778C34.8595 25.218 33.9788 25.3642 33.0981 25.5084L32.5597 25.6008L32.5556 25.2496C32.5378 24.9608 32.5072 24.6724 32.5039 24.3837C32.4807 22.5423 32.4662 20.701 32.4434 18.8596C32.4292 17.707 32.4081 16.5547 32.3845 15.4025C32.3701 14.6865 32.3546 13.9702 32.3224 13.2552C32.3049 12.871 32.243 12.4888 32.2178 12.1046C32.2037 11.8838 32.2232 11.6613 32.2276 11.4394C32.5022 11.9715 32.7708 12.5076 33.0531 13.0357C33.4991 13.8707 34.2097 14.4858 34.8494 15.1571C37.3781 17.8099 39.1733 20.8943 40.2923 24.3783Z" fill="#E3F5E1"/>
<path fill-rule="evenodd" clip-rule="evenodd" d="M32.5607 37.1316C32.5879 37.1228 32.6353 37.1202 32.6397 37.1047C32.8047 36.5393 33.3106 36.6237 33.7193 36.5531C34.8729 36.3534 36.0302 36.1733 37.1858 35.986C38.3038 35.8049 39.4218 35.6227 40.5408 35.4469C40.6732 35.426 40.8113 35.4432 40.9468 35.4428C40.7377 36.1891 40.573 36.9514 40.3078 37.6771C40.0066 38.5003 39.6423 39.3037 39.2554 40.0913C38.6762 41.266 37.9594 42.3676 37.12 43.373C36.4749 44.1488 35.756 44.8658 35.0353 45.574C34.637 45.9656 34.1674 46.2846 33.7304 46.6365L33.6172 46.5592L33.2091 46.2103L32.7869 45.2849C32.4986 44.2054 32.3412 43.0951 32.3184 41.978L32.3261 41.7894L32.3836 40.974C32.4027 40.6956 32.4283 40.4177 32.44 40.1387C32.4834 39.1363 32.521 38.1339 32.5607 37.1316Z" fill="#CFEDCA"/>
<path fill-rule="evenodd" clip-rule="evenodd" d="M32.5611 37.1315C32.5215 38.1339 32.4838 39.1362 32.4411 40.1389C32.4294 40.4179 32.4038 40.6959 32.3847 40.9742L32.1275 41.0714C31.5564 39.39 30.985 37.7265 30.426 36.0586C29.5017 33.2992 28.5884 30.5355 27.6654 27.7755C26.9199 25.5477 26.1692 23.3217 25.4133 21.0975C25.378 20.9933 25.2765 20.9119 25.2059 20.8198L26.8516 17.7939C26.9081 17.8921 26.9827 17.9838 27.0183 18.0894C27.7805 20.3422 28.5388 22.5964 29.2933 24.8518C30.2734 27.7863 31.2475 30.7231 32.227 33.6579C32.266 33.7752 32.3305 33.8834 32.392 34.0149L32.6173 33.7527L32.5611 37.1315Z" fill="#EBF7E9"/>
<path fill-rule="evenodd" clip-rule="evenodd" d="M25.2061 20.8202C25.2767 20.9123 25.3778 20.9937 25.4135 21.0979C26.1693 23.3221 26.92 25.5481 27.6655 27.7759C28.5885 30.5359 29.5018 33.2996 30.4262 36.059C30.9848 37.7265 31.5562 39.3904 32.1277 41.0718L32.3848 40.9746L32.3273 41.7901L32.2752 41.978C32.1858 42.8708 32.1105 43.7656 32.0016 44.6563C31.9468 45.1027 31.8305 45.541 31.7421 45.9831C31.6756 45.8866 31.5821 45.7989 31.5462 45.692C29.7085 40.2139 27.8763 34.7339 26.0417 29.2549C25.458 27.5112 24.8707 25.7688 24.2797 24.0276C24.2498 23.9392 24.1654 23.87 24.1063 23.7917L25.2061 20.8202Z" fill="#E4F4E1"/>
<path fill-rule="evenodd" clip-rule="evenodd" d="M32.6166 33.753L32.3914 34.0152C32.3299 33.8838 32.2653 33.7752 32.2263 33.6582C31.2472 30.7234 30.2728 27.7866 29.2926 24.8521C28.5382 22.5967 27.7799 20.3426 27.0177 18.0897C26.9824 17.9842 26.9078 17.8921 26.851 17.7943L28.8862 15.1169C28.9504 15.2027 29.0418 15.279 29.0751 15.3754C29.6402 17.0296 30.2001 18.6857 30.7568 20.3429C31.2768 21.8904 31.789 23.4404 32.3151 24.9859C32.3504 25.0894 32.4731 25.1627 32.5551 25.2501L32.5591 25.6014C32.5786 28.318 32.5978 31.0357 32.6166 33.753Z" fill="#F2F9F1"/>
<path fill-rule="evenodd" clip-rule="evenodd" d="M32.5558 25.2495C32.4738 25.1621 32.3511 25.0888 32.3158 24.9853C31.7898 23.4397 31.2775 21.8898 30.7575 20.3422C30.2009 18.6851 29.6409 17.0293 29.0759 15.3748C29.0426 15.2783 28.9512 15.202 28.887 15.1163C29.5488 14.4683 30.1901 13.797 30.8785 13.1788C31.4906 12.6296 31.9827 12.0407 32.0052 11.1728C32.0062 11.1368 32.0251 11.1008 32.054 11L32.2284 11.439C32.2241 11.6612 32.2042 11.8834 32.2187 12.1042C32.2439 12.4884 32.3057 12.8706 32.3232 13.2548C32.3555 13.9698 32.3709 14.6861 32.3854 15.402C32.4086 16.5543 32.4298 17.7066 32.4442 18.8592C32.4667 20.7006 32.4815 22.5419 32.5047 24.3833C32.5074 24.6727 32.5377 24.9608 32.5558 25.2495Z" fill="#F9FCF8"/>
<path fill-rule="evenodd" clip-rule="evenodd" d="M31.7417 45.9827C31.8301 45.5407 31.9464 45.1021 32.0011 44.656C32.1104 43.7656 32.1853 42.8705 32.2748 41.9777L32.2969 41.9743L32.3191 41.978C32.342 43.0951 32.4993 44.2054 32.7877 45.2849C32.7285 45.3629 32.6448 45.4325 32.6136 45.5206C32.3692 46.2096 32.139 46.9041 31.8932 47.5932C31.8596 47.6873 31.7662 47.7606 31.7003 47.8433L31.4492 46.9807L31.7417 45.9827Z" fill="#A9AA88"/>
<path fill-rule="evenodd" clip-rule="evenodd" d="M31.7002 47.843C31.7661 47.7604 31.8598 47.6871 31.8931 47.593C32.1387 46.9041 32.3693 46.2101 32.6133 45.5208C32.6445 45.4328 32.7279 45.3632 32.7873 45.2853L33.2091 46.2108C33.1257 46.3291 33.0108 46.4356 32.9644 46.5673L32.1566 48.9396C32.1233 49.0347 32.0097 49.1019 31.9338 49.1823L31.7002 47.843Z" fill="#B6B598"/>
<path fill-rule="evenodd" clip-rule="evenodd" d="M31.9341 49.1827C32.0104 49.1027 32.1237 49.0351 32.1569 48.94L32.965 46.5672C33.011 46.4358 33.1263 46.3289 33.2097 46.2106L33.6181 46.5592C33.4208 46.7541 33.3112 46.9793 33.3771 47.264L33.2531 47.6701C33.1966 47.7397 33.1149 47.8002 33.087 47.8798C32.805 48.6876 32.5358 49.4997 32.2517 50.3074C32.2158 50.4099 32.1159 50.4903 32.0453 50.5804C32.0087 50.1141 31.9714 49.6489 31.9341 49.1827Z" fill="#C2C1A7"/>
<path fill-rule="evenodd" clip-rule="evenodd" d="M32.0454 50.5797C32.1156 50.4893 32.2154 50.409 32.2517 50.3069C32.5357 49.4996 32.8049 48.6877 33.0868 47.8798C33.1147 47.8005 33.1961 47.7397 33.2529 47.6701L33.0818 49.5336C33.0361 49.5863 32.9699 49.6324 32.948 49.6939C32.7548 50.2363 32.5727 50.7827 32.3788 51.3251C32.3388 51.437 32.2622 51.5358 32.2023 51.6404C32.1492 51.5708 32.0541 51.5036 32.0498 51.431C32.0326 51.1484 32.0444 50.8637 32.0454 50.5797Z" fill="#CECDB7"/>
<path fill-rule="evenodd" clip-rule="evenodd" d="M32.2025 51.6408C32.2623 51.5359 32.339 51.4371 32.3789 51.3256C32.5732 50.7835 32.755 50.237 32.9482 49.6943C32.9701 49.6328 33.0366 49.5871 33.082 49.534L33.086 50.7573L32.6767 51.8071L32.2025 51.6408Z" fill="#DBDAC7"/>
<path fill-rule="evenodd" clip-rule="evenodd" d="M32.6764 51.8078L33.0857 50.7579L33.1701 52L32.6764 51.8078Z" fill="#EBE9DC"/>
<path fill-rule="evenodd" clip-rule="evenodd" d="M33.3771 47.2642C33.3112 46.9796 33.4204 46.7541 33.618 46.5595L33.7313 46.6368L33.3771 47.2642Z" fill="#CECDB7"/>
<path fill-rule="evenodd" clip-rule="evenodd" d="M32.319 41.9782L32.2968 41.9745L32.2746 41.9779L32.3267 41.79L32.319 41.9782Z" fill="#99D590"/>
</g>
<defs>
<clipPath id="clip0_11_106">
<rect width="64" height="64" fill="white"/>
</clipPath>
</defs>
</svg>
