<svg width="64" height="64" viewBox="0 0 64 64" fill="none" xmlns="http://www.w3.org/2000/svg">
<rect width="64" height="64" rx="10" fill="#FEFEFE"/>
<path d="M23.8847 46.6282L23.7915 46.4422C23.6055 46.0697 23.7915 44.5803 23.8847 44.1147H15L28.5399 20L34 30.5L36.8253 28.5678L30.5878 17.303C30.4949 17.117 29.7501 16 28.5399 16C27.9811 16 27.1434 16.1861 26.4917 17.3962L11.4101 44.1147C11.3169 44.3943 10.6652 45.6044 11.2237 46.6282C11.5962 47.187 12.155 47.7455 13.4583 47.7455H26.1193C24.816 47.7455 24.1643 47.1867 23.8847 46.6282Z" fill="#00C58E"/>
<path d="M52.5579 44.2066L40.4554 22.4222C40.2693 22.2362 39.6176 21.0257 38.4072 21.0257C37.8487 21.0257 37.011 21.3049 36.3593 22.4222L34.7767 25.0289V31.5L38.5 25L49.1408 44.1625H45.6687C45.745 44.6057 45.8662 46.13 45.6687 46.5341L45.5755 46.6272C45.0171 47.651 43.6205 47.7442 43.4345 47.7442H50.5097C50.7889 47.7442 52.0923 47.6513 52.7439 46.6272C53.0232 46.1616 53.2095 45.3239 52.5579 44.2066Z" fill="#108775"/>
<path d="M45.9493 46.6282V46.535L46.0425 46.349C46.1353 45.9766 46.2285 45.6041 46.1353 45.2317L45.7632 44.1147L36.2677 27.5437L34.8712 25.0302H34.778L33.3815 27.5437L23.886 44.1144L23.5139 45.2317C23.4237 45.7051 23.489 46.195 23.6999 46.6282C24.0724 47.1867 24.6308 47.7455 25.9342 47.7455H43.6225C43.9017 47.7455 45.2976 47.6523 45.9493 46.6282ZM34.778 31.5L42 44.1147L27.8644 44.1144L34.778 31.5Z" fill="#2F495E"/>
</svg>
