<svg width="64" height="64" viewBox="0 0 64 64" fill="none" xmlns="http://www.w3.org/2000/svg">
<rect width="64" height="64" rx="10" fill="#FF4438"/>
<path d="M48.0661 33.2068C45.576 36.3237 42.8864 39.8861 37.5076 39.8861C32.7031 39.8861 30.9132 35.6764 30.7874 32.2565C31.84 34.4677 33.898 36.2582 37.1093 36.1754C43.2851 35.9774 47.5182 30.4362 47.5182 25.3897C47.5182 19.3539 42.986 15 35.1169 15C29.489 15 22.5166 17.1273 17.9344 20.4918C17.8848 23.9549 19.827 28.4573 20.5244 27.9626C24.4966 25.1252 27.6464 23.299 30.7016 22.383C26.179 27.3931 15.3285 39.0257 14 41.0735C14.1495 42.9536 16.4903 48 17.6357 48C17.9843 48 18.2832 47.802 18.6318 47.4557C21.903 43.8047 24.5698 40.531 26.9415 37.3756C27.2746 42.0002 29.5637 47.6538 35.9636 47.6538C41.6912 47.6538 47.369 43.5473 49.9587 34.2954C50.2575 33.1574 48.8628 32.2669 48.0661 33.2068ZM41.5417 25.7362C41.5417 28.6551 38.6532 30.0899 36.0134 30.0899C34.6025 30.0899 33.5188 29.7219 32.6615 29.2436C34.2388 26.8713 35.8 24.4385 37.4774 21.8343C40.4352 22.3316 41.5417 23.9648 41.5417 25.7362Z" fill="#FEFEFE"/>
</svg>
