<svg width="64" height="64" viewBox="0 0 64 64" fill="none" xmlns="http://www.w3.org/2000/svg">
<rect width="64" height="64" rx="10" fill="#131212"/>
<path d="M50.1234 38.388L48.6932 35.3867L41.7795 40.4703L49.4581 28.6677L50.6186 27.8456L50.3608 27.2825L50.8595 26.514L49.2795 24.9262L49.0757 24.4823L48.9354 24.5806L48.4355 24.0801L47.4045 25.665L24.9634 41.5605L33.2186 29.5793L48.6357 19.3809L47.1707 15.9626L38.774 21.5168L42.9076 15.5187L40.5387 13L31.2333 26.505L21.9903 32.6208L29.067 21.3306L33.5003 18.5468L32.0929 15.0912L19.173 23.2073L22.6976 17.5816L20.2376 15.2029L12.8 27.08L12.9163 27.1917L14.3057 30.6055L22.5489 25.4267L15.0358 37.4124L16.2646 38.6025L16.9971 40.3109L25.6791 34.5675L16.1208 48.4404L18.4885 50.9591L18.9644 50.268L42.0229 33.9345L34.3671 45.7013L34.4918 45.8264L34.4798 45.8369L36.067 49.1688L46.2488 41.6827L42.3298 49.3177L44.9576 51.4L51.2 39.2415L50.1234 38.388Z" fill="white"/>
</svg>
