<svg width="64" height="64" viewBox="0 0 64 64" fill="none" xmlns="http://www.w3.org/2000/svg">
<g clip-path="url(#clip0_11_242)">
<rect width="64" height="64" fill="#1A6EFF"/>
<path d="M42.5 48.25C36.945 51.315 29.31 51.63 21.625 48.485C15.6331 46.0538 10.5099 41.8783 6.91998 36.5C8.58834 37.7771 10.411 38.8388 12.345 39.66C20.28 43.21 28.21 42.965 33.795 39.66C25.845 33.83 19.095 26.25 14.065 20.06C13.0724 19.0139 12.1863 17.8716 11.42 16.65C17.5 21.955 27.17 28.65 30.61 30.545C25.6984 25.5124 21.1848 20.1062 17.11 14.375C23.8835 20.9574 31.337 26.8019 39.345 31.81C39.7 32 39.975 32.16 40.195 32.31C40.4297 31.7369 40.6317 31.151 40.8 30.555C42.655 24.11 40.535 16.785 35.905 10.72C46.625 16.905 53 28.525 50.33 38.255C50.26 38.52 50.185 38.755 50.105 39.03L50.2 39.14C55.495 45.455 54.04 52.14 53.375 50.89C50.5 45.5 45.185 47.165 42.5 48.25Z" fill="#1E2B39"/>
</g>
<defs>
<clipPath id="clip0_11_242">
<rect width="64" height="64" rx="10" fill="white"/>
</clipPath>
</defs>
</svg>
