<svg width="65" height="64" viewBox="0 0 65 64" fill="none" xmlns="http://www.w3.org/2000/svg">
<rect width="65" height="64" rx="10" fill="#8000F0"/>
<path d="M51.8676 18.9232L33.0776 52.4975C32.6897 53.1906 31.693 53.1947 31.2992 52.5049L12.1366 18.9265C11.7076 18.1748 12.3509 17.2642 13.2034 17.4165L32.0135 20.7761C32.1335 20.7976 32.2564 20.7973 32.3764 20.7755L50.7931 17.4213C51.6428 17.2666 52.2891 18.17 51.8676 18.9232Z" fill="url(#paint0_linear_12_257)"/>
<path d="M40.9737 13.0099L27.0686 15.7324C26.84 15.7772 26.6708 15.9707 26.657 16.203L25.8016 30.6383C25.7815 30.9783 26.094 31.2422 26.4261 31.1657L30.2975 30.2729C30.6597 30.1895 30.987 30.5082 30.9126 30.8722L29.7624 36.5002C29.685 36.879 30.0409 37.2029 30.4111 37.0905L32.8022 36.3646C33.1729 36.2521 33.5291 36.5769 33.4507 36.956L31.6228 45.7963C31.5085 46.3493 32.2445 46.6508 32.5515 46.1767L32.7566 45.8601L44.0873 23.2649C44.277 22.8866 43.9498 22.4552 43.534 22.5354L39.549 23.3039C39.1746 23.376 38.8559 23.0276 38.9616 22.6615L41.5625 13.652C41.6683 13.2852 41.3486 12.9365 40.9737 13.0099Z" fill="url(#paint1_linear_12_257)"/>
<defs>
<linearGradient id="paint0_linear_12_257" x1="11.6688" y1="16.2166" x2="35.0313" y2="47.969" gradientUnits="userSpaceOnUse">
<stop stop-color="#41D1FF"/>
<stop offset="1" stop-color="#BD34FE"/>
</linearGradient>
<linearGradient id="paint1_linear_12_257" x1="30.9338" y1="13.749" x2="35.1579" y2="42.7476" gradientUnits="userSpaceOnUse">
<stop stop-color="#FFEA83"/>
<stop offset="0.0833333" stop-color="#FFDD35"/>
<stop offset="1" stop-color="#FFA800"/>
</linearGradient>
</defs>
</svg>
